%TF.GenerationSoftware,KiCad,Pcbnew,8.0.3*%
%TF.CreationDate,2024-08-14T20:25:55-04:00*%
%TF.ProjectId,KarmothDiceRoller_V1,4b61726d-6f74-4684-9469-6365526f6c6c,rev?*%
%TF.SameCoordinates,Original*%
%TF.FileFunction,Paste,Top*%
%TF.FilePolarity,Positive*%
%FSLAX46Y46*%
G04 Gerber Fmt 4.6, Leading zero omitted, Abs format (unit mm)*
G04 Created by KiCad (PCBNEW 8.0.3) date 2024-08-14 20:25:55*
%MOMM*%
%LPD*%
G01*
G04 APERTURE LIST*
G04 Aperture macros list*
%AMRoundRect*
0 Rectangle with rounded corners*
0 $1 Rounding radius*
0 $2 $3 $4 $5 $6 $7 $8 $9 X,Y pos of 4 corners*
0 Add a 4 corners polygon primitive as box body*
4,1,4,$2,$3,$4,$5,$6,$7,$8,$9,$2,$3,0*
0 Add four circle primitives for the rounded corners*
1,1,$1+$1,$2,$3*
1,1,$1+$1,$4,$5*
1,1,$1+$1,$6,$7*
1,1,$1+$1,$8,$9*
0 Add four rect primitives between the rounded corners*
20,1,$1+$1,$2,$3,$4,$5,0*
20,1,$1+$1,$4,$5,$6,$7,0*
20,1,$1+$1,$6,$7,$8,$9,0*
20,1,$1+$1,$8,$9,$2,$3,0*%
%AMRotRect*
0 Rectangle, with rotation*
0 The origin of the aperture is its center*
0 $1 length*
0 $2 width*
0 $3 Rotation angle, in degrees counterclockwise*
0 Add horizontal line*
21,1,$1,$2,0,0,$3*%
%AMFreePoly0*
4,1,14,0.230680,0.111820,0.364320,-0.021820,0.377500,-0.053640,0.377500,-0.080000,0.364320,-0.111820,0.332500,-0.125000,-0.332500,-0.125000,-0.364320,-0.111820,-0.377500,-0.080000,-0.377500,0.080000,-0.364320,0.111820,-0.332500,0.125000,0.198860,0.125000,0.230680,0.111820,0.230680,0.111820,$1*%
%AMFreePoly1*
4,1,14,0.364320,0.111820,0.377500,0.080000,0.377500,0.053640,0.364320,0.021820,0.230680,-0.111820,0.198860,-0.125000,-0.332500,-0.125000,-0.364320,-0.111820,-0.377500,-0.080000,-0.377500,0.080000,-0.364320,0.111820,-0.332500,0.125000,0.332500,0.125000,0.364320,0.111820,0.364320,0.111820,$1*%
%AMFreePoly2*
4,1,14,0.111820,0.364320,0.125000,0.332500,0.125000,-0.332500,0.111820,-0.364320,0.080000,-0.377500,-0.080000,-0.377500,-0.111820,-0.364320,-0.125000,-0.332500,-0.125000,0.198860,-0.111820,0.230680,0.021820,0.364320,0.053640,0.377500,0.080000,0.377500,0.111820,0.364320,0.111820,0.364320,$1*%
%AMFreePoly3*
4,1,14,-0.021820,0.364320,0.111820,0.230680,0.125000,0.198860,0.125000,-0.332500,0.111820,-0.364320,0.080000,-0.377500,-0.080000,-0.377500,-0.111820,-0.364320,-0.125000,-0.332500,-0.125000,0.332500,-0.111820,0.364320,-0.080000,0.377500,-0.053640,0.377500,-0.021820,0.364320,-0.021820,0.364320,$1*%
%AMFreePoly4*
4,1,14,0.364320,0.111820,0.377500,0.080000,0.377500,-0.080000,0.364320,-0.111820,0.332500,-0.125000,-0.198860,-0.125000,-0.230680,-0.111820,-0.364320,0.021820,-0.377500,0.053640,-0.377500,0.080000,-0.364320,0.111820,-0.332500,0.125000,0.332500,0.125000,0.364320,0.111820,0.364320,0.111820,$1*%
%AMFreePoly5*
4,1,14,0.364320,0.111820,0.377500,0.080000,0.377500,-0.080000,0.364320,-0.111820,0.332500,-0.125000,-0.332500,-0.125000,-0.364320,-0.111820,-0.377500,-0.080000,-0.377500,-0.053640,-0.364320,-0.021820,-0.230680,0.111820,-0.198860,0.125000,0.332500,0.125000,0.364320,0.111820,0.364320,0.111820,$1*%
%AMFreePoly6*
4,1,14,0.111820,0.364320,0.125000,0.332500,0.125000,-0.198860,0.111820,-0.230680,-0.021820,-0.364320,-0.053640,-0.377500,-0.080000,-0.377500,-0.111820,-0.364320,-0.125000,-0.332500,-0.125000,0.332500,-0.111820,0.364320,-0.080000,0.377500,0.080000,0.377500,0.111820,0.364320,0.111820,0.364320,$1*%
%AMFreePoly7*
4,1,14,0.111820,0.364320,0.125000,0.332500,0.125000,-0.332500,0.111820,-0.364320,0.080000,-0.377500,0.053640,-0.377500,0.021820,-0.364320,-0.111820,-0.230680,-0.125000,-0.198860,-0.125000,0.332500,-0.111820,0.364320,-0.080000,0.377500,0.080000,0.377500,0.111820,0.364320,0.111820,0.364320,$1*%
G04 Aperture macros list end*
%ADD10RotRect,0.952500X0.558800X135.000000*%
%ADD11RotRect,0.952500X0.558800X225.000000*%
%ADD12RoundRect,0.200000X-0.200000X-0.275000X0.200000X-0.275000X0.200000X0.275000X-0.200000X0.275000X0*%
%ADD13RoundRect,0.200000X0.200000X0.275000X-0.200000X0.275000X-0.200000X-0.275000X0.200000X-0.275000X0*%
%ADD14FreePoly0,0.000000*%
%ADD15RoundRect,0.062500X-0.375000X-0.062500X0.375000X-0.062500X0.375000X0.062500X-0.375000X0.062500X0*%
%ADD16FreePoly1,0.000000*%
%ADD17FreePoly2,0.000000*%
%ADD18RoundRect,0.062500X-0.062500X-0.375000X0.062500X-0.375000X0.062500X0.375000X-0.062500X0.375000X0*%
%ADD19FreePoly3,0.000000*%
%ADD20FreePoly4,0.000000*%
%ADD21FreePoly5,0.000000*%
%ADD22FreePoly6,0.000000*%
%ADD23FreePoly7,0.000000*%
%ADD24RoundRect,0.218750X0.256250X-0.218750X0.256250X0.218750X-0.256250X0.218750X-0.256250X-0.218750X0*%
%ADD25RoundRect,0.250000X0.524568X0.113813X0.203174X0.496835X-0.524568X-0.113813X-0.203174X-0.496835X0*%
%ADD26RoundRect,0.250000X-0.203174X0.496835X-0.524568X0.113813X0.203174X-0.496835X0.524568X-0.113813X0*%
G04 APERTURE END LIST*
D10*
%TO.C,BTN2*%
X90938437Y-69060672D03*
X86439328Y-64561563D03*
X93560672Y-66438437D03*
X89061563Y-61939328D03*
%TD*%
D11*
%TO.C,BTN1*%
X103560672Y-64561563D03*
X99061563Y-69060672D03*
X100938437Y-61939328D03*
X96439328Y-66438437D03*
%TD*%
D12*
%TO.C,R7*%
X102925000Y-82250000D03*
X104575000Y-82250000D03*
%TD*%
%TO.C,R6*%
X102925000Y-83750000D03*
X104575000Y-83750000D03*
%TD*%
%TO.C,R5*%
X102925000Y-85250000D03*
X104575000Y-85250000D03*
%TD*%
D13*
%TO.C,R4*%
X87150000Y-85250000D03*
X85500000Y-85250000D03*
%TD*%
%TO.C,R3*%
X87150000Y-83750000D03*
X85500000Y-83750000D03*
%TD*%
%TO.C,R2*%
X87150000Y-82200000D03*
X85500000Y-82200000D03*
%TD*%
D12*
%TO.C,R1*%
X94175000Y-82500000D03*
X95825000Y-82500000D03*
%TD*%
D14*
%TO.C,U1*%
X93002500Y-74062500D03*
D15*
X93062500Y-74562500D03*
X93062500Y-75062500D03*
X93062500Y-75562500D03*
X93062500Y-76062500D03*
X93062500Y-76562500D03*
D16*
X93002500Y-77062500D03*
D17*
X93500000Y-77560000D03*
D18*
X94000000Y-77500000D03*
X94500000Y-77500000D03*
X95000000Y-77500000D03*
X95500000Y-77500000D03*
X96000000Y-77500000D03*
D19*
X96500000Y-77560000D03*
D20*
X96997500Y-77062500D03*
D15*
X96937500Y-76562500D03*
X96937500Y-76062500D03*
X96937500Y-75562500D03*
X96937500Y-75062500D03*
X96937500Y-74562500D03*
D21*
X96997500Y-74062500D03*
D22*
X96500000Y-73565000D03*
D18*
X96000000Y-73625000D03*
X95500000Y-73625000D03*
X95000000Y-73625000D03*
X94500000Y-73625000D03*
X94000000Y-73625000D03*
D23*
X93500000Y-73565000D03*
%TD*%
D24*
%TO.C,D30*%
X107000000Y-101325000D03*
X107000000Y-99750000D03*
%TD*%
%TO.C,D29*%
X107000000Y-98075000D03*
X107000000Y-96500000D03*
%TD*%
%TO.C,D28*%
X107000000Y-94787500D03*
X107000000Y-93212500D03*
%TD*%
%TO.C,D27*%
X107000000Y-91537500D03*
X107000000Y-89962500D03*
%TD*%
%TO.C,D26*%
X107000000Y-88325000D03*
X107000000Y-86750000D03*
%TD*%
%TO.C,D25*%
X103750000Y-101325000D03*
X103750000Y-99750000D03*
%TD*%
%TO.C,D24*%
X103750000Y-98075000D03*
X103750000Y-96500000D03*
%TD*%
%TO.C,D23*%
X103750000Y-94787500D03*
X103750000Y-93212500D03*
%TD*%
%TO.C,D22*%
X103750000Y-91537500D03*
X103750000Y-89962500D03*
%TD*%
%TO.C,D21*%
X103750000Y-88325000D03*
X103750000Y-86750000D03*
%TD*%
%TO.C,D20*%
X100537500Y-101325000D03*
X100537500Y-99750000D03*
%TD*%
%TO.C,D19*%
X100537500Y-98075000D03*
X100537500Y-96500000D03*
%TD*%
%TO.C,D18*%
X100537500Y-94787500D03*
X100537500Y-93212500D03*
%TD*%
%TO.C,D17*%
X100537500Y-91537500D03*
X100537500Y-89962500D03*
%TD*%
%TO.C,D16*%
X100537500Y-88325000D03*
X100537500Y-86750000D03*
%TD*%
%TO.C,D15*%
X89509176Y-101287500D03*
X89509176Y-99712500D03*
%TD*%
%TO.C,D14*%
X89509176Y-98037500D03*
X89509176Y-96462500D03*
%TD*%
%TO.C,D13*%
X89509176Y-94787500D03*
X89509176Y-93212500D03*
%TD*%
%TO.C,D12*%
X89509176Y-91537500D03*
X89509176Y-89962500D03*
%TD*%
%TO.C,D11*%
X89509176Y-88287500D03*
X89509176Y-86712500D03*
%TD*%
%TO.C,D10*%
X86250000Y-101287500D03*
X86250000Y-99712500D03*
%TD*%
%TO.C,D9*%
X86250000Y-96462500D03*
X86250000Y-98037500D03*
%TD*%
%TO.C,D8*%
X86250000Y-93212500D03*
X86250000Y-94787500D03*
%TD*%
%TO.C,D7*%
X86250000Y-89962500D03*
X86250000Y-91537500D03*
%TD*%
%TO.C,D6*%
X86250000Y-88287500D03*
X86250000Y-86712500D03*
%TD*%
%TO.C,D5*%
X83046676Y-101287500D03*
X83046676Y-99712500D03*
%TD*%
%TO.C,D4*%
X83046676Y-98037500D03*
X83046676Y-96462500D03*
%TD*%
%TO.C,D3*%
X83046676Y-94787500D03*
X83046676Y-93212500D03*
%TD*%
%TO.C,D2*%
X83046676Y-91537500D03*
X83046676Y-89962500D03*
%TD*%
%TO.C,D1*%
X83046676Y-88287500D03*
X83046676Y-86712500D03*
%TD*%
D25*
%TO.C,C2*%
X103110648Y-78727742D03*
X101889352Y-77272258D03*
%TD*%
D26*
%TO.C,C1*%
X88110648Y-77272258D03*
X86889352Y-78727742D03*
%TD*%
M02*
