%TF.GenerationSoftware,KiCad,Pcbnew,8.0.3*%
%TF.CreationDate,2024-08-14T20:25:55-04:00*%
%TF.ProjectId,KarmothDiceRoller_V1,4b61726d-6f74-4684-9469-6365526f6c6c,rev?*%
%TF.SameCoordinates,Original*%
%TF.FileFunction,Legend,Bot*%
%TF.FilePolarity,Positive*%
%FSLAX46Y46*%
G04 Gerber Fmt 4.6, Leading zero omitted, Abs format (unit mm)*
G04 Created by KiCad (PCBNEW 8.0.3) date 2024-08-14 20:25:55*
%MOMM*%
%LPD*%
G01*
G04 APERTURE LIST*
%ADD10C,0.100000*%
%ADD11C,0.031250*%
%ADD12C,0.150000*%
%ADD13C,0.120000*%
G04 APERTURE END LIST*
D10*
X107696115Y-103622419D02*
X107696115Y-102622419D01*
X107267544Y-103622419D02*
X107267544Y-103098609D01*
X107267544Y-103098609D02*
X107315163Y-103003371D01*
X107315163Y-103003371D02*
X107410401Y-102955752D01*
X107410401Y-102955752D02*
X107553258Y-102955752D01*
X107553258Y-102955752D02*
X107648496Y-103003371D01*
X107648496Y-103003371D02*
X107696115Y-103050990D01*
X106648496Y-103622419D02*
X106743734Y-103574800D01*
X106743734Y-103574800D02*
X106791353Y-103527180D01*
X106791353Y-103527180D02*
X106838972Y-103431942D01*
X106838972Y-103431942D02*
X106838972Y-103146228D01*
X106838972Y-103146228D02*
X106791353Y-103050990D01*
X106791353Y-103050990D02*
X106743734Y-103003371D01*
X106743734Y-103003371D02*
X106648496Y-102955752D01*
X106648496Y-102955752D02*
X106505639Y-102955752D01*
X106505639Y-102955752D02*
X106410401Y-103003371D01*
X106410401Y-103003371D02*
X106362782Y-103050990D01*
X106362782Y-103050990D02*
X106315163Y-103146228D01*
X106315163Y-103146228D02*
X106315163Y-103431942D01*
X106315163Y-103431942D02*
X106362782Y-103527180D01*
X106362782Y-103527180D02*
X106410401Y-103574800D01*
X106410401Y-103574800D02*
X106505639Y-103622419D01*
X106505639Y-103622419D02*
X106648496Y-103622419D01*
X105458020Y-102955752D02*
X105458020Y-103622419D01*
X105886591Y-102955752D02*
X105886591Y-103479561D01*
X105886591Y-103479561D02*
X105838972Y-103574800D01*
X105838972Y-103574800D02*
X105743734Y-103622419D01*
X105743734Y-103622419D02*
X105600877Y-103622419D01*
X105600877Y-103622419D02*
X105505639Y-103574800D01*
X105505639Y-103574800D02*
X105458020Y-103527180D01*
X105029448Y-103574800D02*
X104934210Y-103622419D01*
X104934210Y-103622419D02*
X104743734Y-103622419D01*
X104743734Y-103622419D02*
X104648496Y-103574800D01*
X104648496Y-103574800D02*
X104600877Y-103479561D01*
X104600877Y-103479561D02*
X104600877Y-103431942D01*
X104600877Y-103431942D02*
X104648496Y-103336704D01*
X104648496Y-103336704D02*
X104743734Y-103289085D01*
X104743734Y-103289085D02*
X104886591Y-103289085D01*
X104886591Y-103289085D02*
X104981829Y-103241466D01*
X104981829Y-103241466D02*
X105029448Y-103146228D01*
X105029448Y-103146228D02*
X105029448Y-103098609D01*
X105029448Y-103098609D02*
X104981829Y-103003371D01*
X104981829Y-103003371D02*
X104886591Y-102955752D01*
X104886591Y-102955752D02*
X104743734Y-102955752D01*
X104743734Y-102955752D02*
X104648496Y-103003371D01*
X103791353Y-103574800D02*
X103886591Y-103622419D01*
X103886591Y-103622419D02*
X104077067Y-103622419D01*
X104077067Y-103622419D02*
X104172305Y-103574800D01*
X104172305Y-103574800D02*
X104219924Y-103479561D01*
X104219924Y-103479561D02*
X104219924Y-103098609D01*
X104219924Y-103098609D02*
X104172305Y-103003371D01*
X104172305Y-103003371D02*
X104077067Y-102955752D01*
X104077067Y-102955752D02*
X103886591Y-102955752D01*
X103886591Y-102955752D02*
X103791353Y-103003371D01*
X103791353Y-103003371D02*
X103743734Y-103098609D01*
X103743734Y-103098609D02*
X103743734Y-103193847D01*
X103743734Y-103193847D02*
X104219924Y-103289085D01*
X103172305Y-103622419D02*
X103267543Y-103574800D01*
X103267543Y-103574800D02*
X103315162Y-103527180D01*
X103315162Y-103527180D02*
X103362781Y-103431942D01*
X103362781Y-103431942D02*
X103362781Y-103146228D01*
X103362781Y-103146228D02*
X103315162Y-103050990D01*
X103315162Y-103050990D02*
X103267543Y-103003371D01*
X103267543Y-103003371D02*
X103172305Y-102955752D01*
X103172305Y-102955752D02*
X103029448Y-102955752D01*
X103029448Y-102955752D02*
X102934210Y-103003371D01*
X102934210Y-103003371D02*
X102886591Y-103050990D01*
X102886591Y-103050990D02*
X102838972Y-103146228D01*
X102838972Y-103146228D02*
X102838972Y-103431942D01*
X102838972Y-103431942D02*
X102886591Y-103527180D01*
X102886591Y-103527180D02*
X102934210Y-103574800D01*
X102934210Y-103574800D02*
X103029448Y-103622419D01*
X103029448Y-103622419D02*
X103172305Y-103622419D01*
X102553257Y-102955752D02*
X102172305Y-102955752D01*
X102410400Y-103622419D02*
X102410400Y-102765276D01*
X102410400Y-102765276D02*
X102362781Y-102670038D01*
X102362781Y-102670038D02*
X102267543Y-102622419D01*
X102267543Y-102622419D02*
X102172305Y-102622419D01*
X101981828Y-102955752D02*
X101600876Y-102955752D01*
X101838971Y-102622419D02*
X101838971Y-103479561D01*
X101838971Y-103479561D02*
X101791352Y-103574800D01*
X101791352Y-103574800D02*
X101696114Y-103622419D01*
X101696114Y-103622419D02*
X101600876Y-103622419D01*
X101124685Y-103622419D02*
X101219923Y-103574800D01*
X101219923Y-103574800D02*
X101267542Y-103527180D01*
X101267542Y-103527180D02*
X101315161Y-103431942D01*
X101315161Y-103431942D02*
X101315161Y-103146228D01*
X101315161Y-103146228D02*
X101267542Y-103050990D01*
X101267542Y-103050990D02*
X101219923Y-103003371D01*
X101219923Y-103003371D02*
X101124685Y-102955752D01*
X101124685Y-102955752D02*
X100981828Y-102955752D01*
X100981828Y-102955752D02*
X100886590Y-103003371D01*
X100886590Y-103003371D02*
X100838971Y-103050990D01*
X100838971Y-103050990D02*
X100791352Y-103146228D01*
X100791352Y-103146228D02*
X100791352Y-103431942D01*
X100791352Y-103431942D02*
X100838971Y-103527180D01*
X100838971Y-103527180D02*
X100886590Y-103574800D01*
X100886590Y-103574800D02*
X100981828Y-103622419D01*
X100981828Y-103622419D02*
X101124685Y-103622419D01*
X100362780Y-103622419D02*
X100362780Y-102622419D01*
X100362780Y-103003371D02*
X100267542Y-102955752D01*
X100267542Y-102955752D02*
X100077066Y-102955752D01*
X100077066Y-102955752D02*
X99981828Y-103003371D01*
X99981828Y-103003371D02*
X99934209Y-103050990D01*
X99934209Y-103050990D02*
X99886590Y-103146228D01*
X99886590Y-103146228D02*
X99886590Y-103431942D01*
X99886590Y-103431942D02*
X99934209Y-103527180D01*
X99934209Y-103527180D02*
X99981828Y-103574800D01*
X99981828Y-103574800D02*
X100077066Y-103622419D01*
X100077066Y-103622419D02*
X100267542Y-103622419D01*
X100267542Y-103622419D02*
X100362780Y-103574800D01*
X99077066Y-103574800D02*
X99172304Y-103622419D01*
X99172304Y-103622419D02*
X99362780Y-103622419D01*
X99362780Y-103622419D02*
X99458018Y-103574800D01*
X99458018Y-103574800D02*
X99505637Y-103479561D01*
X99505637Y-103479561D02*
X99505637Y-103098609D01*
X99505637Y-103098609D02*
X99458018Y-103003371D01*
X99458018Y-103003371D02*
X99362780Y-102955752D01*
X99362780Y-102955752D02*
X99172304Y-102955752D01*
X99172304Y-102955752D02*
X99077066Y-103003371D01*
X99077066Y-103003371D02*
X99029447Y-103098609D01*
X99029447Y-103098609D02*
X99029447Y-103193847D01*
X99029447Y-103193847D02*
X99505637Y-103289085D01*
X98648494Y-103574800D02*
X98553256Y-103622419D01*
X98553256Y-103622419D02*
X98362780Y-103622419D01*
X98362780Y-103622419D02*
X98267542Y-103574800D01*
X98267542Y-103574800D02*
X98219923Y-103479561D01*
X98219923Y-103479561D02*
X98219923Y-103431942D01*
X98219923Y-103431942D02*
X98267542Y-103336704D01*
X98267542Y-103336704D02*
X98362780Y-103289085D01*
X98362780Y-103289085D02*
X98505637Y-103289085D01*
X98505637Y-103289085D02*
X98600875Y-103241466D01*
X98600875Y-103241466D02*
X98648494Y-103146228D01*
X98648494Y-103146228D02*
X98648494Y-103098609D01*
X98648494Y-103098609D02*
X98600875Y-103003371D01*
X98600875Y-103003371D02*
X98505637Y-102955752D01*
X98505637Y-102955752D02*
X98362780Y-102955752D01*
X98362780Y-102955752D02*
X98267542Y-103003371D01*
X97791351Y-103241466D02*
X97029447Y-103241466D01*
X96600875Y-103574800D02*
X96505637Y-103622419D01*
X96505637Y-103622419D02*
X96315161Y-103622419D01*
X96315161Y-103622419D02*
X96219923Y-103574800D01*
X96219923Y-103574800D02*
X96172304Y-103479561D01*
X96172304Y-103479561D02*
X96172304Y-103431942D01*
X96172304Y-103431942D02*
X96219923Y-103336704D01*
X96219923Y-103336704D02*
X96315161Y-103289085D01*
X96315161Y-103289085D02*
X96458018Y-103289085D01*
X96458018Y-103289085D02*
X96553256Y-103241466D01*
X96553256Y-103241466D02*
X96600875Y-103146228D01*
X96600875Y-103146228D02*
X96600875Y-103098609D01*
X96600875Y-103098609D02*
X96553256Y-103003371D01*
X96553256Y-103003371D02*
X96458018Y-102955752D01*
X96458018Y-102955752D02*
X96315161Y-102955752D01*
X96315161Y-102955752D02*
X96219923Y-103003371D01*
X95743732Y-103622419D02*
X95743732Y-102622419D01*
X95315161Y-103622419D02*
X95315161Y-103098609D01*
X95315161Y-103098609D02*
X95362780Y-103003371D01*
X95362780Y-103003371D02*
X95458018Y-102955752D01*
X95458018Y-102955752D02*
X95600875Y-102955752D01*
X95600875Y-102955752D02*
X95696113Y-103003371D01*
X95696113Y-103003371D02*
X95743732Y-103050990D01*
X94696113Y-103622419D02*
X94791351Y-103574800D01*
X94791351Y-103574800D02*
X94838970Y-103527180D01*
X94838970Y-103527180D02*
X94886589Y-103431942D01*
X94886589Y-103431942D02*
X94886589Y-103146228D01*
X94886589Y-103146228D02*
X94838970Y-103050990D01*
X94838970Y-103050990D02*
X94791351Y-103003371D01*
X94791351Y-103003371D02*
X94696113Y-102955752D01*
X94696113Y-102955752D02*
X94553256Y-102955752D01*
X94553256Y-102955752D02*
X94458018Y-103003371D01*
X94458018Y-103003371D02*
X94410399Y-103050990D01*
X94410399Y-103050990D02*
X94362780Y-103146228D01*
X94362780Y-103146228D02*
X94362780Y-103431942D01*
X94362780Y-103431942D02*
X94410399Y-103527180D01*
X94410399Y-103527180D02*
X94458018Y-103574800D01*
X94458018Y-103574800D02*
X94553256Y-103622419D01*
X94553256Y-103622419D02*
X94696113Y-103622419D01*
X93934208Y-102955752D02*
X93934208Y-103955752D01*
X93934208Y-103003371D02*
X93838970Y-102955752D01*
X93838970Y-102955752D02*
X93648494Y-102955752D01*
X93648494Y-102955752D02*
X93553256Y-103003371D01*
X93553256Y-103003371D02*
X93505637Y-103050990D01*
X93505637Y-103050990D02*
X93458018Y-103146228D01*
X93458018Y-103146228D02*
X93458018Y-103431942D01*
X93458018Y-103431942D02*
X93505637Y-103527180D01*
X93505637Y-103527180D02*
X93553256Y-103574800D01*
X93553256Y-103574800D02*
X93648494Y-103622419D01*
X93648494Y-103622419D02*
X93838970Y-103622419D01*
X93838970Y-103622419D02*
X93934208Y-103574800D01*
X93029446Y-103527180D02*
X92981827Y-103574800D01*
X92981827Y-103574800D02*
X93029446Y-103622419D01*
X93029446Y-103622419D02*
X93077065Y-103574800D01*
X93077065Y-103574800D02*
X93029446Y-103527180D01*
X93029446Y-103527180D02*
X93029446Y-103622419D01*
X92696113Y-102955752D02*
X92315161Y-102955752D01*
X92553256Y-103622419D02*
X92553256Y-102765276D01*
X92553256Y-102765276D02*
X92505637Y-102670038D01*
X92505637Y-102670038D02*
X92410399Y-102622419D01*
X92410399Y-102622419D02*
X92315161Y-102622419D01*
X91838970Y-103622419D02*
X91934208Y-103574800D01*
X91934208Y-103574800D02*
X91981827Y-103527180D01*
X91981827Y-103527180D02*
X92029446Y-103431942D01*
X92029446Y-103431942D02*
X92029446Y-103146228D01*
X92029446Y-103146228D02*
X91981827Y-103050990D01*
X91981827Y-103050990D02*
X91934208Y-103003371D01*
X91934208Y-103003371D02*
X91838970Y-102955752D01*
X91838970Y-102955752D02*
X91696113Y-102955752D01*
X91696113Y-102955752D02*
X91600875Y-103003371D01*
X91600875Y-103003371D02*
X91553256Y-103050990D01*
X91553256Y-103050990D02*
X91505637Y-103146228D01*
X91505637Y-103146228D02*
X91505637Y-103431942D01*
X91505637Y-103431942D02*
X91553256Y-103527180D01*
X91553256Y-103527180D02*
X91600875Y-103574800D01*
X91600875Y-103574800D02*
X91696113Y-103622419D01*
X91696113Y-103622419D02*
X91838970Y-103622419D01*
X90648494Y-102955752D02*
X90648494Y-103622419D01*
X91077065Y-102955752D02*
X91077065Y-103479561D01*
X91077065Y-103479561D02*
X91029446Y-103574800D01*
X91029446Y-103574800D02*
X90934208Y-103622419D01*
X90934208Y-103622419D02*
X90791351Y-103622419D01*
X90791351Y-103622419D02*
X90696113Y-103574800D01*
X90696113Y-103574800D02*
X90648494Y-103527180D01*
X90172303Y-103622419D02*
X90172303Y-102955752D01*
X90172303Y-103146228D02*
X90124684Y-103050990D01*
X90124684Y-103050990D02*
X90077065Y-103003371D01*
X90077065Y-103003371D02*
X89981827Y-102955752D01*
X89981827Y-102955752D02*
X89886589Y-102955752D01*
X89696112Y-102955752D02*
X89315160Y-102955752D01*
X89553255Y-102622419D02*
X89553255Y-103479561D01*
X89553255Y-103479561D02*
X89505636Y-103574800D01*
X89505636Y-103574800D02*
X89410398Y-103622419D01*
X89410398Y-103622419D02*
X89315160Y-103622419D01*
X88981826Y-103622419D02*
X88981826Y-102622419D01*
X88553255Y-103622419D02*
X88553255Y-103098609D01*
X88553255Y-103098609D02*
X88600874Y-103003371D01*
X88600874Y-103003371D02*
X88696112Y-102955752D01*
X88696112Y-102955752D02*
X88838969Y-102955752D01*
X88838969Y-102955752D02*
X88934207Y-103003371D01*
X88934207Y-103003371D02*
X88981826Y-103050990D01*
X88172302Y-102955752D02*
X87981826Y-103622419D01*
X87981826Y-103622419D02*
X87791350Y-103146228D01*
X87791350Y-103146228D02*
X87600874Y-103622419D01*
X87600874Y-103622419D02*
X87410398Y-102955752D01*
X86600874Y-103622419D02*
X86600874Y-103098609D01*
X86600874Y-103098609D02*
X86648493Y-103003371D01*
X86648493Y-103003371D02*
X86743731Y-102955752D01*
X86743731Y-102955752D02*
X86934207Y-102955752D01*
X86934207Y-102955752D02*
X87029445Y-103003371D01*
X86600874Y-103574800D02*
X86696112Y-103622419D01*
X86696112Y-103622419D02*
X86934207Y-103622419D01*
X86934207Y-103622419D02*
X87029445Y-103574800D01*
X87029445Y-103574800D02*
X87077064Y-103479561D01*
X87077064Y-103479561D02*
X87077064Y-103384323D01*
X87077064Y-103384323D02*
X87029445Y-103289085D01*
X87029445Y-103289085D02*
X86934207Y-103241466D01*
X86934207Y-103241466D02*
X86696112Y-103241466D01*
X86696112Y-103241466D02*
X86600874Y-103193847D01*
X85981826Y-103622419D02*
X86077064Y-103574800D01*
X86077064Y-103574800D02*
X86124683Y-103479561D01*
X86124683Y-103479561D02*
X86124683Y-102622419D01*
X85458016Y-103622419D02*
X85553254Y-103574800D01*
X85553254Y-103574800D02*
X85600873Y-103479561D01*
X85600873Y-103479561D02*
X85600873Y-102622419D01*
X85077063Y-103527180D02*
X85029444Y-103574800D01*
X85029444Y-103574800D02*
X85077063Y-103622419D01*
X85077063Y-103622419D02*
X85124682Y-103574800D01*
X85124682Y-103574800D02*
X85077063Y-103527180D01*
X85077063Y-103527180D02*
X85077063Y-103622419D01*
X84172302Y-103574800D02*
X84267540Y-103622419D01*
X84267540Y-103622419D02*
X84458016Y-103622419D01*
X84458016Y-103622419D02*
X84553254Y-103574800D01*
X84553254Y-103574800D02*
X84600873Y-103527180D01*
X84600873Y-103527180D02*
X84648492Y-103431942D01*
X84648492Y-103431942D02*
X84648492Y-103146228D01*
X84648492Y-103146228D02*
X84600873Y-103050990D01*
X84600873Y-103050990D02*
X84553254Y-103003371D01*
X84553254Y-103003371D02*
X84458016Y-102955752D01*
X84458016Y-102955752D02*
X84267540Y-102955752D01*
X84267540Y-102955752D02*
X84172302Y-103003371D01*
X83600873Y-103622419D02*
X83696111Y-103574800D01*
X83696111Y-103574800D02*
X83743730Y-103527180D01*
X83743730Y-103527180D02*
X83791349Y-103431942D01*
X83791349Y-103431942D02*
X83791349Y-103146228D01*
X83791349Y-103146228D02*
X83743730Y-103050990D01*
X83743730Y-103050990D02*
X83696111Y-103003371D01*
X83696111Y-103003371D02*
X83600873Y-102955752D01*
X83600873Y-102955752D02*
X83458016Y-102955752D01*
X83458016Y-102955752D02*
X83362778Y-103003371D01*
X83362778Y-103003371D02*
X83315159Y-103050990D01*
X83315159Y-103050990D02*
X83267540Y-103146228D01*
X83267540Y-103146228D02*
X83267540Y-103431942D01*
X83267540Y-103431942D02*
X83315159Y-103527180D01*
X83315159Y-103527180D02*
X83362778Y-103574800D01*
X83362778Y-103574800D02*
X83458016Y-103622419D01*
X83458016Y-103622419D02*
X83600873Y-103622419D01*
X82838968Y-103622419D02*
X82838968Y-102955752D01*
X82838968Y-103050990D02*
X82791349Y-103003371D01*
X82791349Y-103003371D02*
X82696111Y-102955752D01*
X82696111Y-102955752D02*
X82553254Y-102955752D01*
X82553254Y-102955752D02*
X82458016Y-103003371D01*
X82458016Y-103003371D02*
X82410397Y-103098609D01*
X82410397Y-103098609D02*
X82410397Y-103622419D01*
X82410397Y-103098609D02*
X82362778Y-103003371D01*
X82362778Y-103003371D02*
X82267540Y-102955752D01*
X82267540Y-102955752D02*
X82124683Y-102955752D01*
X82124683Y-102955752D02*
X82029444Y-103003371D01*
X82029444Y-103003371D02*
X81981825Y-103098609D01*
X81981825Y-103098609D02*
X81981825Y-103622419D01*
X99577068Y-69896228D02*
X99624687Y-69848609D01*
X99624687Y-69848609D02*
X99719925Y-69800990D01*
X99719925Y-69800990D02*
X99815163Y-69800990D01*
X99815163Y-69800990D02*
X99910401Y-69848609D01*
X99910401Y-69848609D02*
X99958020Y-69896228D01*
X99958020Y-69896228D02*
X100005639Y-69991466D01*
X100005639Y-69991466D02*
X100005639Y-70086704D01*
X100005639Y-70086704D02*
X99958020Y-70181942D01*
X99958020Y-70181942D02*
X99910401Y-70229561D01*
X99910401Y-70229561D02*
X99815163Y-70277180D01*
X99815163Y-70277180D02*
X99719925Y-70277180D01*
X99719925Y-70277180D02*
X99624687Y-70229561D01*
X99624687Y-70229561D02*
X99577068Y-70181942D01*
X99577068Y-69800990D02*
X99577068Y-70181942D01*
X99577068Y-70181942D02*
X99529449Y-70229561D01*
X99529449Y-70229561D02*
X99481830Y-70229561D01*
X99481830Y-70229561D02*
X99386591Y-70181942D01*
X99386591Y-70181942D02*
X99338972Y-70086704D01*
X99338972Y-70086704D02*
X99338972Y-69848609D01*
X99338972Y-69848609D02*
X99434211Y-69705752D01*
X99434211Y-69705752D02*
X99577068Y-69610514D01*
X99577068Y-69610514D02*
X99767544Y-69562895D01*
X99767544Y-69562895D02*
X99958020Y-69610514D01*
X99958020Y-69610514D02*
X100100877Y-69705752D01*
X100100877Y-69705752D02*
X100196115Y-69848609D01*
X100196115Y-69848609D02*
X100243734Y-70039085D01*
X100243734Y-70039085D02*
X100196115Y-70229561D01*
X100196115Y-70229561D02*
X100100877Y-70372419D01*
X100100877Y-70372419D02*
X99958020Y-70467657D01*
X99958020Y-70467657D02*
X99767544Y-70515276D01*
X99767544Y-70515276D02*
X99577068Y-70467657D01*
X99577068Y-70467657D02*
X99434211Y-70372419D01*
X98910401Y-70372419D02*
X98910401Y-69372419D01*
X98338973Y-70372419D02*
X98767544Y-69800990D01*
X98338973Y-69372419D02*
X98910401Y-69943847D01*
X97481830Y-70372419D02*
X97481830Y-69848609D01*
X97481830Y-69848609D02*
X97529449Y-69753371D01*
X97529449Y-69753371D02*
X97624687Y-69705752D01*
X97624687Y-69705752D02*
X97815163Y-69705752D01*
X97815163Y-69705752D02*
X97910401Y-69753371D01*
X97481830Y-70324800D02*
X97577068Y-70372419D01*
X97577068Y-70372419D02*
X97815163Y-70372419D01*
X97815163Y-70372419D02*
X97910401Y-70324800D01*
X97910401Y-70324800D02*
X97958020Y-70229561D01*
X97958020Y-70229561D02*
X97958020Y-70134323D01*
X97958020Y-70134323D02*
X97910401Y-70039085D01*
X97910401Y-70039085D02*
X97815163Y-69991466D01*
X97815163Y-69991466D02*
X97577068Y-69991466D01*
X97577068Y-69991466D02*
X97481830Y-69943847D01*
X97005639Y-70372419D02*
X97005639Y-69705752D01*
X97005639Y-69896228D02*
X96958020Y-69800990D01*
X96958020Y-69800990D02*
X96910401Y-69753371D01*
X96910401Y-69753371D02*
X96815163Y-69705752D01*
X96815163Y-69705752D02*
X96719925Y-69705752D01*
X96386591Y-70372419D02*
X96386591Y-69372419D01*
X96386591Y-69372419D02*
X96053258Y-70086704D01*
X96053258Y-70086704D02*
X95719925Y-69372419D01*
X95719925Y-69372419D02*
X95719925Y-70372419D01*
X95100877Y-70372419D02*
X95196115Y-70324800D01*
X95196115Y-70324800D02*
X95243734Y-70277180D01*
X95243734Y-70277180D02*
X95291353Y-70181942D01*
X95291353Y-70181942D02*
X95291353Y-69896228D01*
X95291353Y-69896228D02*
X95243734Y-69800990D01*
X95243734Y-69800990D02*
X95196115Y-69753371D01*
X95196115Y-69753371D02*
X95100877Y-69705752D01*
X95100877Y-69705752D02*
X94958020Y-69705752D01*
X94958020Y-69705752D02*
X94862782Y-69753371D01*
X94862782Y-69753371D02*
X94815163Y-69800990D01*
X94815163Y-69800990D02*
X94767544Y-69896228D01*
X94767544Y-69896228D02*
X94767544Y-70181942D01*
X94767544Y-70181942D02*
X94815163Y-70277180D01*
X94815163Y-70277180D02*
X94862782Y-70324800D01*
X94862782Y-70324800D02*
X94958020Y-70372419D01*
X94958020Y-70372419D02*
X95100877Y-70372419D01*
X94481829Y-69705752D02*
X94100877Y-69705752D01*
X94338972Y-69372419D02*
X94338972Y-70229561D01*
X94338972Y-70229561D02*
X94291353Y-70324800D01*
X94291353Y-70324800D02*
X94196115Y-70372419D01*
X94196115Y-70372419D02*
X94100877Y-70372419D01*
X93767543Y-70372419D02*
X93767543Y-69372419D01*
X93338972Y-70372419D02*
X93338972Y-69848609D01*
X93338972Y-69848609D02*
X93386591Y-69753371D01*
X93386591Y-69753371D02*
X93481829Y-69705752D01*
X93481829Y-69705752D02*
X93624686Y-69705752D01*
X93624686Y-69705752D02*
X93719924Y-69753371D01*
X93719924Y-69753371D02*
X93767543Y-69800990D01*
X92862781Y-70372419D02*
X92862781Y-69372419D01*
X92862781Y-69372419D02*
X92624686Y-69372419D01*
X92624686Y-69372419D02*
X92481829Y-69420038D01*
X92481829Y-69420038D02*
X92386591Y-69515276D01*
X92386591Y-69515276D02*
X92338972Y-69610514D01*
X92338972Y-69610514D02*
X92291353Y-69800990D01*
X92291353Y-69800990D02*
X92291353Y-69943847D01*
X92291353Y-69943847D02*
X92338972Y-70134323D01*
X92338972Y-70134323D02*
X92386591Y-70229561D01*
X92386591Y-70229561D02*
X92481829Y-70324800D01*
X92481829Y-70324800D02*
X92624686Y-70372419D01*
X92624686Y-70372419D02*
X92862781Y-70372419D01*
X91862781Y-70372419D02*
X91862781Y-69705752D01*
X91862781Y-69372419D02*
X91910400Y-69420038D01*
X91910400Y-69420038D02*
X91862781Y-69467657D01*
X91862781Y-69467657D02*
X91815162Y-69420038D01*
X91815162Y-69420038D02*
X91862781Y-69372419D01*
X91862781Y-69372419D02*
X91862781Y-69467657D01*
X90958020Y-70324800D02*
X91053258Y-70372419D01*
X91053258Y-70372419D02*
X91243734Y-70372419D01*
X91243734Y-70372419D02*
X91338972Y-70324800D01*
X91338972Y-70324800D02*
X91386591Y-70277180D01*
X91386591Y-70277180D02*
X91434210Y-70181942D01*
X91434210Y-70181942D02*
X91434210Y-69896228D01*
X91434210Y-69896228D02*
X91386591Y-69800990D01*
X91386591Y-69800990D02*
X91338972Y-69753371D01*
X91338972Y-69753371D02*
X91243734Y-69705752D01*
X91243734Y-69705752D02*
X91053258Y-69705752D01*
X91053258Y-69705752D02*
X90958020Y-69753371D01*
X90148496Y-70324800D02*
X90243734Y-70372419D01*
X90243734Y-70372419D02*
X90434210Y-70372419D01*
X90434210Y-70372419D02*
X90529448Y-70324800D01*
X90529448Y-70324800D02*
X90577067Y-70229561D01*
X90577067Y-70229561D02*
X90577067Y-69848609D01*
X90577067Y-69848609D02*
X90529448Y-69753371D01*
X90529448Y-69753371D02*
X90434210Y-69705752D01*
X90434210Y-69705752D02*
X90243734Y-69705752D01*
X90243734Y-69705752D02*
X90148496Y-69753371D01*
X90148496Y-69753371D02*
X90100877Y-69848609D01*
X90100877Y-69848609D02*
X90100877Y-69943847D01*
X90100877Y-69943847D02*
X90577067Y-70039085D01*
D11*
X88895822Y-63652830D02*
X88887404Y-63678084D01*
X88887404Y-63678084D02*
X88862150Y-63703338D01*
X88862150Y-63703338D02*
X88828478Y-63720173D01*
X88828478Y-63720173D02*
X88794807Y-63720173D01*
X88794807Y-63720173D02*
X88769553Y-63711756D01*
X88769553Y-63711756D02*
X88727463Y-63686502D01*
X88727463Y-63686502D02*
X88702209Y-63661248D01*
X88702209Y-63661248D02*
X88676955Y-63619158D01*
X88676955Y-63619158D02*
X88668537Y-63593904D01*
X88668537Y-63593904D02*
X88668537Y-63560233D01*
X88668537Y-63560233D02*
X88685373Y-63526561D01*
X88685373Y-63526561D02*
X88702209Y-63509725D01*
X88702209Y-63509725D02*
X88735881Y-63492889D01*
X88735881Y-63492889D02*
X88752717Y-63492889D01*
X88752717Y-63492889D02*
X88811642Y-63551815D01*
X88811642Y-63551815D02*
X88777971Y-63585486D01*
X88811642Y-63400292D02*
X88988419Y-63577069D01*
X88988419Y-63577069D02*
X88912658Y-63299277D01*
X88912658Y-63299277D02*
X89089434Y-63476053D01*
X88996837Y-63215097D02*
X89173614Y-63391874D01*
X89173614Y-63391874D02*
X89215704Y-63349784D01*
X89215704Y-63349784D02*
X89232540Y-63316112D01*
X89232540Y-63316112D02*
X89232540Y-63282441D01*
X89232540Y-63282441D02*
X89224122Y-63257187D01*
X89224122Y-63257187D02*
X89198868Y-63215097D01*
X89198868Y-63215097D02*
X89173614Y-63189843D01*
X89173614Y-63189843D02*
X89131524Y-63164589D01*
X89131524Y-63164589D02*
X89106270Y-63156171D01*
X89106270Y-63156171D02*
X89072599Y-63156171D01*
X89072599Y-63156171D02*
X89038927Y-63173007D01*
X89038927Y-63173007D02*
X88996837Y-63215097D01*
X88240065Y-65349044D02*
X88223229Y-65349044D01*
X88223229Y-65349044D02*
X88189557Y-65365880D01*
X88189557Y-65365880D02*
X88172721Y-65382716D01*
X88172721Y-65382716D02*
X88155885Y-65416388D01*
X88155885Y-65416388D02*
X88155885Y-65450059D01*
X88155885Y-65450059D02*
X88164303Y-65475313D01*
X88164303Y-65475313D02*
X88189557Y-65517403D01*
X88189557Y-65517403D02*
X88214811Y-65542657D01*
X88214811Y-65542657D02*
X88256901Y-65567911D01*
X88256901Y-65567911D02*
X88282155Y-65576328D01*
X88282155Y-65576328D02*
X88315826Y-65576328D01*
X88315826Y-65576328D02*
X88349498Y-65559493D01*
X88349498Y-65559493D02*
X88366334Y-65542657D01*
X88366334Y-65542657D02*
X88383170Y-65508985D01*
X88383170Y-65508985D02*
X88383170Y-65492149D01*
X88383170Y-65172267D02*
X88298990Y-65256447D01*
X88298990Y-65256447D02*
X88475767Y-65433224D01*
X88442095Y-65113342D02*
X88618872Y-65290119D01*
X88543111Y-65012327D02*
X88568364Y-65189103D01*
X88719887Y-65189103D02*
X88517857Y-65189103D01*
X90132417Y-64872589D02*
X90157671Y-65015694D01*
X90031402Y-64973605D02*
X90208178Y-65150381D01*
X90208178Y-65150381D02*
X90275522Y-65083038D01*
X90275522Y-65083038D02*
X90283940Y-65057784D01*
X90283940Y-65057784D02*
X90283940Y-65040948D01*
X90283940Y-65040948D02*
X90275522Y-65015694D01*
X90275522Y-65015694D02*
X90250268Y-64990440D01*
X90250268Y-64990440D02*
X90225014Y-64982022D01*
X90225014Y-64982022D02*
X90208178Y-64982022D01*
X90208178Y-64982022D02*
X90182925Y-64990440D01*
X90182925Y-64990440D02*
X90115581Y-65057784D01*
X90208178Y-64813664D02*
X90225014Y-64779992D01*
X90225014Y-64779992D02*
X90267104Y-64737902D01*
X90267104Y-64737902D02*
X90292358Y-64729484D01*
X90292358Y-64729484D02*
X90309194Y-64729484D01*
X90309194Y-64729484D02*
X90334448Y-64737902D01*
X90334448Y-64737902D02*
X90351283Y-64754738D01*
X90351283Y-64754738D02*
X90359701Y-64779992D01*
X90359701Y-64779992D02*
X90359701Y-64796828D01*
X90359701Y-64796828D02*
X90351283Y-64822082D01*
X90351283Y-64822082D02*
X90326030Y-64864171D01*
X90326030Y-64864171D02*
X90317612Y-64889425D01*
X90317612Y-64889425D02*
X90317612Y-64906261D01*
X90317612Y-64906261D02*
X90326030Y-64931515D01*
X90326030Y-64931515D02*
X90342865Y-64948351D01*
X90342865Y-64948351D02*
X90368119Y-64956769D01*
X90368119Y-64956769D02*
X90384955Y-64956769D01*
X90384955Y-64956769D02*
X90410209Y-64948351D01*
X90410209Y-64948351D02*
X90452299Y-64906261D01*
X90452299Y-64906261D02*
X90469135Y-64872589D01*
X90528060Y-64830500D02*
X90629075Y-64729485D01*
X90401791Y-64603215D02*
X90578568Y-64779992D01*
X89536428Y-66918148D02*
X89713204Y-67094924D01*
X89713204Y-67094924D02*
X89755294Y-67052835D01*
X89755294Y-67052835D02*
X89772130Y-67019163D01*
X89772130Y-67019163D02*
X89772130Y-66985491D01*
X89772130Y-66985491D02*
X89763712Y-66960237D01*
X89763712Y-66960237D02*
X89738458Y-66918148D01*
X89738458Y-66918148D02*
X89713204Y-66892894D01*
X89713204Y-66892894D02*
X89671115Y-66867640D01*
X89671115Y-66867640D02*
X89645861Y-66859222D01*
X89645861Y-66859222D02*
X89612189Y-66859222D01*
X89612189Y-66859222D02*
X89578517Y-66876058D01*
X89578517Y-66876058D02*
X89536428Y-66918148D01*
X89713204Y-66741371D02*
X89889981Y-66918148D01*
X90007833Y-66800296D02*
X90041504Y-66766624D01*
X90041504Y-66766624D02*
X90049922Y-66741371D01*
X90049922Y-66741371D02*
X90049922Y-66707699D01*
X90049922Y-66707699D02*
X90024668Y-66665609D01*
X90024668Y-66665609D02*
X89965743Y-66606684D01*
X89965743Y-66606684D02*
X89923653Y-66581430D01*
X89923653Y-66581430D02*
X89889981Y-66581430D01*
X89889981Y-66581430D02*
X89864728Y-66589848D01*
X89864728Y-66589848D02*
X89831056Y-66623519D01*
X89831056Y-66623519D02*
X89822638Y-66648773D01*
X89822638Y-66648773D02*
X89822638Y-66682445D01*
X89822638Y-66682445D02*
X89847892Y-66724535D01*
X89847892Y-66724535D02*
X89906817Y-66783460D01*
X89906817Y-66783460D02*
X89948907Y-66808714D01*
X89948907Y-66808714D02*
X89982579Y-66808714D01*
X89982579Y-66808714D02*
X90007833Y-66800296D01*
X91587879Y-66563752D02*
X91697312Y-66454319D01*
X91697312Y-66454319D02*
X91571043Y-66445901D01*
X91571043Y-66445901D02*
X91596297Y-66420647D01*
X91596297Y-66420647D02*
X91604714Y-66395393D01*
X91604714Y-66395393D02*
X91604714Y-66378557D01*
X91604714Y-66378557D02*
X91596297Y-66353304D01*
X91596297Y-66353304D02*
X91554207Y-66311214D01*
X91554207Y-66311214D02*
X91528953Y-66302796D01*
X91528953Y-66302796D02*
X91512117Y-66302796D01*
X91512117Y-66302796D02*
X91486863Y-66311214D01*
X91486863Y-66311214D02*
X91436356Y-66361722D01*
X91436356Y-66361722D02*
X91427938Y-66386975D01*
X91427938Y-66386975D02*
X91427938Y-66403811D01*
X91747819Y-66403811D02*
X91629968Y-66168109D01*
X91629968Y-66168109D02*
X91865670Y-66285960D01*
X91907760Y-66243870D02*
X92017193Y-66134437D01*
X92017193Y-66134437D02*
X91890924Y-66126019D01*
X91890924Y-66126019D02*
X91916178Y-66100766D01*
X91916178Y-66100766D02*
X91924596Y-66075512D01*
X91924596Y-66075512D02*
X91924596Y-66058676D01*
X91924596Y-66058676D02*
X91916178Y-66033422D01*
X91916178Y-66033422D02*
X91874088Y-65991332D01*
X91874088Y-65991332D02*
X91848835Y-65982914D01*
X91848835Y-65982914D02*
X91831999Y-65982914D01*
X91831999Y-65982914D02*
X91806745Y-65991332D01*
X91806745Y-65991332D02*
X91756237Y-66041840D01*
X91756237Y-66041840D02*
X91747819Y-66067094D01*
X91747819Y-66067094D02*
X91747819Y-66083930D01*
D12*
X102553859Y-64697071D02*
X103126279Y-64596055D01*
X102957920Y-65101132D02*
X103665027Y-64394025D01*
X103665027Y-64394025D02*
X103395653Y-64124651D01*
X103395653Y-64124651D02*
X103294638Y-64090979D01*
X103294638Y-64090979D02*
X103227294Y-64090979D01*
X103227294Y-64090979D02*
X103126279Y-64124651D01*
X103126279Y-64124651D02*
X103025264Y-64225666D01*
X103025264Y-64225666D02*
X102991592Y-64326681D01*
X102991592Y-64326681D02*
X102991592Y-64394025D01*
X102991592Y-64394025D02*
X103025264Y-64495040D01*
X103025264Y-64495040D02*
X103294638Y-64764414D01*
X102015111Y-64090979D02*
X102048783Y-64191994D01*
X102048783Y-64191994D02*
X102183470Y-64326681D01*
X102183470Y-64326681D02*
X102284485Y-64360353D01*
X102284485Y-64360353D02*
X102385501Y-64326681D01*
X102385501Y-64326681D02*
X102654875Y-64057307D01*
X102654875Y-64057307D02*
X102688546Y-63956292D01*
X102688546Y-63956292D02*
X102654875Y-63855277D01*
X102654875Y-63855277D02*
X102520188Y-63720590D01*
X102520188Y-63720590D02*
X102419172Y-63686918D01*
X102419172Y-63686918D02*
X102318157Y-63720590D01*
X102318157Y-63720590D02*
X102250814Y-63787933D01*
X102250814Y-63787933D02*
X102520188Y-64191994D01*
X101712065Y-63787933D02*
X101611050Y-63754261D01*
X101611050Y-63754261D02*
X101476363Y-63619574D01*
X101476363Y-63619574D02*
X101442691Y-63518559D01*
X101442691Y-63518559D02*
X101476363Y-63417544D01*
X101476363Y-63417544D02*
X101510035Y-63383872D01*
X101510035Y-63383872D02*
X101611050Y-63350200D01*
X101611050Y-63350200D02*
X101712065Y-63383872D01*
X101712065Y-63383872D02*
X101813081Y-63484887D01*
X101813081Y-63484887D02*
X101914096Y-63518559D01*
X101914096Y-63518559D02*
X102015111Y-63484887D01*
X102015111Y-63484887D02*
X102048783Y-63451216D01*
X102048783Y-63451216D02*
X102082455Y-63350200D01*
X102082455Y-63350200D02*
X102048783Y-63249185D01*
X102048783Y-63249185D02*
X101947768Y-63148170D01*
X101947768Y-63148170D02*
X101846752Y-63114498D01*
X100836600Y-62912468D02*
X100870272Y-63013483D01*
X100870272Y-63013483D02*
X101004959Y-63148170D01*
X101004959Y-63148170D02*
X101105974Y-63181842D01*
X101105974Y-63181842D02*
X101206989Y-63148170D01*
X101206989Y-63148170D02*
X101476363Y-62878796D01*
X101476363Y-62878796D02*
X101510035Y-62777781D01*
X101510035Y-62777781D02*
X101476363Y-62676765D01*
X101476363Y-62676765D02*
X101341676Y-62542078D01*
X101341676Y-62542078D02*
X101240661Y-62508407D01*
X101240661Y-62508407D02*
X101139646Y-62542078D01*
X101139646Y-62542078D02*
X101072302Y-62609422D01*
X101072302Y-62609422D02*
X101341676Y-63013483D01*
X101038630Y-62239032D02*
X100769256Y-61969658D01*
X101173317Y-61902315D02*
X100567226Y-62508406D01*
X100567226Y-62508406D02*
X100466210Y-62542078D01*
X100466210Y-62542078D02*
X100365195Y-62508406D01*
X100365195Y-62508406D02*
X100297852Y-62441063D01*
X85231009Y-95114285D02*
X85278628Y-95257142D01*
X85278628Y-95257142D02*
X85326247Y-95304761D01*
X85326247Y-95304761D02*
X85421485Y-95352380D01*
X85421485Y-95352380D02*
X85564342Y-95352380D01*
X85564342Y-95352380D02*
X85659580Y-95304761D01*
X85659580Y-95304761D02*
X85707200Y-95257142D01*
X85707200Y-95257142D02*
X85754819Y-95161904D01*
X85754819Y-95161904D02*
X85754819Y-94780952D01*
X85754819Y-94780952D02*
X84754819Y-94780952D01*
X84754819Y-94780952D02*
X84754819Y-95114285D01*
X84754819Y-95114285D02*
X84802438Y-95209523D01*
X84802438Y-95209523D02*
X84850057Y-95257142D01*
X84850057Y-95257142D02*
X84945295Y-95304761D01*
X84945295Y-95304761D02*
X85040533Y-95304761D01*
X85040533Y-95304761D02*
X85135771Y-95257142D01*
X85135771Y-95257142D02*
X85183390Y-95209523D01*
X85183390Y-95209523D02*
X85231009Y-95114285D01*
X85231009Y-95114285D02*
X85231009Y-94780952D01*
X84754819Y-95638095D02*
X84754819Y-96209523D01*
X85754819Y-95923809D02*
X84754819Y-95923809D01*
X85754819Y-97066666D02*
X85754819Y-96495238D01*
X85754819Y-96780952D02*
X84754819Y-96780952D01*
X84754819Y-96780952D02*
X84897676Y-96685714D01*
X84897676Y-96685714D02*
X84992914Y-96590476D01*
X84992914Y-96590476D02*
X85040533Y-96495238D01*
D13*
%TO.C,BT1*%
X104500000Y-82900000D02*
G75*
G02*
X104501464Y-90596385I-9500000J-3850000D01*
G01*
X97750000Y-71200000D02*
X92250000Y-71200000D01*
X97750000Y-76000000D02*
X97750000Y-71200000D01*
X92250000Y-71200000D02*
X92250000Y-76000000D01*
X104500000Y-82900000D02*
X104500000Y-76200000D01*
X88950000Y-76000000D02*
X84150000Y-82800000D01*
X84150000Y-82800000D02*
X84150000Y-90700000D01*
X104500000Y-90600000D02*
X104500000Y-97300000D01*
X97750000Y-102300000D02*
X97750000Y-97500000D01*
X84150000Y-90700000D02*
X88950000Y-97550000D01*
X92250000Y-97500000D02*
X92250000Y-102300000D01*
X92250000Y-102300000D02*
X97750000Y-102300000D01*
%TD*%
M02*
