%TF.GenerationSoftware,KiCad,Pcbnew,8.0.3*%
%TF.CreationDate,2024-08-14T20:25:55-04:00*%
%TF.ProjectId,KarmothDiceRoller_V1,4b61726d-6f74-4684-9469-6365526f6c6c,rev?*%
%TF.SameCoordinates,Original*%
%TF.FileFunction,Copper,L2,Bot*%
%TF.FilePolarity,Positive*%
%FSLAX46Y46*%
G04 Gerber Fmt 4.6, Leading zero omitted, Abs format (unit mm)*
G04 Created by KiCad (PCBNEW 8.0.3) date 2024-08-14 20:25:55*
%MOMM*%
%LPD*%
G01*
G04 APERTURE LIST*
G04 Aperture macros list*
%AMRotRect*
0 Rectangle, with rotation*
0 The origin of the aperture is its center*
0 $1 length*
0 $2 width*
0 $3 Rotation angle, in degrees counterclockwise*
0 Add horizontal line*
21,1,$1,$2,0,0,$3*%
G04 Aperture macros list end*
%TA.AperFunction,SMDPad,CuDef*%
%ADD10RotRect,1.750000X0.600000X45.000000*%
%TD*%
%TA.AperFunction,SMDPad,CuDef*%
%ADD11RotRect,3.000000X0.650000X315.000000*%
%TD*%
%TA.AperFunction,SMDPad,CuDef*%
%ADD12C,10.000000*%
%TD*%
%TA.AperFunction,SMDPad,CuDef*%
%ADD13R,5.100000X5.100000*%
%TD*%
%TA.AperFunction,ViaPad*%
%ADD14C,0.600000*%
%TD*%
%TA.AperFunction,Conductor*%
%ADD15C,0.200000*%
%TD*%
G04 APERTURE END LIST*
D10*
%TO.P,J4,1,VCC*%
%TO.N,3.3V*%
X90500000Y-67500000D03*
%TO.P,J4,2,SWDIO*%
%TO.N,SWDIO*%
X91030330Y-65555456D03*
%TO.P,J4,3,~{RESET}*%
%TO.N,RESET*%
X89085787Y-66085786D03*
%TO.P,J4,4,SWCLK*%
%TO.N,SWCLK*%
X89616117Y-64141243D03*
%TO.P,J4,5,GND*%
%TO.N,GND*%
X87671573Y-64671573D03*
%TD*%
D11*
%TO.P,J3,1,Pin_1*%
%TO.N,RESET*%
X99997954Y-65395980D03*
%TO.P,J3,2,Pin_2*%
%TO.N,GND*%
X100860624Y-64462599D03*
%TD*%
D12*
%TO.P,BT1,2,-*%
%TO.N,GND*%
X95000000Y-86750000D03*
D13*
%TO.P,BT1,1,+*%
%TO.N,3.3V*%
X95000000Y-73950000D03*
X95000000Y-99550000D03*
%TD*%
D14*
%TO.N,GND*%
X95000000Y-67750000D03*
X98750000Y-71500000D03*
X91000000Y-71500000D03*
X103000000Y-62000000D03*
X86750000Y-62250000D03*
X91250000Y-75500000D03*
X101750000Y-75500000D03*
X88250000Y-75500000D03*
%TO.N,3.3V*%
X98750000Y-81750000D03*
X95000000Y-75200000D03*
%TO.N,RESET*%
X93250000Y-79500000D03*
X90000000Y-76500000D03*
X96750000Y-79500000D03*
%TO.N,Net-(D21-A)*%
X104602594Y-97437500D03*
X104659064Y-98637500D03*
X104628033Y-94187500D03*
X104636575Y-95387500D03*
X104750000Y-92137500D03*
X104750000Y-90937500D03*
X104750000Y-87725000D03*
X104750000Y-88925000D03*
%TO.N,Net-(D16-A)*%
X101505119Y-97437500D03*
X101500000Y-98637500D03*
X101500000Y-95387500D03*
X101510172Y-94187500D03*
X101500000Y-92137500D03*
X101512499Y-90937500D03*
X101500000Y-88925000D03*
X101500000Y-87725000D03*
%TO.N,Net-(D11-A)*%
X88500000Y-98637500D03*
X88500000Y-97437500D03*
X88500000Y-94187500D03*
X88500000Y-95387500D03*
X88500000Y-90937500D03*
X88500000Y-92137500D03*
X88500000Y-89000000D03*
X88534176Y-87725000D03*
%TO.N,Net-(D10-A)*%
X85250000Y-97437500D03*
X85250000Y-98637500D03*
X85250000Y-95387500D03*
X85250000Y-94187500D03*
X85250000Y-92137500D03*
X85250000Y-90937500D03*
X85250000Y-88925000D03*
X85304059Y-87725000D03*
%TO.N,LD_R1*%
X108000000Y-88325000D03*
X100315687Y-78850000D03*
%TO.N,LD_R2*%
X108000000Y-91537500D03*
X99750000Y-78250000D03*
%TO.N,LD_R3*%
X108000000Y-94750000D03*
X98250072Y-76117076D03*
%TO.N,LD_R4*%
X108000000Y-98075000D03*
X98275780Y-75307780D03*
%TO.N,LD_R5*%
X108000000Y-101325000D03*
X98253157Y-74481873D03*
%TO.N,SWCLK*%
X90750000Y-64000000D03*
X94875000Y-70625000D03*
X92250000Y-67750000D03*
%TO.N,SWDIO*%
X96112437Y-70637563D03*
%TO.N,GND*%
X91000000Y-81750000D03*
%TD*%
D15*
%TO.N,RESET*%
X93250000Y-79500000D02*
X96750000Y-79500000D01*
%TO.N,3.3V*%
X97500000Y-77700000D02*
X95000000Y-75200000D01*
X97500000Y-80500000D02*
X97500000Y-77700000D01*
X98750000Y-81750000D02*
X97500000Y-80500000D01*
%TO.N,RESET*%
X93250000Y-79000000D02*
X90750000Y-76500000D01*
X90750000Y-76500000D02*
X90000000Y-76500000D01*
X93250000Y-79500000D02*
X93250000Y-79000000D01*
X91173923Y-64424606D02*
X90348529Y-65250000D01*
X91924606Y-64424606D02*
X91173923Y-64424606D01*
X90348529Y-65250000D02*
X89921573Y-65250000D01*
X93500000Y-66000000D02*
X91924606Y-64424606D01*
X99393934Y-66000000D02*
X93500000Y-66000000D01*
X99997954Y-65395980D02*
X99393934Y-66000000D01*
X89921573Y-65250000D02*
X89085787Y-66085786D01*
%TO.N,LD_R5*%
X109250000Y-101325000D02*
X108000000Y-101325000D01*
X110000000Y-100575000D02*
X109250000Y-101325000D01*
X110000000Y-97751471D02*
X110000000Y-100575000D01*
X109800000Y-97551471D02*
X110000000Y-97751471D01*
X109800000Y-87450000D02*
X109800000Y-97551471D01*
X109600000Y-87250000D02*
X109800000Y-87450000D01*
X109600000Y-86514204D02*
X109600000Y-87250000D01*
X107464103Y-82809531D02*
X108600000Y-83945428D01*
X107464103Y-81398418D02*
X107464103Y-82809531D01*
X108600000Y-85514204D02*
X109600000Y-86514204D01*
X103115685Y-77050000D02*
X107464103Y-81398418D01*
X100875001Y-77050000D02*
X103115685Y-77050000D01*
X108600000Y-83945428D02*
X108600000Y-85514204D01*
X98306874Y-74481873D02*
X100875001Y-77050000D01*
X98253157Y-74481873D02*
X98306874Y-74481873D01*
%TO.N,SWDIO*%
X96112437Y-70637563D02*
X91030330Y-65555456D01*
%TO.N,SWCLK*%
X92250000Y-68000000D02*
X92250000Y-67750000D01*
X94875000Y-70625000D02*
X92250000Y-68000000D01*
%TO.N,3.3V*%
X100300000Y-95500000D02*
X95000000Y-100800000D01*
X100300000Y-83300000D02*
X100300000Y-95500000D01*
X98750000Y-81750000D02*
X100300000Y-83300000D01*
X95000000Y-71750000D02*
X95000000Y-75200000D01*
X90750000Y-67500000D02*
X95000000Y-71750000D01*
X90500000Y-67500000D02*
X90750000Y-67500000D01*
%TO.N,RESET*%
X89085787Y-67960787D02*
X89085787Y-66085786D01*
X89750000Y-76250000D02*
X89750000Y-68625000D01*
X89750000Y-68625000D02*
X89085787Y-67960787D01*
X90000000Y-76500000D02*
X89750000Y-76250000D01*
%TO.N,LD_R3*%
X109000000Y-93750000D02*
X108000000Y-94750000D01*
X108800000Y-87710786D02*
X109000000Y-87910785D01*
X108800000Y-86845576D02*
X108800000Y-87710786D01*
X109000000Y-87910785D02*
X109000000Y-93750000D01*
X107800000Y-84276800D02*
X107800000Y-85845576D01*
X106664103Y-83140903D02*
X107800000Y-84276800D01*
X106664103Y-81729789D02*
X106664103Y-83140903D01*
X100534314Y-77850000D02*
X102784314Y-77850000D01*
X98801390Y-76117076D02*
X100534314Y-77850000D01*
X102784314Y-77850000D02*
X106664103Y-81729789D01*
X107800000Y-85845576D02*
X108800000Y-86845576D01*
X98250072Y-76117076D02*
X98801390Y-76117076D01*
%TO.N,LD_R4*%
X109200000Y-87545100D02*
X109400000Y-87745100D01*
X109200000Y-86679890D02*
X109200000Y-87545100D01*
X109400000Y-96675000D02*
X108000000Y-98075000D01*
X108200000Y-85679890D02*
X109200000Y-86679890D01*
X107064103Y-81564103D02*
X107064103Y-82975217D01*
X102950000Y-77450000D02*
X106829788Y-81329789D01*
X106829788Y-81329789D02*
X107064103Y-81564103D01*
X100700000Y-77450000D02*
X102950000Y-77450000D01*
X108200000Y-84111114D02*
X108200000Y-85679890D01*
X98275780Y-75307780D02*
X98557780Y-75307780D01*
X98557780Y-75307780D02*
X100700000Y-77450000D01*
X107064103Y-82975217D02*
X108200000Y-84111114D01*
X109400000Y-87745100D02*
X109400000Y-96675000D01*
%TO.N,LD_R2*%
X102618628Y-78250000D02*
X99750000Y-78250000D01*
X106264103Y-83306589D02*
X106264103Y-81895475D01*
X107400000Y-84442486D02*
X106264103Y-83306589D01*
X107400000Y-86011262D02*
X107400000Y-84442486D01*
X108165685Y-86776948D02*
X107400000Y-86011262D01*
X108400000Y-87876471D02*
X108400000Y-87011262D01*
X108600000Y-88076471D02*
X108400000Y-87876471D01*
X108600000Y-90937500D02*
X108600000Y-88076471D01*
X108000000Y-91537500D02*
X108600000Y-90937500D01*
X106264103Y-81895475D02*
X102618628Y-78250000D01*
X108400000Y-87011262D02*
X108165685Y-86776948D01*
%TO.N,Net-(D21-A)*%
X104602594Y-98581030D02*
X104659064Y-98637500D01*
X104602594Y-97437500D02*
X104602594Y-98581030D01*
X104628033Y-95378958D02*
X104636575Y-95387500D01*
X104628033Y-94187500D02*
X104628033Y-95378958D01*
X104750000Y-90937500D02*
X104750000Y-92137500D01*
X104750000Y-87725000D02*
X104750000Y-88925000D01*
%TO.N,LD_R1*%
X102652942Y-78850000D02*
X100315687Y-78850000D01*
X105864103Y-82061161D02*
X102652942Y-78850000D01*
X107000000Y-84608172D02*
X105864103Y-83472275D01*
X105864103Y-83472275D02*
X105864103Y-82061161D01*
X107000000Y-86176948D02*
X107000000Y-84608172D01*
X108000000Y-88325000D02*
X108000000Y-87176948D01*
X108000000Y-87176948D02*
X107000000Y-86176948D01*
%TO.N,Net-(D16-A)*%
X101505119Y-98632381D02*
X101500000Y-98637500D01*
X101505119Y-97437500D02*
X101505119Y-98632381D01*
X101510172Y-95377328D02*
X101500000Y-95387500D01*
X101510172Y-94187500D02*
X101510172Y-95377328D01*
X101512499Y-90937500D02*
X101512499Y-92125001D01*
X101512499Y-92125001D02*
X101500000Y-92137500D01*
X101500000Y-87725000D02*
X101500000Y-88925000D01*
%TO.N,Net-(D11-A)*%
X88500000Y-97437500D02*
X88500000Y-98637500D01*
X88500000Y-94187500D02*
X88500000Y-95387500D01*
X88500000Y-90937500D02*
X88500000Y-92137500D01*
X88534176Y-88965824D02*
X88500000Y-89000000D01*
X88534176Y-87725000D02*
X88534176Y-88965824D01*
%TO.N,Net-(D10-A)*%
X85250000Y-97437500D02*
X85250000Y-98637500D01*
X85250000Y-94187500D02*
X85250000Y-95387500D01*
X85250000Y-90937500D02*
X85250000Y-92137500D01*
X85304059Y-87725000D02*
X85304059Y-88870941D01*
X85304059Y-88870941D02*
X85250000Y-88925000D01*
%TO.N,SWCLK*%
X89757360Y-64000000D02*
X89616117Y-64141243D01*
X90750000Y-64000000D02*
X89757360Y-64000000D01*
%TD*%
%TA.AperFunction,Conductor*%
%TO.N,GND*%
G36*
X101814141Y-60918004D02*
G01*
X101819439Y-60918138D01*
X101988082Y-60926053D01*
X101993541Y-60926432D01*
X102159470Y-60941681D01*
X102165178Y-60942341D01*
X102328169Y-60965038D01*
X102334060Y-60966005D01*
X102494026Y-60996276D01*
X102500132Y-60997592D01*
X102660168Y-61036345D01*
X102665098Y-61037648D01*
X102739266Y-61058916D01*
X102742926Y-61060029D01*
X102818622Y-61084338D01*
X102822205Y-61085549D01*
X102854678Y-61097096D01*
X102896940Y-61112124D01*
X102900411Y-61113417D01*
X102974563Y-61142321D01*
X102977800Y-61143636D01*
X103051751Y-61174955D01*
X103054824Y-61176307D01*
X103128844Y-61210088D01*
X103131743Y-61211457D01*
X103157287Y-61223927D01*
X103206313Y-61247860D01*
X103208944Y-61249185D01*
X103236450Y-61263450D01*
X103281775Y-61286956D01*
X103285169Y-61288784D01*
X103349814Y-61324903D01*
X103353997Y-61327349D01*
X103414455Y-61364300D01*
X103418524Y-61366896D01*
X103477027Y-61405858D01*
X103480944Y-61408577D01*
X103537565Y-61449533D01*
X103541339Y-61452375D01*
X103588507Y-61489333D01*
X103596094Y-61495277D01*
X103599722Y-61498232D01*
X103652665Y-61543072D01*
X103656160Y-61546148D01*
X103707270Y-61592856D01*
X103710625Y-61596039D01*
X103759959Y-61644622D01*
X103763155Y-61647887D01*
X103810708Y-61698299D01*
X103813743Y-61701636D01*
X103859552Y-61753882D01*
X103862419Y-61757273D01*
X103866296Y-61762029D01*
X103906449Y-61811281D01*
X103909151Y-61814718D01*
X103927375Y-61838759D01*
X103951418Y-61870476D01*
X103953969Y-61873966D01*
X103994439Y-61931409D01*
X103996829Y-61934929D01*
X104035524Y-61994062D01*
X104037759Y-61997607D01*
X104074594Y-62058278D01*
X104076678Y-62061842D01*
X104111718Y-62124141D01*
X104113651Y-62127715D01*
X104146809Y-62191471D01*
X104148598Y-62195050D01*
X104176223Y-62252634D01*
X104177753Y-62255822D01*
X104180174Y-62261192D01*
X104238916Y-62400209D01*
X104241681Y-62407362D01*
X104290636Y-62546665D01*
X104292900Y-62553784D01*
X104333831Y-62697373D01*
X104335625Y-62704453D01*
X104368347Y-62851626D01*
X104369700Y-62858664D01*
X104394081Y-63008807D01*
X104395013Y-63015803D01*
X104410918Y-63168104D01*
X104411448Y-63175068D01*
X104418819Y-63329407D01*
X104418957Y-63336152D01*
X104417140Y-63607692D01*
X104416939Y-63613964D01*
X104401118Y-63889748D01*
X104400638Y-63895654D01*
X104371201Y-64174706D01*
X104370487Y-64180266D01*
X104327888Y-64461544D01*
X104326979Y-64466783D01*
X104271687Y-64749417D01*
X104270615Y-64754360D01*
X104203151Y-65037402D01*
X104201939Y-65042080D01*
X104122857Y-65324569D01*
X104121524Y-65329011D01*
X104031374Y-65610093D01*
X104029932Y-65614325D01*
X103929338Y-65892996D01*
X103927794Y-65897048D01*
X103817407Y-66172310D01*
X103815767Y-66176207D01*
X103696180Y-66447274D01*
X103694441Y-66451043D01*
X103566350Y-66716917D01*
X103564510Y-66720581D01*
X103428597Y-66980354D01*
X103426646Y-66983938D01*
X103283613Y-67236708D01*
X103281539Y-67240236D01*
X103132131Y-67485053D01*
X103129918Y-67488547D01*
X102974149Y-67725626D01*
X102972064Y-67728697D01*
X102863739Y-67883279D01*
X102861966Y-67885745D01*
X102748546Y-68039446D01*
X102746897Y-68041630D01*
X102629250Y-68193907D01*
X102627744Y-68195817D01*
X102506179Y-68346944D01*
X102504833Y-68348589D01*
X102379678Y-68498830D01*
X102378502Y-68500220D01*
X102250065Y-68649878D01*
X102249072Y-68651021D01*
X102117826Y-68800225D01*
X102117023Y-68801129D01*
X101986619Y-68946492D01*
X101984636Y-68948650D01*
X101962562Y-68972116D01*
X101959953Y-68974806D01*
X101952892Y-68981870D01*
X101935749Y-68999015D01*
X101933529Y-69001180D01*
X101861382Y-69069814D01*
X101860960Y-69070213D01*
X101834343Y-69095290D01*
X101832809Y-69096735D01*
X101821830Y-69105941D01*
X101821034Y-69106533D01*
X101785190Y-69141342D01*
X101774836Y-69150339D01*
X101771550Y-69152889D01*
X101750434Y-69174234D01*
X101747313Y-69177280D01*
X101725790Y-69197557D01*
X101720031Y-69202624D01*
X101701620Y-69222303D01*
X101697467Y-69226534D01*
X101679892Y-69243602D01*
X101672095Y-69251842D01*
X101666669Y-69256640D01*
X101652979Y-69272385D01*
X101647567Y-69278220D01*
X101638220Y-69287668D01*
X101634285Y-69292855D01*
X101617835Y-69309142D01*
X101618254Y-69309574D01*
X101612423Y-69315227D01*
X101603076Y-69327027D01*
X101596440Y-69334732D01*
X101590618Y-69340956D01*
X101585890Y-69347562D01*
X101585803Y-69347499D01*
X101580722Y-69355249D01*
X101580386Y-69355673D01*
X101576777Y-69360020D01*
X101571846Y-69365692D01*
X101558002Y-69379259D01*
X101557850Y-69379424D01*
X101552738Y-69386683D01*
X101544950Y-69396622D01*
X101542924Y-69398952D01*
X101539606Y-69403964D01*
X101534569Y-69412487D01*
X101530066Y-69418883D01*
X101525876Y-69424491D01*
X101520878Y-69430801D01*
X101512305Y-69440046D01*
X101509767Y-69443094D01*
X101507852Y-69446123D01*
X101500257Y-69456835D01*
X101495901Y-69462335D01*
X101493638Y-69466119D01*
X101485393Y-69478218D01*
X101483585Y-69480560D01*
X101471918Y-69500636D01*
X101462504Y-69513364D01*
X101462675Y-69513485D01*
X101456475Y-69522233D01*
X101451002Y-69531169D01*
X101450453Y-69531948D01*
X101446681Y-69539148D01*
X101445741Y-69538655D01*
X101436548Y-69554438D01*
X101437565Y-69555093D01*
X101433166Y-69561922D01*
X101432022Y-69564344D01*
X101425128Y-69576887D01*
X101421559Y-69584612D01*
X101420131Y-69583952D01*
X101412575Y-69598509D01*
X101413518Y-69599054D01*
X101409219Y-69606486D01*
X101405327Y-69614346D01*
X101400878Y-69625007D01*
X101400686Y-69624926D01*
X101394891Y-69639646D01*
X101394180Y-69640994D01*
X101387474Y-69652070D01*
X101386108Y-69654741D01*
X101382987Y-69663166D01*
X101381055Y-69669814D01*
X101379630Y-69673821D01*
X101374921Y-69685227D01*
X101371742Y-69691961D01*
X101371385Y-69692716D01*
X101367369Y-69700158D01*
X101366570Y-69701960D01*
X101366431Y-69702432D01*
X101365664Y-69704930D01*
X101364400Y-69708899D01*
X101363877Y-69711095D01*
X101360865Y-69721312D01*
X101356455Y-69733778D01*
X101350462Y-69748219D01*
X101349407Y-69750452D01*
X101348958Y-69751651D01*
X101348249Y-69753445D01*
X101344124Y-69771226D01*
X101340162Y-69784757D01*
X101334392Y-69800977D01*
X101333238Y-69806367D01*
X101327744Y-69824112D01*
X101327126Y-69826448D01*
X101326254Y-69833236D01*
X101322212Y-69852462D01*
X101322143Y-69852698D01*
X101322143Y-69852699D01*
X101322142Y-69852700D01*
X101322087Y-69854951D01*
X101318918Y-69879885D01*
X101312701Y-69906684D01*
X101312215Y-69911681D01*
X101310909Y-69918891D01*
X101310915Y-69918892D01*
X101309858Y-69926945D01*
X101309871Y-69952724D01*
X101308860Y-69968584D01*
X101305574Y-69994153D01*
X101305600Y-70002280D01*
X101305142Y-70002281D01*
X101305053Y-70013614D01*
X101305834Y-70013629D01*
X101305680Y-70021758D01*
X101309149Y-70052598D01*
X101309926Y-70066392D01*
X101309941Y-70097434D01*
X101311006Y-70105490D01*
X101310632Y-70105539D01*
X101319026Y-70145445D01*
X101320904Y-70157106D01*
X101324941Y-70193001D01*
X101325075Y-70193542D01*
X101327969Y-70201963D01*
X101336678Y-70231344D01*
X101339135Y-70241056D01*
X101342521Y-70257151D01*
X101344198Y-70268168D01*
X101346006Y-70276044D01*
X101346866Y-70279016D01*
X101347500Y-70280817D01*
X101349028Y-70283832D01*
X101354619Y-70296599D01*
X101360014Y-70311083D01*
X101362699Y-70319120D01*
X101364717Y-70325927D01*
X101368221Y-70341561D01*
X101368334Y-70341947D01*
X101368641Y-70342645D01*
X101374025Y-70357330D01*
X101375349Y-70361795D01*
X101375350Y-70361799D01*
X101375352Y-70361803D01*
X101375353Y-70361804D01*
X101377057Y-70364584D01*
X101384832Y-70379436D01*
X101387575Y-70385668D01*
X101390303Y-70392393D01*
X101390791Y-70393705D01*
X101395304Y-70409453D01*
X101395825Y-70410960D01*
X101398314Y-70415936D01*
X101403610Y-70428116D01*
X101406957Y-70437100D01*
X101406960Y-70437107D01*
X101406961Y-70437108D01*
X101407942Y-70438487D01*
X101417811Y-70454914D01*
X101418435Y-70456162D01*
X101421024Y-70461675D01*
X101423144Y-70466493D01*
X101429400Y-70484264D01*
X101429783Y-70485690D01*
X101429786Y-70485698D01*
X101433974Y-70492944D01*
X101440103Y-70505029D01*
X101441364Y-70507893D01*
X101443028Y-70510636D01*
X101450575Y-70521661D01*
X101453334Y-70526434D01*
X101456878Y-70533016D01*
X101477930Y-70575102D01*
X101482485Y-70581836D01*
X101481119Y-70582759D01*
X101492558Y-70602509D01*
X101493955Y-70601826D01*
X101497528Y-70609125D01*
X101502164Y-70616107D01*
X101523253Y-70647869D01*
X101527296Y-70654387D01*
X101550589Y-70694682D01*
X101555544Y-70701132D01*
X101555046Y-70701514D01*
X101569031Y-70720157D01*
X101572722Y-70726892D01*
X101603157Y-70768446D01*
X101606419Y-70773121D01*
X101634920Y-70816043D01*
X101640147Y-70822037D01*
X101653174Y-70840049D01*
X101687463Y-70883665D01*
X101689981Y-70886982D01*
X101722645Y-70931576D01*
X101722649Y-70931579D01*
X101723974Y-70932965D01*
X101738854Y-70951909D01*
X101739571Y-70953032D01*
X101775308Y-70995513D01*
X101777900Y-70998700D01*
X101812243Y-71042383D01*
X101818059Y-71048063D01*
X101817689Y-71048441D01*
X101828154Y-71058330D01*
X101897543Y-71140814D01*
X101905813Y-71151835D01*
X101907947Y-71155036D01*
X101947309Y-71200008D01*
X101948888Y-71201849D01*
X101987376Y-71247598D01*
X101990215Y-71250193D01*
X101999866Y-71260054D01*
X102108749Y-71384454D01*
X102109622Y-71385462D01*
X102239521Y-71537132D01*
X102242355Y-71540565D01*
X102282493Y-71591014D01*
X102286214Y-71595940D01*
X102301974Y-71617928D01*
X102312568Y-71632709D01*
X102316422Y-71638414D01*
X102472435Y-71883794D01*
X102474749Y-71887582D01*
X102625912Y-72145260D01*
X102628083Y-72149118D01*
X102770414Y-72412887D01*
X102772458Y-72416843D01*
X102905276Y-72685650D01*
X102907201Y-72689731D01*
X103031054Y-72965205D01*
X103032422Y-72968364D01*
X103088622Y-73103255D01*
X103089476Y-73105360D01*
X103144001Y-73243500D01*
X103144849Y-73245712D01*
X103196500Y-73384267D01*
X103197320Y-73386531D01*
X103246064Y-73525475D01*
X103246853Y-73527799D01*
X103292533Y-73666753D01*
X103293291Y-73669138D01*
X103334014Y-73801994D01*
X103335420Y-73806948D01*
X103561900Y-74672575D01*
X103564028Y-74687351D01*
X103564432Y-74687286D01*
X103565734Y-74695309D01*
X103581462Y-74747659D01*
X103582667Y-74751948D01*
X103596504Y-74804834D01*
X103597162Y-74806448D01*
X103600576Y-74818028D01*
X103600778Y-74817962D01*
X103621392Y-74880707D01*
X103622340Y-74883720D01*
X103639000Y-74939171D01*
X103639001Y-74939173D01*
X103641339Y-74946953D01*
X103641081Y-74947030D01*
X103642778Y-74952146D01*
X103663834Y-75010077D01*
X103665097Y-75013728D01*
X103684194Y-75071851D01*
X103690116Y-75088000D01*
X103690582Y-75089792D01*
X103711033Y-75140182D01*
X103712675Y-75144453D01*
X103731240Y-75195529D01*
X103731890Y-75196779D01*
X103740421Y-75217620D01*
X103741991Y-75222739D01*
X103741993Y-75222744D01*
X103741994Y-75222747D01*
X103763804Y-75270506D01*
X103765904Y-75275380D01*
X103785655Y-75324043D01*
X103788139Y-75328416D01*
X103795816Y-75348438D01*
X103797046Y-75347995D01*
X103799805Y-75355641D01*
X103799806Y-75355644D01*
X103799807Y-75355646D01*
X103817091Y-75389075D01*
X103823072Y-75400642D01*
X103825717Y-75406080D01*
X103846757Y-75452152D01*
X103851069Y-75459040D01*
X103849321Y-75460134D01*
X103860235Y-75481087D01*
X103861805Y-75480422D01*
X103864978Y-75487906D01*
X103889716Y-75529939D01*
X103892997Y-75535880D01*
X103915414Y-75579235D01*
X103920057Y-75585905D01*
X103919038Y-75586614D01*
X103934016Y-75611896D01*
X103934819Y-75611497D01*
X103938437Y-75618772D01*
X103964684Y-75657770D01*
X103968677Y-75664109D01*
X103983871Y-75689923D01*
X103992518Y-75704615D01*
X103992520Y-75704617D01*
X103997519Y-75711021D01*
X103996997Y-75711427D01*
X104006391Y-75724013D01*
X104006854Y-75723684D01*
X104011572Y-75730299D01*
X104011573Y-75730301D01*
X104044958Y-75777110D01*
X104046812Y-75779788D01*
X104068518Y-75812036D01*
X104078897Y-75827457D01*
X104084277Y-75833550D01*
X104083681Y-75834075D01*
X104092582Y-75843886D01*
X104842453Y-76895292D01*
X104843338Y-76896548D01*
X105227816Y-77450008D01*
X105228688Y-77451281D01*
X105585710Y-77979489D01*
X105604668Y-78007536D01*
X105605750Y-78009165D01*
X105809927Y-78322022D01*
X105971183Y-78569111D01*
X105972486Y-78571150D01*
X106325802Y-79136319D01*
X106327243Y-79138683D01*
X106666309Y-79709628D01*
X106666866Y-79710566D01*
X106668477Y-79713361D01*
X106821152Y-79986385D01*
X106836691Y-80054505D01*
X106812935Y-80120212D01*
X106757426Y-80162645D01*
X106687789Y-80168332D01*
X106626131Y-80135467D01*
X106625243Y-80134587D01*
X103300195Y-76809539D01*
X103274631Y-76794780D01*
X103249067Y-76780021D01*
X103231674Y-76769979D01*
X103155247Y-76749500D01*
X103155245Y-76749500D01*
X101050834Y-76749500D01*
X100983795Y-76729815D01*
X100963153Y-76713181D01*
X98792514Y-74542542D01*
X98759029Y-74481219D01*
X98757457Y-74472507D01*
X98738322Y-74339416D01*
X98688887Y-74231170D01*
X98678534Y-74208500D01*
X98584285Y-74099730D01*
X98463210Y-74021920D01*
X98463208Y-74021919D01*
X98463206Y-74021918D01*
X98463207Y-74021918D01*
X98325120Y-73981373D01*
X98325118Y-73981373D01*
X98181196Y-73981373D01*
X98181193Y-73981373D01*
X98043106Y-74021918D01*
X97941539Y-74087191D01*
X97874499Y-74106875D01*
X97807460Y-74087190D01*
X97761705Y-74034386D01*
X97750500Y-73982875D01*
X97750500Y-71380249D01*
X97750499Y-71380247D01*
X97738868Y-71321770D01*
X97738867Y-71321769D01*
X97694552Y-71255447D01*
X97628230Y-71211132D01*
X97628229Y-71211131D01*
X97569752Y-71199500D01*
X97569748Y-71199500D01*
X96559294Y-71199500D01*
X96492255Y-71179815D01*
X96446500Y-71127011D01*
X96436556Y-71057853D01*
X96465580Y-70994299D01*
X96537814Y-70910936D01*
X96597602Y-70780020D01*
X96618084Y-70637563D01*
X96597602Y-70495106D01*
X96537814Y-70364190D01*
X96443565Y-70255420D01*
X96322490Y-70177610D01*
X96322488Y-70177609D01*
X96322486Y-70177608D01*
X96322487Y-70177608D01*
X96184400Y-70137063D01*
X96184398Y-70137063D01*
X96088270Y-70137063D01*
X96021231Y-70117378D01*
X96000589Y-70100744D01*
X91684403Y-65784558D01*
X91650918Y-65723235D01*
X91655902Y-65653543D01*
X91684400Y-65609198D01*
X92016919Y-65276681D01*
X92050047Y-65227101D01*
X92050048Y-65227095D01*
X92052859Y-65220311D01*
X92096696Y-65165904D01*
X92162989Y-65143835D01*
X92230689Y-65161110D01*
X92255104Y-65180075D01*
X93315489Y-66240460D01*
X93374829Y-66274720D01*
X93384008Y-66280020D01*
X93384012Y-66280022D01*
X93460438Y-66300500D01*
X93460440Y-66300500D01*
X99433494Y-66300500D01*
X99433496Y-66300500D01*
X99509923Y-66280021D01*
X99578445Y-66240460D01*
X99634394Y-66184511D01*
X99751176Y-66067728D01*
X99812495Y-66034246D01*
X99882187Y-66039230D01*
X99926535Y-66067731D01*
X100700990Y-66842186D01*
X100700998Y-66842192D01*
X100750569Y-66875315D01*
X100750571Y-66875315D01*
X100750573Y-66875317D01*
X100828804Y-66890877D01*
X100907036Y-66875317D01*
X100956615Y-66842189D01*
X101444163Y-66354641D01*
X101477291Y-66305062D01*
X101477291Y-66305059D01*
X101481214Y-66299189D01*
X101534826Y-66254384D01*
X101601963Y-66245341D01*
X101691474Y-66258210D01*
X101691475Y-66258210D01*
X101833791Y-66237749D01*
X101964571Y-66178023D01*
X101964573Y-66178022D01*
X102011204Y-66140444D01*
X102011211Y-66140438D01*
X102098061Y-66053589D01*
X100507070Y-64462598D01*
X101214177Y-64462598D01*
X101214177Y-64462599D01*
X102451614Y-65700036D01*
X102538463Y-65613186D01*
X102538469Y-65613179D01*
X102576047Y-65566548D01*
X102576048Y-65566546D01*
X102635774Y-65435766D01*
X102656235Y-65293450D01*
X102656235Y-65293448D01*
X102635774Y-65151132D01*
X102576048Y-65020352D01*
X102576047Y-65020350D01*
X102538469Y-64973719D01*
X102538463Y-64973712D01*
X101620763Y-64056012D01*
X101620762Y-64056012D01*
X101214177Y-64462598D01*
X100507070Y-64462598D01*
X99269634Y-63225162D01*
X99182784Y-63312011D01*
X99182778Y-63312018D01*
X99145200Y-63358649D01*
X99145199Y-63358651D01*
X99085473Y-63489431D01*
X99065013Y-63631747D01*
X99065013Y-63631749D01*
X99085473Y-63774066D01*
X99085473Y-63774067D01*
X99092321Y-63789062D01*
X99102264Y-63858220D01*
X99073237Y-63921775D01*
X99048423Y-63943669D01*
X99039295Y-63949768D01*
X99039289Y-63949773D01*
X98551747Y-64437315D01*
X98551741Y-64437323D01*
X98518618Y-64486894D01*
X98518617Y-64486897D01*
X98503088Y-64564976D01*
X98503057Y-64565130D01*
X98512661Y-64613416D01*
X98518617Y-64643361D01*
X98518618Y-64643364D01*
X98551741Y-64692935D01*
X98551747Y-64692943D01*
X99326202Y-65467398D01*
X99359687Y-65528721D01*
X99354703Y-65598413D01*
X99326204Y-65642758D01*
X99305784Y-65663179D01*
X99244462Y-65696666D01*
X99218101Y-65699500D01*
X93675833Y-65699500D01*
X93608794Y-65679815D01*
X93588152Y-65663181D01*
X92109116Y-64184145D01*
X92092766Y-64174706D01*
X92086763Y-64171240D01*
X92040597Y-64144586D01*
X92040596Y-64144585D01*
X92015119Y-64137758D01*
X91964168Y-64124106D01*
X91964166Y-64124106D01*
X91379647Y-64124106D01*
X91312608Y-64104421D01*
X91266853Y-64051617D01*
X91257514Y-64008691D01*
X91256909Y-64008779D01*
X91255691Y-64000309D01*
X91255647Y-64000106D01*
X91255647Y-64000001D01*
X91252203Y-63976050D01*
X91235165Y-63857543D01*
X91175377Y-63726627D01*
X91081128Y-63617857D01*
X90960053Y-63540047D01*
X90960051Y-63540046D01*
X90960049Y-63540045D01*
X90960050Y-63540045D01*
X90821963Y-63499500D01*
X90821961Y-63499500D01*
X90678039Y-63499500D01*
X90678036Y-63499500D01*
X90607415Y-63520236D01*
X90537545Y-63520236D01*
X90484800Y-63488940D01*
X90150517Y-63154656D01*
X90150509Y-63154650D01*
X90100936Y-63121526D01*
X90100932Y-63121524D01*
X90022705Y-63105965D01*
X90022701Y-63105965D01*
X89944472Y-63121525D01*
X89944471Y-63121525D01*
X89894890Y-63154655D01*
X89894886Y-63154658D01*
X89083126Y-63966418D01*
X89021803Y-63999903D01*
X88952111Y-63994919D01*
X88898891Y-63956540D01*
X88889799Y-63945257D01*
X88889792Y-63945249D01*
X88820621Y-63876078D01*
X86876078Y-65820621D01*
X86945249Y-65889792D01*
X86945256Y-65889798D01*
X86991887Y-65927376D01*
X86991889Y-65927377D01*
X87122667Y-65987103D01*
X87122672Y-65987104D01*
X87264986Y-66007564D01*
X87407300Y-65987104D01*
X87407305Y-65987103D01*
X87538083Y-65927377D01*
X87538085Y-65927376D01*
X87584716Y-65889798D01*
X87584723Y-65889792D01*
X88626520Y-64847995D01*
X88687843Y-64814510D01*
X88757535Y-64819494D01*
X88801882Y-64847995D01*
X89081717Y-65127830D01*
X89081720Y-65127832D01*
X89108475Y-65145709D01*
X89153279Y-65199320D01*
X89161988Y-65268645D01*
X89131833Y-65331673D01*
X89127265Y-65336492D01*
X88099202Y-66364555D01*
X88099199Y-66364559D01*
X88066069Y-66414140D01*
X88066069Y-66414141D01*
X88050509Y-66492369D01*
X88050509Y-66492374D01*
X88066068Y-66570601D01*
X88066070Y-66570605D01*
X88099194Y-66620178D01*
X88099200Y-66620186D01*
X88551386Y-67072372D01*
X88551394Y-67072378D01*
X88600967Y-67105502D01*
X88600971Y-67105504D01*
X88685478Y-67122313D01*
X88747389Y-67154697D01*
X88781963Y-67215413D01*
X88785287Y-67243930D01*
X88785287Y-68000349D01*
X88798385Y-68049230D01*
X88805766Y-68076777D01*
X88805769Y-68076782D01*
X88845322Y-68145291D01*
X88845328Y-68145299D01*
X89413181Y-68713152D01*
X89446666Y-68774475D01*
X89449500Y-68800833D01*
X89449500Y-76289562D01*
X89457588Y-76319746D01*
X89469979Y-76365991D01*
X89469980Y-76365992D01*
X89483460Y-76389340D01*
X89499933Y-76457240D01*
X89498811Y-76468983D01*
X89494353Y-76499995D01*
X89494353Y-76499999D01*
X89514834Y-76642456D01*
X89557929Y-76736819D01*
X89574623Y-76773373D01*
X89668872Y-76882143D01*
X89789947Y-76959953D01*
X89789950Y-76959954D01*
X89789949Y-76959954D01*
X89928036Y-77000499D01*
X89928038Y-77000500D01*
X89928039Y-77000500D01*
X90071962Y-77000500D01*
X90071962Y-77000499D01*
X90210053Y-76959953D01*
X90331128Y-76882143D01*
X90364788Y-76843296D01*
X90423567Y-76805523D01*
X90458501Y-76800500D01*
X90574167Y-76800500D01*
X90641206Y-76820185D01*
X90661848Y-76836819D01*
X92848386Y-79023357D01*
X92881871Y-79084680D01*
X92876887Y-79154372D01*
X92854419Y-79192240D01*
X92824623Y-79226627D01*
X92824622Y-79226628D01*
X92764834Y-79357543D01*
X92744353Y-79500000D01*
X92764834Y-79642456D01*
X92824622Y-79773371D01*
X92824623Y-79773373D01*
X92918872Y-79882143D01*
X93039947Y-79959953D01*
X93039950Y-79959954D01*
X93039949Y-79959954D01*
X93178036Y-80000499D01*
X93178038Y-80000500D01*
X93178039Y-80000500D01*
X93321962Y-80000500D01*
X93321962Y-80000499D01*
X93460053Y-79959953D01*
X93581128Y-79882143D01*
X93614788Y-79843296D01*
X93673567Y-79805523D01*
X93708501Y-79800500D01*
X96291499Y-79800500D01*
X96358538Y-79820185D01*
X96385211Y-79843296D01*
X96418872Y-79882143D01*
X96539947Y-79959953D01*
X96539950Y-79959954D01*
X96539949Y-79959954D01*
X96678036Y-80000499D01*
X96678038Y-80000500D01*
X96678039Y-80000500D01*
X96821962Y-80000500D01*
X96821962Y-80000499D01*
X96960053Y-79959953D01*
X97008463Y-79928841D01*
X97075499Y-79909158D01*
X97142538Y-79928842D01*
X97188294Y-79981645D01*
X97199500Y-80033158D01*
X97199500Y-80539562D01*
X97219979Y-80615989D01*
X97223665Y-80622372D01*
X97223668Y-80622384D01*
X97223671Y-80622383D01*
X97250305Y-80668516D01*
X97259539Y-80684509D01*
X97259541Y-80684512D01*
X98210604Y-81635575D01*
X98244089Y-81696898D01*
X98245661Y-81740902D01*
X98244353Y-81749999D01*
X98264834Y-81892456D01*
X98309192Y-81989585D01*
X98324623Y-82023373D01*
X98410460Y-82122436D01*
X98424043Y-82152177D01*
X98450990Y-82155101D01*
X98470466Y-82165301D01*
X98539944Y-82209952D01*
X98539949Y-82209954D01*
X98647107Y-82241417D01*
X98675280Y-82249690D01*
X98678036Y-82250499D01*
X98678038Y-82250500D01*
X98774167Y-82250500D01*
X98841206Y-82270185D01*
X98861848Y-82286819D01*
X99963181Y-83388152D01*
X99996666Y-83449475D01*
X99999500Y-83475833D01*
X99999500Y-83941781D01*
X99979815Y-84008820D01*
X99927011Y-84054575D01*
X99857853Y-84064519D01*
X99794297Y-84035494D01*
X99769910Y-84006795D01*
X99560908Y-83667356D01*
X99283052Y-83291669D01*
X99283046Y-83291661D01*
X99062490Y-83041062D01*
X95353553Y-86750000D01*
X99062489Y-90458936D01*
X99062490Y-90458936D01*
X99283047Y-90208335D01*
X99283061Y-90208318D01*
X99560908Y-89832643D01*
X99769910Y-89493204D01*
X99821822Y-89446439D01*
X99890775Y-89435162D01*
X99954879Y-89462956D01*
X99993781Y-89520994D01*
X99999500Y-89558218D01*
X99999500Y-95324167D01*
X99979815Y-95391206D01*
X99963181Y-95411848D01*
X97962181Y-97412848D01*
X97900858Y-97446333D01*
X97831166Y-97441349D01*
X97775233Y-97399477D01*
X97750816Y-97334013D01*
X97750500Y-97325167D01*
X97750500Y-96980249D01*
X97750499Y-96980247D01*
X97738868Y-96921770D01*
X97738867Y-96921769D01*
X97694552Y-96855447D01*
X97628230Y-96811132D01*
X97628229Y-96811131D01*
X97569752Y-96799500D01*
X97569748Y-96799500D01*
X92430252Y-96799500D01*
X92430247Y-96799500D01*
X92371770Y-96811131D01*
X92371769Y-96811132D01*
X92305447Y-96855447D01*
X92261132Y-96921769D01*
X92261131Y-96921770D01*
X92249500Y-96980247D01*
X92249500Y-102119752D01*
X92261131Y-102178229D01*
X92261132Y-102178230D01*
X92305447Y-102244552D01*
X92371769Y-102288867D01*
X92371770Y-102288868D01*
X92430247Y-102300499D01*
X92430250Y-102300500D01*
X92430252Y-102300500D01*
X97569750Y-102300500D01*
X97569751Y-102300499D01*
X97584568Y-102297552D01*
X97628229Y-102288868D01*
X97628229Y-102288867D01*
X97628231Y-102288867D01*
X97694552Y-102244552D01*
X97738867Y-102178231D01*
X97738867Y-102178229D01*
X97738868Y-102178229D01*
X97750499Y-102119752D01*
X97750500Y-102119750D01*
X97750500Y-98637500D01*
X100994353Y-98637500D01*
X101014834Y-98779956D01*
X101074622Y-98910871D01*
X101074623Y-98910873D01*
X101168872Y-99019643D01*
X101289947Y-99097453D01*
X101289950Y-99097454D01*
X101289949Y-99097454D01*
X101428036Y-99137999D01*
X101428038Y-99138000D01*
X101428039Y-99138000D01*
X101571962Y-99138000D01*
X101571962Y-99137999D01*
X101710053Y-99097453D01*
X101831128Y-99019643D01*
X101925377Y-98910873D01*
X101985165Y-98779957D01*
X102005647Y-98637500D01*
X101985165Y-98495043D01*
X101925377Y-98364127D01*
X101856970Y-98285180D01*
X101835905Y-98260869D01*
X101806881Y-98197313D01*
X101805619Y-98179667D01*
X101805619Y-97901238D01*
X101825304Y-97834199D01*
X101835906Y-97820035D01*
X101836243Y-97819644D01*
X101836247Y-97819643D01*
X101930496Y-97710873D01*
X101990284Y-97579957D01*
X102010766Y-97437500D01*
X104096947Y-97437500D01*
X104117428Y-97579956D01*
X104168989Y-97692856D01*
X104177217Y-97710873D01*
X104271466Y-97819643D01*
X104271469Y-97819644D01*
X104271807Y-97820035D01*
X104300832Y-97883591D01*
X104302094Y-97901238D01*
X104302094Y-98238930D01*
X104282409Y-98305969D01*
X104271808Y-98320131D01*
X104233689Y-98364123D01*
X104233686Y-98364128D01*
X104173898Y-98495043D01*
X104153417Y-98637500D01*
X104173898Y-98779956D01*
X104233686Y-98910871D01*
X104233687Y-98910873D01*
X104327936Y-99019643D01*
X104449011Y-99097453D01*
X104449014Y-99097454D01*
X104449013Y-99097454D01*
X104587100Y-99137999D01*
X104587102Y-99138000D01*
X104587103Y-99138000D01*
X104731026Y-99138000D01*
X104731026Y-99137999D01*
X104869117Y-99097453D01*
X104990192Y-99019643D01*
X105084441Y-98910873D01*
X105144229Y-98779957D01*
X105164711Y-98637500D01*
X105144229Y-98495043D01*
X105084441Y-98364127D01*
X105084439Y-98364125D01*
X105084438Y-98364122D01*
X104990197Y-98255362D01*
X104990193Y-98255358D01*
X104990192Y-98255357D01*
X104960052Y-98235987D01*
X104914299Y-98183183D01*
X104903094Y-98131673D01*
X104903094Y-97901238D01*
X104922779Y-97834199D01*
X104933381Y-97820035D01*
X104933718Y-97819644D01*
X104933722Y-97819643D01*
X105027971Y-97710873D01*
X105087759Y-97579957D01*
X105108241Y-97437500D01*
X105087759Y-97295043D01*
X105027971Y-97164127D01*
X104933722Y-97055357D01*
X104812647Y-96977547D01*
X104812645Y-96977546D01*
X104812643Y-96977545D01*
X104812644Y-96977545D01*
X104674557Y-96937000D01*
X104674555Y-96937000D01*
X104530633Y-96937000D01*
X104530630Y-96937000D01*
X104392543Y-96977545D01*
X104271467Y-97055356D01*
X104177217Y-97164126D01*
X104177216Y-97164128D01*
X104117428Y-97295043D01*
X104096947Y-97437500D01*
X102010766Y-97437500D01*
X101990284Y-97295043D01*
X101930496Y-97164127D01*
X101836247Y-97055357D01*
X101715172Y-96977547D01*
X101715170Y-96977546D01*
X101715168Y-96977545D01*
X101715169Y-96977545D01*
X101577082Y-96937000D01*
X101577080Y-96937000D01*
X101433158Y-96937000D01*
X101433155Y-96937000D01*
X101295068Y-96977545D01*
X101173992Y-97055356D01*
X101079742Y-97164126D01*
X101079741Y-97164128D01*
X101019953Y-97295043D01*
X100999472Y-97437500D01*
X101019953Y-97579956D01*
X101071514Y-97692856D01*
X101079742Y-97710873D01*
X101173991Y-97819643D01*
X101173994Y-97819644D01*
X101174332Y-97820035D01*
X101203357Y-97883591D01*
X101204619Y-97901238D01*
X101204619Y-98167852D01*
X101184934Y-98234891D01*
X101174333Y-98249054D01*
X101074623Y-98364127D01*
X101074622Y-98364128D01*
X101014834Y-98495043D01*
X100994353Y-98637500D01*
X97750500Y-98637500D01*
X97750500Y-98525833D01*
X97770185Y-98458794D01*
X97786819Y-98438152D01*
X99060845Y-97164126D01*
X100540460Y-95684511D01*
X100564420Y-95643010D01*
X100580021Y-95615989D01*
X100600500Y-95539562D01*
X100600500Y-95387500D01*
X100994353Y-95387500D01*
X101014834Y-95529956D01*
X101066462Y-95643004D01*
X101074623Y-95660873D01*
X101168872Y-95769643D01*
X101289947Y-95847453D01*
X101289950Y-95847454D01*
X101289949Y-95847454D01*
X101428036Y-95887999D01*
X101428038Y-95888000D01*
X101428039Y-95888000D01*
X101571962Y-95888000D01*
X101571962Y-95887999D01*
X101710053Y-95847453D01*
X101831128Y-95769643D01*
X101925377Y-95660873D01*
X101985165Y-95529957D01*
X102005647Y-95387500D01*
X101985165Y-95245043D01*
X101925377Y-95114127D01*
X101925375Y-95114125D01*
X101925374Y-95114122D01*
X101840959Y-95016702D01*
X101811934Y-94953147D01*
X101810672Y-94935500D01*
X101810672Y-94651238D01*
X101830357Y-94584199D01*
X101840959Y-94570035D01*
X101841296Y-94569644D01*
X101841300Y-94569643D01*
X101935549Y-94460873D01*
X101995337Y-94329957D01*
X102015819Y-94187500D01*
X104122386Y-94187500D01*
X104142867Y-94329956D01*
X104163362Y-94374832D01*
X104202656Y-94460873D01*
X104296905Y-94569643D01*
X104296908Y-94569644D01*
X104297246Y-94570035D01*
X104326271Y-94633591D01*
X104327533Y-94651238D01*
X104327533Y-94933618D01*
X104307848Y-95000657D01*
X104297247Y-95014820D01*
X104211198Y-95114127D01*
X104211197Y-95114128D01*
X104151409Y-95245043D01*
X104130928Y-95387500D01*
X104151409Y-95529956D01*
X104203037Y-95643004D01*
X104211198Y-95660873D01*
X104305447Y-95769643D01*
X104426522Y-95847453D01*
X104426525Y-95847454D01*
X104426524Y-95847454D01*
X104564611Y-95887999D01*
X104564613Y-95888000D01*
X104564614Y-95888000D01*
X104708537Y-95888000D01*
X104708537Y-95887999D01*
X104846628Y-95847453D01*
X104967703Y-95769643D01*
X105061952Y-95660873D01*
X105121740Y-95529957D01*
X105142222Y-95387500D01*
X105121740Y-95245043D01*
X105061952Y-95114127D01*
X104967703Y-95005357D01*
X104967701Y-95005355D01*
X104961895Y-94998655D01*
X104963890Y-94996925D01*
X104933553Y-94949711D01*
X104928533Y-94914787D01*
X104928533Y-94651238D01*
X104948218Y-94584199D01*
X104958820Y-94570035D01*
X104959157Y-94569644D01*
X104959161Y-94569643D01*
X105053410Y-94460873D01*
X105113198Y-94329957D01*
X105133680Y-94187500D01*
X105113198Y-94045043D01*
X105053410Y-93914127D01*
X104959161Y-93805357D01*
X104838086Y-93727547D01*
X104838084Y-93727546D01*
X104838082Y-93727545D01*
X104838083Y-93727545D01*
X104699996Y-93687000D01*
X104699994Y-93687000D01*
X104556072Y-93687000D01*
X104556069Y-93687000D01*
X104417982Y-93727545D01*
X104296906Y-93805356D01*
X104202656Y-93914126D01*
X104202655Y-93914128D01*
X104142867Y-94045043D01*
X104122386Y-94187500D01*
X102015819Y-94187500D01*
X101995337Y-94045043D01*
X101935549Y-93914127D01*
X101841300Y-93805357D01*
X101720225Y-93727547D01*
X101720223Y-93727546D01*
X101720221Y-93727545D01*
X101720222Y-93727545D01*
X101582135Y-93687000D01*
X101582133Y-93687000D01*
X101438211Y-93687000D01*
X101438208Y-93687000D01*
X101300121Y-93727545D01*
X101179045Y-93805356D01*
X101084795Y-93914126D01*
X101084794Y-93914128D01*
X101025006Y-94045043D01*
X101004525Y-94187500D01*
X101025006Y-94329956D01*
X101045501Y-94374832D01*
X101084795Y-94460873D01*
X101179044Y-94569643D01*
X101179047Y-94569644D01*
X101179385Y-94570035D01*
X101208410Y-94633591D01*
X101209672Y-94651238D01*
X101209672Y-94913374D01*
X101189987Y-94980413D01*
X101174395Y-94998408D01*
X101174679Y-94998654D01*
X101074625Y-95114122D01*
X101074622Y-95114128D01*
X101014834Y-95245043D01*
X100994353Y-95387500D01*
X100600500Y-95387500D01*
X100600500Y-92137500D01*
X100994353Y-92137500D01*
X101014834Y-92279956D01*
X101057980Y-92374430D01*
X101074623Y-92410873D01*
X101168872Y-92519643D01*
X101289947Y-92597453D01*
X101289950Y-92597454D01*
X101289949Y-92597454D01*
X101428036Y-92637999D01*
X101428038Y-92638000D01*
X101428039Y-92638000D01*
X101571962Y-92638000D01*
X101571962Y-92637999D01*
X101710053Y-92597453D01*
X101831128Y-92519643D01*
X101925377Y-92410873D01*
X101985165Y-92279957D01*
X102005647Y-92137500D01*
X101985165Y-91995043D01*
X101925377Y-91864127D01*
X101879229Y-91810869D01*
X101843285Y-91769386D01*
X101814261Y-91705830D01*
X101812999Y-91688184D01*
X101812999Y-91401238D01*
X101832684Y-91334199D01*
X101843286Y-91320035D01*
X101843623Y-91319644D01*
X101843627Y-91319643D01*
X101937876Y-91210873D01*
X101997664Y-91079957D01*
X102018146Y-90937500D01*
X104244353Y-90937500D01*
X104264834Y-91079956D01*
X104308685Y-91175975D01*
X104324623Y-91210873D01*
X104418872Y-91319643D01*
X104418875Y-91319644D01*
X104419213Y-91320035D01*
X104448238Y-91383591D01*
X104449500Y-91401238D01*
X104449500Y-91673760D01*
X104429815Y-91740799D01*
X104419213Y-91754962D01*
X104324625Y-91864122D01*
X104324622Y-91864128D01*
X104264834Y-91995043D01*
X104244353Y-92137500D01*
X104264834Y-92279956D01*
X104307980Y-92374430D01*
X104324623Y-92410873D01*
X104418872Y-92519643D01*
X104539947Y-92597453D01*
X104539950Y-92597454D01*
X104539949Y-92597454D01*
X104678036Y-92637999D01*
X104678038Y-92638000D01*
X104678039Y-92638000D01*
X104821962Y-92638000D01*
X104821962Y-92637999D01*
X104960053Y-92597453D01*
X105081128Y-92519643D01*
X105175377Y-92410873D01*
X105235165Y-92279957D01*
X105255647Y-92137500D01*
X105235165Y-91995043D01*
X105175377Y-91864127D01*
X105175375Y-91864125D01*
X105175374Y-91864122D01*
X105080787Y-91754962D01*
X105051762Y-91691406D01*
X105050500Y-91673760D01*
X105050500Y-91401238D01*
X105070185Y-91334199D01*
X105080787Y-91320035D01*
X105081124Y-91319644D01*
X105081128Y-91319643D01*
X105175377Y-91210873D01*
X105235165Y-91079957D01*
X105255647Y-90937500D01*
X105235165Y-90795043D01*
X105175377Y-90664127D01*
X105081128Y-90555357D01*
X104960053Y-90477547D01*
X104960051Y-90477546D01*
X104960049Y-90477545D01*
X104960050Y-90477545D01*
X104821963Y-90437000D01*
X104821961Y-90437000D01*
X104678039Y-90437000D01*
X104678036Y-90437000D01*
X104539949Y-90477545D01*
X104418873Y-90555356D01*
X104324623Y-90664126D01*
X104324622Y-90664128D01*
X104264834Y-90795043D01*
X104244353Y-90937500D01*
X102018146Y-90937500D01*
X101997664Y-90795043D01*
X101937876Y-90664127D01*
X101843627Y-90555357D01*
X101722552Y-90477547D01*
X101722550Y-90477546D01*
X101722548Y-90477545D01*
X101722549Y-90477545D01*
X101584462Y-90437000D01*
X101584460Y-90437000D01*
X101440538Y-90437000D01*
X101440535Y-90437000D01*
X101302448Y-90477545D01*
X101181372Y-90555356D01*
X101087122Y-90664126D01*
X101087121Y-90664128D01*
X101027333Y-90795043D01*
X101006852Y-90937500D01*
X101027333Y-91079956D01*
X101071184Y-91175975D01*
X101087122Y-91210873D01*
X101181371Y-91319643D01*
X101181374Y-91319644D01*
X101181712Y-91320035D01*
X101210737Y-91383591D01*
X101211999Y-91401238D01*
X101211999Y-91661358D01*
X101192314Y-91728397D01*
X101169207Y-91755066D01*
X101168877Y-91755351D01*
X101074623Y-91864126D01*
X101074622Y-91864128D01*
X101014834Y-91995043D01*
X100994353Y-92137500D01*
X100600500Y-92137500D01*
X100600500Y-87725000D01*
X100994353Y-87725000D01*
X101014834Y-87867456D01*
X101040280Y-87923173D01*
X101074623Y-87998373D01*
X101168872Y-88107143D01*
X101168875Y-88107144D01*
X101169213Y-88107535D01*
X101198238Y-88171091D01*
X101199500Y-88188738D01*
X101199500Y-88461260D01*
X101179815Y-88528299D01*
X101169213Y-88542462D01*
X101074625Y-88651622D01*
X101074622Y-88651628D01*
X101014834Y-88782543D01*
X100994353Y-88925000D01*
X101014834Y-89067456D01*
X101074622Y-89198371D01*
X101074623Y-89198373D01*
X101168872Y-89307143D01*
X101289947Y-89384953D01*
X101289950Y-89384954D01*
X101289949Y-89384954D01*
X101428036Y-89425499D01*
X101428038Y-89425500D01*
X101428039Y-89425500D01*
X101571962Y-89425500D01*
X101571962Y-89425499D01*
X101710053Y-89384953D01*
X101831128Y-89307143D01*
X101925377Y-89198373D01*
X101985165Y-89067457D01*
X102005647Y-88925000D01*
X101985165Y-88782543D01*
X101925377Y-88651627D01*
X101925375Y-88651625D01*
X101925374Y-88651622D01*
X101830787Y-88542462D01*
X101801762Y-88478906D01*
X101800500Y-88461260D01*
X101800500Y-88188738D01*
X101820185Y-88121699D01*
X101830787Y-88107535D01*
X101831124Y-88107144D01*
X101831128Y-88107143D01*
X101925377Y-87998373D01*
X101985165Y-87867457D01*
X102005647Y-87725000D01*
X104244353Y-87725000D01*
X104264834Y-87867456D01*
X104290280Y-87923173D01*
X104324623Y-87998373D01*
X104418872Y-88107143D01*
X104418875Y-88107144D01*
X104419213Y-88107535D01*
X104448238Y-88171091D01*
X104449500Y-88188738D01*
X104449500Y-88461260D01*
X104429815Y-88528299D01*
X104419213Y-88542462D01*
X104324625Y-88651622D01*
X104324622Y-88651628D01*
X104264834Y-88782543D01*
X104244353Y-88925000D01*
X104264834Y-89067456D01*
X104324622Y-89198371D01*
X104324623Y-89198373D01*
X104418872Y-89307143D01*
X104539947Y-89384953D01*
X104539950Y-89384954D01*
X104539949Y-89384954D01*
X104678036Y-89425499D01*
X104678038Y-89425500D01*
X104678039Y-89425500D01*
X104821962Y-89425500D01*
X104821962Y-89425499D01*
X104960053Y-89384953D01*
X105081128Y-89307143D01*
X105175377Y-89198373D01*
X105235165Y-89067457D01*
X105255647Y-88925000D01*
X105235165Y-88782543D01*
X105175377Y-88651627D01*
X105175375Y-88651625D01*
X105175374Y-88651622D01*
X105080787Y-88542462D01*
X105051762Y-88478906D01*
X105050500Y-88461260D01*
X105050500Y-88188738D01*
X105070185Y-88121699D01*
X105080787Y-88107535D01*
X105081124Y-88107144D01*
X105081128Y-88107143D01*
X105175377Y-87998373D01*
X105235165Y-87867457D01*
X105255647Y-87725000D01*
X105235165Y-87582543D01*
X105175377Y-87451627D01*
X105081128Y-87342857D01*
X104960053Y-87265047D01*
X104960051Y-87265046D01*
X104960049Y-87265045D01*
X104960050Y-87265045D01*
X104821963Y-87224500D01*
X104821961Y-87224500D01*
X104678039Y-87224500D01*
X104678036Y-87224500D01*
X104539949Y-87265045D01*
X104418873Y-87342856D01*
X104324623Y-87451626D01*
X104324622Y-87451628D01*
X104264834Y-87582543D01*
X104244353Y-87725000D01*
X102005647Y-87725000D01*
X101985165Y-87582543D01*
X101925377Y-87451627D01*
X101831128Y-87342857D01*
X101710053Y-87265047D01*
X101710051Y-87265046D01*
X101710049Y-87265045D01*
X101710050Y-87265045D01*
X101571963Y-87224500D01*
X101571961Y-87224500D01*
X101428039Y-87224500D01*
X101428036Y-87224500D01*
X101289949Y-87265045D01*
X101168873Y-87342856D01*
X101074623Y-87451626D01*
X101074622Y-87451628D01*
X101014834Y-87582543D01*
X100994353Y-87725000D01*
X100600500Y-87725000D01*
X100600500Y-83260438D01*
X100580021Y-83184011D01*
X100580017Y-83184004D01*
X100540464Y-83115495D01*
X100540458Y-83115487D01*
X99289395Y-81864424D01*
X99255910Y-81803101D01*
X99254339Y-81759094D01*
X99255647Y-81750000D01*
X99235165Y-81607543D01*
X99175377Y-81476627D01*
X99081128Y-81367857D01*
X98960053Y-81290047D01*
X98960051Y-81290046D01*
X98960049Y-81290045D01*
X98960050Y-81290045D01*
X98821963Y-81249500D01*
X98821961Y-81249500D01*
X98725833Y-81249500D01*
X98658794Y-81229815D01*
X98638152Y-81213181D01*
X97836819Y-80411848D01*
X97803334Y-80350525D01*
X97800500Y-80324167D01*
X97800500Y-77660439D01*
X97780020Y-77584009D01*
X97780017Y-77584004D01*
X97740464Y-77515495D01*
X97740458Y-77515487D01*
X97137152Y-76912181D01*
X97103667Y-76850858D01*
X97108651Y-76781166D01*
X97150523Y-76725233D01*
X97215987Y-76700816D01*
X97224833Y-76700500D01*
X97569750Y-76700500D01*
X97569751Y-76700499D01*
X97584568Y-76697552D01*
X97628229Y-76688868D01*
X97628229Y-76688867D01*
X97628231Y-76688867D01*
X97694552Y-76644552D01*
X97738867Y-76578231D01*
X97738867Y-76578229D01*
X97743542Y-76566946D01*
X97746117Y-76568012D01*
X97770082Y-76522197D01*
X97830796Y-76487621D01*
X97900566Y-76491359D01*
X97926353Y-76503980D01*
X97967951Y-76530714D01*
X98040020Y-76577030D01*
X98178108Y-76617575D01*
X98178110Y-76617576D01*
X98178111Y-76617576D01*
X98322034Y-76617576D01*
X98322034Y-76617575D01*
X98429193Y-76586111D01*
X98460122Y-76577030D01*
X98460122Y-76577029D01*
X98460125Y-76577029D01*
X98581200Y-76499219D01*
X98581206Y-76499211D01*
X98587900Y-76493413D01*
X98590129Y-76495985D01*
X98635042Y-76467092D01*
X98704911Y-76467058D01*
X98757714Y-76498371D01*
X99797162Y-77537819D01*
X99830647Y-77599142D01*
X99825663Y-77668834D01*
X99783791Y-77724767D01*
X99718327Y-77749184D01*
X99709481Y-77749500D01*
X99678036Y-77749500D01*
X99539949Y-77790045D01*
X99418873Y-77867856D01*
X99324623Y-77976626D01*
X99324622Y-77976628D01*
X99264834Y-78107543D01*
X99244353Y-78250000D01*
X99264834Y-78392456D01*
X99324622Y-78523371D01*
X99324623Y-78523373D01*
X99418872Y-78632143D01*
X99539947Y-78709953D01*
X99539950Y-78709954D01*
X99539949Y-78709954D01*
X99678036Y-78750499D01*
X99678038Y-78750500D01*
X99688287Y-78750500D01*
X99755326Y-78770185D01*
X99801081Y-78822989D01*
X99811025Y-78856853D01*
X99830521Y-78992456D01*
X99887790Y-79117856D01*
X99890310Y-79123373D01*
X99984559Y-79232143D01*
X100105634Y-79309953D01*
X100105637Y-79309954D01*
X100105636Y-79309954D01*
X100243723Y-79350499D01*
X100243725Y-79350500D01*
X100243726Y-79350500D01*
X100387649Y-79350500D01*
X100387649Y-79350499D01*
X100525740Y-79309953D01*
X100646815Y-79232143D01*
X100680475Y-79193296D01*
X100739254Y-79155523D01*
X100774188Y-79150500D01*
X102477109Y-79150500D01*
X102544148Y-79170185D01*
X102564790Y-79186819D01*
X105527284Y-82149313D01*
X105560769Y-82210636D01*
X105563603Y-82236994D01*
X105563603Y-83511837D01*
X105568161Y-83528846D01*
X105584082Y-83588266D01*
X105584084Y-83588269D01*
X105605706Y-83625719D01*
X105605708Y-83625721D01*
X105605709Y-83625723D01*
X105623642Y-83656784D01*
X105623644Y-83656787D01*
X106663181Y-84696324D01*
X106696666Y-84757647D01*
X106699500Y-84784005D01*
X106699500Y-86216510D01*
X106711283Y-86260483D01*
X106719979Y-86292938D01*
X106719980Y-86292939D01*
X106737334Y-86322998D01*
X106754674Y-86353031D01*
X106759540Y-86361459D01*
X106759542Y-86361461D01*
X107663181Y-87265100D01*
X107696666Y-87326423D01*
X107699500Y-87352781D01*
X107699500Y-87861260D01*
X107679815Y-87928299D01*
X107669213Y-87942462D01*
X107574625Y-88051622D01*
X107574622Y-88051628D01*
X107514834Y-88182543D01*
X107494353Y-88325000D01*
X107514834Y-88467456D01*
X107549089Y-88542462D01*
X107574623Y-88598373D01*
X107668872Y-88707143D01*
X107789947Y-88784953D01*
X107789950Y-88784954D01*
X107789949Y-88784954D01*
X107928036Y-88825499D01*
X107928038Y-88825500D01*
X107928039Y-88825500D01*
X108071961Y-88825500D01*
X108140566Y-88805356D01*
X108210434Y-88805356D01*
X108269213Y-88843130D01*
X108298238Y-88906686D01*
X108299500Y-88924333D01*
X108299500Y-90761666D01*
X108279815Y-90828705D01*
X108263181Y-90849347D01*
X108111847Y-91000681D01*
X108050524Y-91034166D01*
X108024166Y-91037000D01*
X107928036Y-91037000D01*
X107789949Y-91077545D01*
X107668873Y-91155356D01*
X107574623Y-91264126D01*
X107574622Y-91264128D01*
X107514834Y-91395043D01*
X107494353Y-91537500D01*
X107514834Y-91679956D01*
X107565071Y-91789957D01*
X107574623Y-91810873D01*
X107668872Y-91919643D01*
X107789947Y-91997453D01*
X107789950Y-91997454D01*
X107789949Y-91997454D01*
X107928036Y-92037999D01*
X107928038Y-92038000D01*
X107928039Y-92038000D01*
X108071962Y-92038000D01*
X108071962Y-92037999D01*
X108210053Y-91997453D01*
X108331128Y-91919643D01*
X108425377Y-91810873D01*
X108439182Y-91780646D01*
X108462706Y-91729135D01*
X108508461Y-91676331D01*
X108575500Y-91656646D01*
X108642539Y-91676331D01*
X108688294Y-91729135D01*
X108699500Y-91780646D01*
X108699500Y-93574166D01*
X108679815Y-93641205D01*
X108663181Y-93661847D01*
X108111847Y-94213181D01*
X108050524Y-94246666D01*
X108024166Y-94249500D01*
X107928036Y-94249500D01*
X107789949Y-94290045D01*
X107668873Y-94367856D01*
X107574623Y-94476626D01*
X107574622Y-94476628D01*
X107514834Y-94607543D01*
X107494353Y-94750000D01*
X107514834Y-94892456D01*
X107564249Y-95000657D01*
X107574623Y-95023373D01*
X107668872Y-95132143D01*
X107789947Y-95209953D01*
X107789950Y-95209954D01*
X107789949Y-95209954D01*
X107928036Y-95250499D01*
X107928038Y-95250500D01*
X107928039Y-95250500D01*
X108071962Y-95250500D01*
X108071962Y-95250499D01*
X108210053Y-95209953D01*
X108331128Y-95132143D01*
X108425377Y-95023373D01*
X108485165Y-94892457D01*
X108505647Y-94750000D01*
X108504339Y-94740905D01*
X108514279Y-94671749D01*
X108539392Y-94635577D01*
X108887820Y-94287150D01*
X108949142Y-94253666D01*
X109018834Y-94258650D01*
X109074767Y-94300522D01*
X109099184Y-94365986D01*
X109099500Y-94374832D01*
X109099500Y-96499166D01*
X109079815Y-96566205D01*
X109063181Y-96586847D01*
X108111847Y-97538181D01*
X108050524Y-97571666D01*
X108024166Y-97574500D01*
X107928036Y-97574500D01*
X107789949Y-97615045D01*
X107668873Y-97692856D01*
X107574623Y-97801626D01*
X107574622Y-97801628D01*
X107514834Y-97932543D01*
X107494353Y-98075000D01*
X107514834Y-98217456D01*
X107561725Y-98320131D01*
X107574623Y-98348373D01*
X107668872Y-98457143D01*
X107789947Y-98534953D01*
X107789950Y-98534954D01*
X107789949Y-98534954D01*
X107928036Y-98575499D01*
X107928038Y-98575500D01*
X107928039Y-98575500D01*
X108071962Y-98575500D01*
X108071962Y-98575499D01*
X108210053Y-98534953D01*
X108331128Y-98457143D01*
X108425377Y-98348373D01*
X108485165Y-98217457D01*
X108505647Y-98075000D01*
X108504339Y-98065905D01*
X108514279Y-97996749D01*
X108539392Y-97960577D01*
X109287820Y-97212150D01*
X109349142Y-97178666D01*
X109418834Y-97183650D01*
X109474767Y-97225522D01*
X109499184Y-97290986D01*
X109499500Y-97299832D01*
X109499500Y-97591033D01*
X109511411Y-97635483D01*
X109519979Y-97667460D01*
X109545043Y-97710873D01*
X109545642Y-97711909D01*
X109559540Y-97735982D01*
X109663182Y-97839624D01*
X109696666Y-97900945D01*
X109699500Y-97927304D01*
X109699500Y-100399167D01*
X109679815Y-100466206D01*
X109663181Y-100486848D01*
X109161848Y-100988181D01*
X109100525Y-101021666D01*
X109074167Y-101024500D01*
X108458501Y-101024500D01*
X108391462Y-101004815D01*
X108364788Y-100981703D01*
X108362142Y-100978649D01*
X108331128Y-100942857D01*
X108210053Y-100865047D01*
X108210051Y-100865046D01*
X108210049Y-100865045D01*
X108210050Y-100865045D01*
X108071963Y-100824500D01*
X108071961Y-100824500D01*
X107928039Y-100824500D01*
X107928036Y-100824500D01*
X107789949Y-100865045D01*
X107668873Y-100942856D01*
X107574623Y-101051626D01*
X107574622Y-101051628D01*
X107514834Y-101182543D01*
X107494353Y-101325000D01*
X107514834Y-101467456D01*
X107574622Y-101598371D01*
X107574623Y-101598373D01*
X107668872Y-101707143D01*
X107789947Y-101784953D01*
X107789950Y-101784954D01*
X107789949Y-101784954D01*
X107928036Y-101825499D01*
X107928038Y-101825500D01*
X107928039Y-101825500D01*
X108071962Y-101825500D01*
X108071962Y-101825499D01*
X108210053Y-101784953D01*
X108331128Y-101707143D01*
X108364788Y-101668296D01*
X108423567Y-101630523D01*
X108458501Y-101625500D01*
X109289560Y-101625500D01*
X109289562Y-101625500D01*
X109365989Y-101605021D01*
X109434511Y-101565460D01*
X109490460Y-101509511D01*
X110240460Y-100759511D01*
X110269593Y-100709051D01*
X110280021Y-100690989D01*
X110300500Y-100614562D01*
X110300500Y-97711909D01*
X110300222Y-97710873D01*
X110288590Y-97667460D01*
X110280023Y-97635484D01*
X110265542Y-97610403D01*
X110240460Y-97566960D01*
X110136819Y-97463319D01*
X110103334Y-97401996D01*
X110100500Y-97375638D01*
X110100500Y-88487973D01*
X110120185Y-88420934D01*
X110172989Y-88375179D01*
X110242147Y-88365235D01*
X110305703Y-88394260D01*
X110343477Y-88453038D01*
X110344414Y-88456404D01*
X110352669Y-88487762D01*
X110358850Y-88511244D01*
X110359392Y-88514017D01*
X110377743Y-88583022D01*
X110377783Y-88583332D01*
X110377822Y-88583322D01*
X110396059Y-88652599D01*
X110396957Y-88655272D01*
X110464338Y-88908642D01*
X110466338Y-88918556D01*
X110483691Y-88981436D01*
X110483957Y-88982420D01*
X110488633Y-89000000D01*
X110500779Y-89045671D01*
X110504063Y-89055259D01*
X110593002Y-89377543D01*
X110632326Y-89520994D01*
X110699883Y-89767435D01*
X110700289Y-89768954D01*
X110801839Y-90158710D01*
X110802332Y-90160667D01*
X110999671Y-90971967D01*
X111000106Y-90973819D01*
X111185410Y-91789957D01*
X111185917Y-91792291D01*
X111355358Y-92611340D01*
X111355909Y-92614171D01*
X111505934Y-93435178D01*
X111506498Y-93438519D01*
X111633655Y-94260826D01*
X111634190Y-94264691D01*
X111735021Y-95087415D01*
X111735481Y-95091816D01*
X111806889Y-95917616D01*
X111807150Y-95921257D01*
X111830354Y-96329217D01*
X111830475Y-96331826D01*
X111842771Y-96675523D01*
X111842710Y-96677694D01*
X111845426Y-96749719D01*
X111845430Y-96749957D01*
X111845435Y-96749957D01*
X111848013Y-96822011D01*
X111848234Y-96824159D01*
X111894829Y-98059633D01*
X111894857Y-98060447D01*
X111914819Y-98701638D01*
X111914878Y-98705069D01*
X111917052Y-99335376D01*
X111917003Y-99339329D01*
X111908334Y-99644186D01*
X111908192Y-99647555D01*
X111891261Y-99951624D01*
X111890981Y-99955536D01*
X111864695Y-100256020D01*
X111864226Y-100260459D01*
X111827434Y-100557444D01*
X111826722Y-100562380D01*
X111778277Y-100856079D01*
X111777265Y-100861466D01*
X111716052Y-101151963D01*
X111714690Y-101157740D01*
X111639508Y-101445500D01*
X111637750Y-101451587D01*
X111547066Y-101737975D01*
X111545034Y-101743874D01*
X111475059Y-101931497D01*
X111472898Y-101936900D01*
X111393569Y-102122504D01*
X111391216Y-102127677D01*
X111303085Y-102310243D01*
X111300560Y-102315188D01*
X111203892Y-102494465D01*
X111201210Y-102499189D01*
X111096302Y-102674863D01*
X111093476Y-102679372D01*
X110980675Y-102851073D01*
X110977717Y-102855376D01*
X110857336Y-103022804D01*
X110854253Y-103026910D01*
X110726628Y-103189740D01*
X110723425Y-103193658D01*
X110588949Y-103351513D01*
X110585631Y-103355252D01*
X110444618Y-103507866D01*
X110441186Y-103511436D01*
X110294037Y-103658453D01*
X110290489Y-103661860D01*
X110137610Y-103802938D01*
X110133945Y-103806188D01*
X109975697Y-103941048D01*
X109971909Y-103944149D01*
X109808708Y-104072462D01*
X109804794Y-104075416D01*
X109637067Y-104196872D01*
X109633029Y-104199675D01*
X109585578Y-104231240D01*
X109460389Y-104314514D01*
X109456530Y-104316979D01*
X109352970Y-104380478D01*
X109349416Y-104382577D01*
X109243248Y-104442909D01*
X109239744Y-104444826D01*
X109131609Y-104501748D01*
X109128180Y-104503486D01*
X109017984Y-104557199D01*
X109014646Y-104558765D01*
X108902439Y-104609387D01*
X108899215Y-104610787D01*
X108784880Y-104658516D01*
X108781780Y-104659761D01*
X108665360Y-104704718D01*
X108662403Y-104705817D01*
X108543801Y-104748182D01*
X108540994Y-104749147D01*
X108514308Y-104757965D01*
X108420374Y-104789003D01*
X108417790Y-104789825D01*
X108352986Y-104809640D01*
X108294953Y-104827385D01*
X108292475Y-104828114D01*
X108167737Y-104863431D01*
X108165429Y-104864061D01*
X108041019Y-104896706D01*
X108037914Y-104897478D01*
X107775488Y-104959148D01*
X107771945Y-104959926D01*
X107506437Y-105014178D01*
X107503073Y-105014816D01*
X107419608Y-105029449D01*
X107391930Y-105034301D01*
X107388348Y-105034875D01*
X107276749Y-105051089D01*
X107273481Y-105051519D01*
X107160197Y-105064914D01*
X107157267Y-105065225D01*
X107045020Y-105075800D01*
X107041323Y-105076093D01*
X106801850Y-105091446D01*
X106798117Y-105091629D01*
X106555771Y-105099845D01*
X106553096Y-105099907D01*
X106115847Y-105105290D01*
X106113595Y-105105172D01*
X106041877Y-105106200D01*
X106041636Y-105106203D01*
X106041627Y-105106204D01*
X106037534Y-105106254D01*
X105969313Y-105107094D01*
X105967060Y-105107271D01*
X105855147Y-105108874D01*
X105841054Y-105108274D01*
X105838905Y-105108059D01*
X105778349Y-105109957D01*
X105776241Y-105110005D01*
X105715660Y-105110872D01*
X105713516Y-105111186D01*
X105699479Y-105112427D01*
X105519884Y-105118054D01*
X105512979Y-105118271D01*
X105512942Y-105118272D01*
X105512879Y-105118274D01*
X104886304Y-105137401D01*
X104883090Y-105137458D01*
X104266031Y-105140292D01*
X104262945Y-105140267D01*
X103647213Y-105127768D01*
X103644273Y-105127674D01*
X103028883Y-105100564D01*
X103026103Y-105100410D01*
X102410424Y-105059420D01*
X102407816Y-105059219D01*
X101790905Y-105005059D01*
X101788482Y-105004822D01*
X101169657Y-104938223D01*
X101167423Y-104937962D01*
X100547685Y-104859870D01*
X100544915Y-104859489D01*
X100375194Y-104834204D01*
X100372212Y-104833723D01*
X100200983Y-104803933D01*
X100197679Y-104803312D01*
X99832834Y-104729595D01*
X99829783Y-104728938D01*
X99132987Y-104569798D01*
X99127536Y-104568187D01*
X99060108Y-104553152D01*
X99059489Y-104553012D01*
X98992222Y-104537650D01*
X98986604Y-104536762D01*
X98742068Y-104482238D01*
X98729278Y-104478657D01*
X98722995Y-104476529D01*
X98665610Y-104465154D01*
X98662737Y-104464549D01*
X98605664Y-104451824D01*
X98599033Y-104451235D01*
X98585898Y-104449355D01*
X98345985Y-104401803D01*
X98333165Y-104397668D01*
X98332949Y-104398372D01*
X98325184Y-104395984D01*
X98268893Y-104386473D01*
X98265446Y-104385840D01*
X98209498Y-104374751D01*
X98201392Y-104374225D01*
X98201439Y-104373489D01*
X98187993Y-104372804D01*
X98143747Y-104365328D01*
X98130948Y-104362462D01*
X98123686Y-104360427D01*
X98066174Y-104352182D01*
X98063114Y-104351704D01*
X98005849Y-104342029D01*
X97998316Y-104341754D01*
X97985248Y-104340582D01*
X97943381Y-104334580D01*
X97930018Y-104331053D01*
X97929860Y-104331691D01*
X97921973Y-104329735D01*
X97865882Y-104323413D01*
X97862180Y-104322939D01*
X97806248Y-104314923D01*
X97798121Y-104314830D01*
X97798128Y-104314172D01*
X97784301Y-104314220D01*
X97773032Y-104312951D01*
X97742743Y-104309537D01*
X97728214Y-104306211D01*
X97728130Y-104306614D01*
X97720177Y-104304941D01*
X97665627Y-104300767D01*
X97661207Y-104300349D01*
X97606864Y-104294226D01*
X97598740Y-104294378D01*
X97598732Y-104293966D01*
X97583832Y-104294511D01*
X97540224Y-104291174D01*
X97519247Y-104287293D01*
X97515184Y-104286643D01*
X97472149Y-104285446D01*
X97446990Y-104282149D01*
X97445413Y-104281775D01*
X97445406Y-104281774D01*
X97445405Y-104281774D01*
X97445398Y-104281773D01*
X97431561Y-104282173D01*
X97418534Y-104281864D01*
X97407898Y-104281051D01*
X97407895Y-104281051D01*
X97407893Y-104281051D01*
X97407890Y-104281051D01*
X97399779Y-104281494D01*
X97399681Y-104279699D01*
X97384940Y-104279752D01*
X97384870Y-104281254D01*
X97376757Y-104280875D01*
X97366583Y-104281735D01*
X97352704Y-104282127D01*
X97342036Y-104281830D01*
X97333956Y-104282667D01*
X97333812Y-104281285D01*
X97317721Y-104282171D01*
X97317732Y-104283675D01*
X97309604Y-104283731D01*
X97298381Y-104285287D01*
X97284940Y-104286410D01*
X97274591Y-104286709D01*
X97272911Y-104286758D01*
X97272909Y-104286758D01*
X97264888Y-104288051D01*
X97264770Y-104287324D01*
X97251710Y-104289619D01*
X97244166Y-104290058D01*
X97231661Y-104292451D01*
X97218807Y-104294219D01*
X97205287Y-104295361D01*
X97197949Y-104296965D01*
X97184710Y-104299115D01*
X97180721Y-104299542D01*
X97166858Y-104302901D01*
X97154701Y-104305210D01*
X97139508Y-104307317D01*
X97134663Y-104308651D01*
X97120603Y-104311656D01*
X97119333Y-104311851D01*
X97103972Y-104316325D01*
X97092610Y-104319060D01*
X97075724Y-104322291D01*
X97073593Y-104322998D01*
X97061513Y-104326180D01*
X97043325Y-104332329D01*
X97032815Y-104335372D01*
X97013498Y-104340052D01*
X97001287Y-104343972D01*
X96994339Y-104345766D01*
X96977888Y-104352404D01*
X96966177Y-104356461D01*
X96954822Y-104359769D01*
X96947384Y-104363041D01*
X96947329Y-104362916D01*
X96932650Y-104369748D01*
X96891300Y-104383729D01*
X96890205Y-104384176D01*
X96847880Y-104404579D01*
X96840443Y-104407868D01*
X96798350Y-104424855D01*
X96795079Y-104426704D01*
X96793725Y-104427458D01*
X96748106Y-104452488D01*
X96742313Y-104455471D01*
X96723484Y-104464549D01*
X96697759Y-104476951D01*
X96690970Y-104481400D01*
X96690884Y-104481269D01*
X96685596Y-104485095D01*
X96655986Y-104502920D01*
X96651684Y-104505393D01*
X96622817Y-104521233D01*
X96616812Y-104524319D01*
X96614654Y-104525354D01*
X96607573Y-104529599D01*
X96604885Y-104531074D01*
X96598786Y-104535546D01*
X96593244Y-104539382D01*
X96569290Y-104555017D01*
X96565472Y-104557412D01*
X96518764Y-104585532D01*
X96512414Y-104590593D01*
X96512171Y-104590288D01*
X96500597Y-104599858D01*
X96483308Y-104611143D01*
X96473253Y-104616877D01*
X96420015Y-104652447D01*
X96418909Y-104653177D01*
X96365221Y-104688223D01*
X96356013Y-104695209D01*
X96285271Y-104742475D01*
X96283188Y-104743837D01*
X96227387Y-104779521D01*
X96224332Y-104781413D01*
X96173911Y-104811635D01*
X96169451Y-104814184D01*
X96125844Y-104837924D01*
X96119804Y-104841001D01*
X96079542Y-104860146D01*
X96073394Y-104862868D01*
X95992204Y-104896207D01*
X95987077Y-104898180D01*
X95902804Y-104928497D01*
X95897733Y-104930199D01*
X95812592Y-104956741D01*
X95807638Y-104958173D01*
X95721360Y-104981180D01*
X95716575Y-104982355D01*
X95628780Y-105002067D01*
X95624214Y-105003002D01*
X95534690Y-105019596D01*
X95530384Y-105020316D01*
X95438829Y-105033972D01*
X95434817Y-105034504D01*
X95341045Y-105045376D01*
X95337358Y-105045748D01*
X95241241Y-105053990D01*
X95237884Y-105054232D01*
X95139216Y-105060000D01*
X95136212Y-105060139D01*
X95034953Y-105063598D01*
X95032302Y-105063660D01*
X94930823Y-105064955D01*
X94927551Y-105064953D01*
X94708281Y-105061965D01*
X94705086Y-105061881D01*
X94484031Y-105053166D01*
X94479769Y-105052924D01*
X94427137Y-105049031D01*
X94421078Y-105048433D01*
X94396339Y-105045376D01*
X94373126Y-105042507D01*
X94367396Y-105041662D01*
X94318770Y-105033331D01*
X94313397Y-105032288D01*
X94263772Y-105021512D01*
X94258776Y-105020318D01*
X94208115Y-105007098D01*
X94203523Y-105005805D01*
X94151705Y-104990131D01*
X94147555Y-104988795D01*
X94094532Y-104970678D01*
X94090749Y-104969316D01*
X94036525Y-104948797D01*
X94033168Y-104947469D01*
X94023617Y-104943529D01*
X93977833Y-104924641D01*
X93974814Y-104923349D01*
X93921216Y-104899558D01*
X93917415Y-104897794D01*
X93797384Y-104839583D01*
X93793471Y-104837599D01*
X93672850Y-104773736D01*
X93670233Y-104772309D01*
X93556495Y-104708543D01*
X93550870Y-104705192D01*
X93338031Y-104570628D01*
X93237739Y-104507220D01*
X93218859Y-104492555D01*
X93214934Y-104488848D01*
X93214931Y-104488846D01*
X93175816Y-104467724D01*
X93168468Y-104463424D01*
X93158708Y-104457253D01*
X93153823Y-104453638D01*
X93146616Y-104448920D01*
X93137764Y-104444012D01*
X93130913Y-104439680D01*
X93130910Y-104439678D01*
X93128170Y-104438825D01*
X93111268Y-104432165D01*
X93105640Y-104429455D01*
X93101833Y-104427622D01*
X93096713Y-104425009D01*
X93092613Y-104422795D01*
X93076057Y-104412072D01*
X93075739Y-104411828D01*
X93075733Y-104411824D01*
X93066884Y-104408161D01*
X93055403Y-104402703D01*
X93051479Y-104400584D01*
X93051478Y-104400583D01*
X93051475Y-104400582D01*
X93047323Y-104398999D01*
X93035574Y-104395197D01*
X93033144Y-104394191D01*
X93031083Y-104393338D01*
X93024714Y-104390490D01*
X93021170Y-104388784D01*
X93012845Y-104384775D01*
X92997808Y-104376193D01*
X92997226Y-104375804D01*
X92995520Y-104375226D01*
X92994204Y-104374780D01*
X92982013Y-104369801D01*
X92981165Y-104369522D01*
X92981159Y-104369519D01*
X92981152Y-104369517D01*
X92977923Y-104368455D01*
X92967328Y-104365672D01*
X92954281Y-104361251D01*
X92946656Y-104358385D01*
X92934569Y-104353380D01*
X92924956Y-104348580D01*
X92920905Y-104346855D01*
X92908349Y-104342525D01*
X92907938Y-104342355D01*
X92904760Y-104341039D01*
X92896911Y-104338937D01*
X92897082Y-104338296D01*
X92883579Y-104334887D01*
X92877500Y-104332576D01*
X92857200Y-104327770D01*
X92845965Y-104324544D01*
X92841610Y-104323068D01*
X92836530Y-104320981D01*
X92825756Y-104317385D01*
X92822567Y-104316540D01*
X92822023Y-104316432D01*
X92822020Y-104316431D01*
X92822016Y-104316430D01*
X92814050Y-104314850D01*
X92814144Y-104314375D01*
X92792852Y-104309218D01*
X92792587Y-104310143D01*
X92784779Y-104307903D01*
X92784775Y-104307901D01*
X92784769Y-104307900D01*
X92783628Y-104307729D01*
X92769224Y-104304656D01*
X92760936Y-104303481D01*
X92761138Y-104302051D01*
X92744575Y-104298896D01*
X92744284Y-104300113D01*
X92735769Y-104298070D01*
X92724904Y-104296222D01*
X92715107Y-104295224D01*
X92715209Y-104294222D01*
X92694968Y-104291243D01*
X92694806Y-104292087D01*
X92686832Y-104290549D01*
X92686827Y-104290548D01*
X92686821Y-104290547D01*
X92684546Y-104290109D01*
X92679156Y-104289428D01*
X92673102Y-104289063D01*
X92662874Y-104289119D01*
X92662420Y-104289092D01*
X92651429Y-104287945D01*
X92648780Y-104287548D01*
X92638986Y-104285440D01*
X92632385Y-104284478D01*
X92632042Y-104284450D01*
X92624179Y-104284311D01*
X92615326Y-104284751D01*
X92612533Y-104284712D01*
X92601331Y-104284048D01*
X92596401Y-104283531D01*
X92588370Y-104282177D01*
X92581570Y-104281502D01*
X92574204Y-104281697D01*
X92566628Y-104282416D01*
X92564728Y-104282477D01*
X92561783Y-104282571D01*
X92550413Y-104282416D01*
X92545465Y-104282121D01*
X92539397Y-104281368D01*
X92530222Y-104280849D01*
X92524324Y-104281271D01*
X92515024Y-104282566D01*
X92511496Y-104282830D01*
X92500531Y-104283164D01*
X92480620Y-104282888D01*
X92476137Y-104282827D01*
X92476136Y-104282827D01*
X92476134Y-104282827D01*
X92468062Y-104283776D01*
X92467970Y-104282993D01*
X92459949Y-104283905D01*
X92460002Y-104284386D01*
X92445995Y-104285926D01*
X92436440Y-104286605D01*
X92426647Y-104286920D01*
X92424274Y-104286997D01*
X92424271Y-104286997D01*
X92416258Y-104288316D01*
X92416244Y-104288236D01*
X92406039Y-104290322D01*
X92397334Y-104291280D01*
X92393001Y-104291680D01*
X92387134Y-104292118D01*
X92378567Y-104291922D01*
X92378572Y-104292408D01*
X92370453Y-104292478D01*
X92360950Y-104293813D01*
X92352944Y-104294673D01*
X92338189Y-104295775D01*
X92330229Y-104297434D01*
X92330162Y-104297116D01*
X92320148Y-104299543D01*
X92314448Y-104300343D01*
X92310781Y-104300802D01*
X92305912Y-104301338D01*
X92296578Y-104302011D01*
X92290144Y-104302230D01*
X92278583Y-104304155D01*
X92271793Y-104305093D01*
X92268558Y-104305449D01*
X92254581Y-104306987D01*
X92254579Y-104306987D01*
X92254576Y-104306988D01*
X92246689Y-104308922D01*
X92246565Y-104308417D01*
X92236698Y-104311127D01*
X92232980Y-104311746D01*
X92229856Y-104312226D01*
X92224692Y-104312951D01*
X92214590Y-104313321D01*
X92214624Y-104313847D01*
X92206515Y-104314368D01*
X92190027Y-104317627D01*
X92183249Y-104318772D01*
X92172467Y-104320287D01*
X92172465Y-104320287D01*
X92172462Y-104320288D01*
X92166771Y-104321865D01*
X92157707Y-104324013D01*
X92151100Y-104325319D01*
X92147420Y-104325989D01*
X92091724Y-104335262D01*
X92084375Y-104337502D01*
X92059697Y-104342355D01*
X92053323Y-104342946D01*
X91997700Y-104355586D01*
X91994270Y-104356314D01*
X91938296Y-104367378D01*
X91930789Y-104369916D01*
X91904728Y-104375693D01*
X91903997Y-104375773D01*
X91845361Y-104390186D01*
X91843245Y-104390686D01*
X91784304Y-104404081D01*
X91781935Y-104404958D01*
X91768525Y-104409072D01*
X91562031Y-104459829D01*
X91561267Y-104460014D01*
X91433197Y-104490635D01*
X91430603Y-104491226D01*
X91311450Y-104517026D01*
X91308859Y-104517558D01*
X90803692Y-104615709D01*
X90802177Y-104615993D01*
X90294150Y-104708160D01*
X90292351Y-104708473D01*
X89784236Y-104792947D01*
X89782152Y-104793275D01*
X89273483Y-104868974D01*
X89271372Y-104869270D01*
X88368661Y-104987786D01*
X88366159Y-104988089D01*
X87446758Y-105089830D01*
X87443382Y-105090157D01*
X86515629Y-105167207D01*
X86511329Y-105167489D01*
X85578623Y-105212394D01*
X85574778Y-105212519D01*
X85115061Y-105220371D01*
X85112144Y-105220386D01*
X84651958Y-105217420D01*
X84648759Y-105217359D01*
X84191802Y-105202620D01*
X84188309Y-105202458D01*
X83735671Y-105175065D01*
X83731872Y-105174776D01*
X83284420Y-105133866D01*
X83280302Y-105133420D01*
X82839025Y-105078158D01*
X82834582Y-105077520D01*
X82400263Y-105007081D01*
X82395489Y-105006210D01*
X81965730Y-104919130D01*
X81961931Y-104918298D01*
X81890542Y-104901486D01*
X81888061Y-104900875D01*
X81814739Y-104882005D01*
X81812502Y-104881407D01*
X81739356Y-104861119D01*
X81737415Y-104860564D01*
X81721586Y-104855894D01*
X81663711Y-104838822D01*
X81662167Y-104838355D01*
X81587152Y-104815110D01*
X81585990Y-104814743D01*
X81509852Y-104790252D01*
X81508840Y-104789921D01*
X81354911Y-104738704D01*
X81351147Y-104737384D01*
X81143464Y-104660779D01*
X81137078Y-104658220D01*
X80984671Y-104592186D01*
X80937931Y-104571934D01*
X80931970Y-104569162D01*
X80929148Y-104567757D01*
X80734583Y-104470887D01*
X80728996Y-104467925D01*
X80534205Y-104358208D01*
X80528968Y-104355087D01*
X80337607Y-104234520D01*
X80332668Y-104231240D01*
X80145594Y-104100479D01*
X80140927Y-104097052D01*
X79958954Y-103956769D01*
X79954528Y-103953192D01*
X79778425Y-103804066D01*
X79774213Y-103800333D01*
X79604800Y-103643129D01*
X79600804Y-103639248D01*
X79438859Y-103474739D01*
X79435007Y-103470644D01*
X79331282Y-103355252D01*
X79281267Y-103299612D01*
X79277578Y-103295314D01*
X79132756Y-103118561D01*
X79129204Y-103114014D01*
X79031669Y-102982984D01*
X78993988Y-102932364D01*
X78990580Y-102927550D01*
X78865668Y-102741903D01*
X78862398Y-102736776D01*
X78748380Y-102547945D01*
X78745266Y-102542479D01*
X78743720Y-102539597D01*
X78640885Y-102347908D01*
X78638632Y-102343497D01*
X78599568Y-102263051D01*
X78598146Y-102260017D01*
X78596441Y-102256247D01*
X78561166Y-102178231D01*
X78559344Y-102174201D01*
X78558054Y-102171246D01*
X78521053Y-102083396D01*
X78519903Y-102080569D01*
X78484645Y-101990740D01*
X78483622Y-101988042D01*
X78450100Y-101896422D01*
X78449191Y-101893851D01*
X78418338Y-101803410D01*
X78417220Y-101799962D01*
X78357414Y-101605443D01*
X78356174Y-101601127D01*
X78353323Y-101590476D01*
X78303662Y-101404966D01*
X78302708Y-101401159D01*
X78255993Y-101201034D01*
X78255266Y-101197706D01*
X78213899Y-100994907D01*
X78213352Y-100992052D01*
X78176690Y-100787150D01*
X78176301Y-100784842D01*
X78163255Y-100702988D01*
X78122973Y-100450257D01*
X78122666Y-100448215D01*
X78099532Y-100284564D01*
X78099286Y-100282718D01*
X78078929Y-100119221D01*
X78078656Y-100116838D01*
X78061816Y-99955027D01*
X78061548Y-99952109D01*
X78048730Y-99792064D01*
X78048505Y-99788675D01*
X78045083Y-99723583D01*
X78040179Y-99630299D01*
X78040038Y-99626479D01*
X78039628Y-99607413D01*
X78036454Y-99459825D01*
X78027521Y-98984710D01*
X78027517Y-98980386D01*
X78035294Y-98517511D01*
X78035717Y-98512241D01*
X78035776Y-98507248D01*
X78035778Y-98507245D01*
X78036554Y-98442565D01*
X78037641Y-98377879D01*
X78037640Y-98377876D01*
X78037724Y-98372894D01*
X78037453Y-98367585D01*
X78043076Y-97898981D01*
X78043133Y-97896445D01*
X78045171Y-97834199D01*
X78058156Y-97437500D01*
X84744353Y-97437500D01*
X84764834Y-97579956D01*
X84816395Y-97692856D01*
X84824623Y-97710873D01*
X84918872Y-97819643D01*
X84918875Y-97819644D01*
X84919213Y-97820035D01*
X84948238Y-97883591D01*
X84949500Y-97901238D01*
X84949500Y-98173760D01*
X84929815Y-98240799D01*
X84919213Y-98254962D01*
X84824625Y-98364122D01*
X84824622Y-98364128D01*
X84764834Y-98495043D01*
X84744353Y-98637500D01*
X84764834Y-98779956D01*
X84824622Y-98910871D01*
X84824623Y-98910873D01*
X84918872Y-99019643D01*
X85039947Y-99097453D01*
X85039950Y-99097454D01*
X85039949Y-99097454D01*
X85178036Y-99137999D01*
X85178038Y-99138000D01*
X85178039Y-99138000D01*
X85321962Y-99138000D01*
X85321962Y-99137999D01*
X85460053Y-99097453D01*
X85581128Y-99019643D01*
X85675377Y-98910873D01*
X85735165Y-98779957D01*
X85755647Y-98637500D01*
X85735165Y-98495043D01*
X85675377Y-98364127D01*
X85675375Y-98364125D01*
X85675374Y-98364122D01*
X85580787Y-98254962D01*
X85551762Y-98191406D01*
X85550500Y-98173760D01*
X85550500Y-97901238D01*
X85570185Y-97834199D01*
X85580787Y-97820035D01*
X85581124Y-97819644D01*
X85581128Y-97819643D01*
X85675377Y-97710873D01*
X85735165Y-97579957D01*
X85755647Y-97437500D01*
X87994353Y-97437500D01*
X88014834Y-97579956D01*
X88066395Y-97692856D01*
X88074623Y-97710873D01*
X88168872Y-97819643D01*
X88168875Y-97819644D01*
X88169213Y-97820035D01*
X88198238Y-97883591D01*
X88199500Y-97901238D01*
X88199500Y-98173760D01*
X88179815Y-98240799D01*
X88169213Y-98254962D01*
X88074625Y-98364122D01*
X88074622Y-98364128D01*
X88014834Y-98495043D01*
X87994353Y-98637500D01*
X88014834Y-98779956D01*
X88074622Y-98910871D01*
X88074623Y-98910873D01*
X88168872Y-99019643D01*
X88289947Y-99097453D01*
X88289950Y-99097454D01*
X88289949Y-99097454D01*
X88428036Y-99137999D01*
X88428038Y-99138000D01*
X88428039Y-99138000D01*
X88571962Y-99138000D01*
X88571962Y-99137999D01*
X88710053Y-99097453D01*
X88831128Y-99019643D01*
X88925377Y-98910873D01*
X88985165Y-98779957D01*
X89005647Y-98637500D01*
X88985165Y-98495043D01*
X88925377Y-98364127D01*
X88925375Y-98364125D01*
X88925374Y-98364122D01*
X88830787Y-98254962D01*
X88801762Y-98191406D01*
X88800500Y-98173760D01*
X88800500Y-97901238D01*
X88820185Y-97834199D01*
X88830787Y-97820035D01*
X88831124Y-97819644D01*
X88831128Y-97819643D01*
X88925377Y-97710873D01*
X88985165Y-97579957D01*
X89005647Y-97437500D01*
X88985165Y-97295043D01*
X88925377Y-97164127D01*
X88831128Y-97055357D01*
X88710053Y-96977547D01*
X88710051Y-96977546D01*
X88710049Y-96977545D01*
X88710050Y-96977545D01*
X88571963Y-96937000D01*
X88571961Y-96937000D01*
X88428039Y-96937000D01*
X88428036Y-96937000D01*
X88289949Y-96977545D01*
X88168873Y-97055356D01*
X88074623Y-97164126D01*
X88074622Y-97164128D01*
X88014834Y-97295043D01*
X87994353Y-97437500D01*
X85755647Y-97437500D01*
X85735165Y-97295043D01*
X85675377Y-97164127D01*
X85581128Y-97055357D01*
X85460053Y-96977547D01*
X85460051Y-96977546D01*
X85460049Y-96977545D01*
X85460050Y-96977545D01*
X85321963Y-96937000D01*
X85321961Y-96937000D01*
X85178039Y-96937000D01*
X85178036Y-96937000D01*
X85039949Y-96977545D01*
X84918873Y-97055356D01*
X84824623Y-97164126D01*
X84824622Y-97164128D01*
X84764834Y-97295043D01*
X84744353Y-97437500D01*
X78058156Y-97437500D01*
X78060737Y-97358652D01*
X78060840Y-97356265D01*
X78089066Y-96817286D01*
X78089198Y-96815147D01*
X78127508Y-96275638D01*
X78127667Y-96273644D01*
X78175481Y-95734830D01*
X78175671Y-95732881D01*
X78232428Y-95195629D01*
X78232631Y-95193849D01*
X78297744Y-94659249D01*
X78297981Y-94657421D01*
X78307329Y-94589326D01*
X78362487Y-94187500D01*
X84744353Y-94187500D01*
X84764834Y-94329956D01*
X84785329Y-94374832D01*
X84824623Y-94460873D01*
X84918872Y-94569643D01*
X84918875Y-94569644D01*
X84919213Y-94570035D01*
X84948238Y-94633591D01*
X84949500Y-94651238D01*
X84949500Y-94923760D01*
X84929815Y-94990799D01*
X84919213Y-95004962D01*
X84824625Y-95114122D01*
X84824622Y-95114128D01*
X84764834Y-95245043D01*
X84744353Y-95387500D01*
X84764834Y-95529956D01*
X84816462Y-95643004D01*
X84824623Y-95660873D01*
X84918872Y-95769643D01*
X85039947Y-95847453D01*
X85039950Y-95847454D01*
X85039949Y-95847454D01*
X85178036Y-95887999D01*
X85178038Y-95888000D01*
X85178039Y-95888000D01*
X85321962Y-95888000D01*
X85321962Y-95887999D01*
X85460053Y-95847453D01*
X85581128Y-95769643D01*
X85675377Y-95660873D01*
X85735165Y-95529957D01*
X85755647Y-95387500D01*
X85735165Y-95245043D01*
X85675377Y-95114127D01*
X85675375Y-95114125D01*
X85675374Y-95114122D01*
X85580787Y-95004962D01*
X85551762Y-94941406D01*
X85550500Y-94923760D01*
X85550500Y-94651238D01*
X85570185Y-94584199D01*
X85580787Y-94570035D01*
X85581124Y-94569644D01*
X85581128Y-94569643D01*
X85675377Y-94460873D01*
X85735165Y-94329957D01*
X85755647Y-94187500D01*
X87994353Y-94187500D01*
X88014834Y-94329956D01*
X88035329Y-94374832D01*
X88074623Y-94460873D01*
X88168872Y-94569643D01*
X88168875Y-94569644D01*
X88169213Y-94570035D01*
X88198238Y-94633591D01*
X88199500Y-94651238D01*
X88199500Y-94923760D01*
X88179815Y-94990799D01*
X88169213Y-95004962D01*
X88074625Y-95114122D01*
X88074622Y-95114128D01*
X88014834Y-95245043D01*
X87994353Y-95387500D01*
X88014834Y-95529956D01*
X88066462Y-95643004D01*
X88074623Y-95660873D01*
X88168872Y-95769643D01*
X88289947Y-95847453D01*
X88289950Y-95847454D01*
X88289949Y-95847454D01*
X88428036Y-95887999D01*
X88428038Y-95888000D01*
X88428039Y-95888000D01*
X88571962Y-95888000D01*
X88571962Y-95887999D01*
X88710053Y-95847453D01*
X88831128Y-95769643D01*
X88925377Y-95660873D01*
X88985165Y-95529957D01*
X89005647Y-95387500D01*
X88985165Y-95245043D01*
X88925377Y-95114127D01*
X88925375Y-95114125D01*
X88925374Y-95114122D01*
X88830787Y-95004962D01*
X88801762Y-94941406D01*
X88800500Y-94923760D01*
X88800500Y-94651238D01*
X88820185Y-94584199D01*
X88830787Y-94570035D01*
X88831124Y-94569644D01*
X88831128Y-94569643D01*
X88925377Y-94460873D01*
X88985165Y-94329957D01*
X89005647Y-94187500D01*
X88985165Y-94045043D01*
X88925377Y-93914127D01*
X88831128Y-93805357D01*
X88710053Y-93727547D01*
X88710051Y-93727546D01*
X88710049Y-93727545D01*
X88710050Y-93727545D01*
X88571963Y-93687000D01*
X88571961Y-93687000D01*
X88428039Y-93687000D01*
X88428036Y-93687000D01*
X88289949Y-93727545D01*
X88168873Y-93805356D01*
X88074623Y-93914126D01*
X88074622Y-93914128D01*
X88014834Y-94045043D01*
X87994353Y-94187500D01*
X85755647Y-94187500D01*
X85735165Y-94045043D01*
X85675377Y-93914127D01*
X85581128Y-93805357D01*
X85460053Y-93727547D01*
X85460051Y-93727546D01*
X85460049Y-93727545D01*
X85460050Y-93727545D01*
X85321963Y-93687000D01*
X85321961Y-93687000D01*
X85178039Y-93687000D01*
X85178036Y-93687000D01*
X85039949Y-93727545D01*
X84918873Y-93805356D01*
X84824623Y-93914126D01*
X84824622Y-93914128D01*
X84764834Y-94045043D01*
X84744353Y-94187500D01*
X78362487Y-94187500D01*
X78370711Y-94127589D01*
X78371040Y-94125355D01*
X78380031Y-94067755D01*
X78498325Y-93309937D01*
X78498742Y-93307431D01*
X78643177Y-92496316D01*
X78643636Y-92493887D01*
X78645187Y-92486096D01*
X78804465Y-91685989D01*
X78804916Y-91683835D01*
X78968432Y-90937500D01*
X84744353Y-90937500D01*
X84764834Y-91079956D01*
X84808685Y-91175975D01*
X84824623Y-91210873D01*
X84918872Y-91319643D01*
X84918875Y-91319644D01*
X84919213Y-91320035D01*
X84948238Y-91383591D01*
X84949500Y-91401238D01*
X84949500Y-91673760D01*
X84929815Y-91740799D01*
X84919213Y-91754962D01*
X84824625Y-91864122D01*
X84824622Y-91864128D01*
X84764834Y-91995043D01*
X84744353Y-92137500D01*
X84764834Y-92279956D01*
X84807980Y-92374430D01*
X84824623Y-92410873D01*
X84918872Y-92519643D01*
X85039947Y-92597453D01*
X85039950Y-92597454D01*
X85039949Y-92597454D01*
X85178036Y-92637999D01*
X85178038Y-92638000D01*
X85178039Y-92638000D01*
X85321962Y-92638000D01*
X85321962Y-92637999D01*
X85460053Y-92597453D01*
X85581128Y-92519643D01*
X85675377Y-92410873D01*
X85735165Y-92279957D01*
X85755647Y-92137500D01*
X85735165Y-91995043D01*
X85675377Y-91864127D01*
X85675375Y-91864125D01*
X85675374Y-91864122D01*
X85580787Y-91754962D01*
X85551762Y-91691406D01*
X85550500Y-91673760D01*
X85550500Y-91401238D01*
X85570185Y-91334199D01*
X85580787Y-91320035D01*
X85581124Y-91319644D01*
X85581128Y-91319643D01*
X85675377Y-91210873D01*
X85735165Y-91079957D01*
X85755647Y-90937500D01*
X87994353Y-90937500D01*
X88014834Y-91079956D01*
X88058685Y-91175975D01*
X88074623Y-91210873D01*
X88168872Y-91319643D01*
X88168875Y-91319644D01*
X88169213Y-91320035D01*
X88198238Y-91383591D01*
X88199500Y-91401238D01*
X88199500Y-91673760D01*
X88179815Y-91740799D01*
X88169213Y-91754962D01*
X88074625Y-91864122D01*
X88074622Y-91864128D01*
X88014834Y-91995043D01*
X87994353Y-92137500D01*
X88014834Y-92279956D01*
X88057980Y-92374430D01*
X88074623Y-92410873D01*
X88168872Y-92519643D01*
X88289947Y-92597453D01*
X88289950Y-92597454D01*
X88289949Y-92597454D01*
X88428036Y-92637999D01*
X88428038Y-92638000D01*
X88428039Y-92638000D01*
X88571962Y-92638000D01*
X88571962Y-92637999D01*
X88710053Y-92597453D01*
X88831128Y-92519643D01*
X88925377Y-92410873D01*
X88985165Y-92279957D01*
X89005647Y-92137500D01*
X88985165Y-91995043D01*
X88925377Y-91864127D01*
X88925375Y-91864125D01*
X88925374Y-91864122D01*
X88830787Y-91754962D01*
X88801762Y-91691406D01*
X88800500Y-91673760D01*
X88800500Y-91401238D01*
X88820185Y-91334199D01*
X88830787Y-91320035D01*
X88831124Y-91319644D01*
X88831128Y-91319643D01*
X88925377Y-91210873D01*
X88985165Y-91079957D01*
X89005647Y-90937500D01*
X88987745Y-90812987D01*
X91290565Y-90812987D01*
X91363014Y-90882423D01*
X91726573Y-91175975D01*
X92113698Y-91437626D01*
X92113717Y-91437638D01*
X92521636Y-91665516D01*
X92521658Y-91665527D01*
X92947434Y-91857990D01*
X92947440Y-91857992D01*
X93388026Y-92013661D01*
X93840220Y-92131402D01*
X94300768Y-92210371D01*
X94300776Y-92210372D01*
X94766344Y-92249999D01*
X94766364Y-92250000D01*
X95233636Y-92250000D01*
X95233655Y-92249999D01*
X95699223Y-92210372D01*
X95699231Y-92210371D01*
X96159779Y-92131402D01*
X96611973Y-92013661D01*
X97052559Y-91857992D01*
X97052565Y-91857990D01*
X97478341Y-91665527D01*
X97478363Y-91665516D01*
X97886282Y-91437638D01*
X97886301Y-91437626D01*
X98273433Y-91175971D01*
X98273434Y-91175970D01*
X98636976Y-90882430D01*
X98636992Y-90882416D01*
X98709433Y-90812986D01*
X95000000Y-87103553D01*
X91290565Y-90812987D01*
X88987745Y-90812987D01*
X88985165Y-90795043D01*
X88925377Y-90664127D01*
X88831128Y-90555357D01*
X88710053Y-90477547D01*
X88710051Y-90477546D01*
X88710049Y-90477545D01*
X88710050Y-90477545D01*
X88571963Y-90437000D01*
X88571961Y-90437000D01*
X88428039Y-90437000D01*
X88428036Y-90437000D01*
X88289949Y-90477545D01*
X88168873Y-90555356D01*
X88074623Y-90664126D01*
X88074622Y-90664128D01*
X88014834Y-90795043D01*
X87994353Y-90937500D01*
X85755647Y-90937500D01*
X85735165Y-90795043D01*
X85675377Y-90664127D01*
X85581128Y-90555357D01*
X85460053Y-90477547D01*
X85460051Y-90477546D01*
X85460049Y-90477545D01*
X85460050Y-90477545D01*
X85321963Y-90437000D01*
X85321961Y-90437000D01*
X85178039Y-90437000D01*
X85178036Y-90437000D01*
X85039949Y-90477545D01*
X84918873Y-90555356D01*
X84824623Y-90664126D01*
X84824622Y-90664128D01*
X84764834Y-90795043D01*
X84744353Y-90937500D01*
X78968432Y-90937500D01*
X78981223Y-90879120D01*
X78981713Y-90876981D01*
X79172548Y-90075549D01*
X79173017Y-90073647D01*
X79377480Y-89275397D01*
X79377978Y-89273517D01*
X79378018Y-89273373D01*
X79473171Y-88925000D01*
X84744353Y-88925000D01*
X84764834Y-89067456D01*
X84824622Y-89198371D01*
X84824623Y-89198373D01*
X84918872Y-89307143D01*
X85039947Y-89384953D01*
X85039950Y-89384954D01*
X85039949Y-89384954D01*
X85178036Y-89425499D01*
X85178038Y-89425500D01*
X85178039Y-89425500D01*
X85321962Y-89425500D01*
X85321962Y-89425499D01*
X85460053Y-89384953D01*
X85581128Y-89307143D01*
X85675377Y-89198373D01*
X85735165Y-89067457D01*
X85744864Y-89000000D01*
X87994353Y-89000000D01*
X88014834Y-89142456D01*
X88040370Y-89198371D01*
X88074623Y-89273373D01*
X88168872Y-89382143D01*
X88289947Y-89459953D01*
X88289950Y-89459954D01*
X88289949Y-89459954D01*
X88428036Y-89500499D01*
X88428038Y-89500500D01*
X88428039Y-89500500D01*
X88571962Y-89500500D01*
X88571962Y-89500499D01*
X88710053Y-89459953D01*
X88831128Y-89382143D01*
X88925377Y-89273373D01*
X88985165Y-89142457D01*
X89005647Y-89000000D01*
X88985165Y-88857543D01*
X88925377Y-88726627D01*
X88864962Y-88656903D01*
X88835938Y-88593347D01*
X88834676Y-88575701D01*
X88834676Y-88188738D01*
X88854361Y-88121699D01*
X88864963Y-88107535D01*
X88865300Y-88107144D01*
X88865304Y-88107143D01*
X88959553Y-87998373D01*
X89019341Y-87867457D01*
X89039823Y-87725000D01*
X89019341Y-87582543D01*
X88959553Y-87451627D01*
X88865304Y-87342857D01*
X88744229Y-87265047D01*
X88744227Y-87265046D01*
X88744225Y-87265045D01*
X88744226Y-87265045D01*
X88606139Y-87224500D01*
X88606137Y-87224500D01*
X88462215Y-87224500D01*
X88462212Y-87224500D01*
X88324125Y-87265045D01*
X88203049Y-87342856D01*
X88108799Y-87451626D01*
X88108798Y-87451628D01*
X88049010Y-87582543D01*
X88028529Y-87725000D01*
X88049010Y-87867456D01*
X88074456Y-87923173D01*
X88108799Y-87998373D01*
X88203048Y-88107143D01*
X88203051Y-88107144D01*
X88203389Y-88107535D01*
X88232414Y-88171091D01*
X88233676Y-88188738D01*
X88233676Y-88508500D01*
X88213991Y-88575539D01*
X88176719Y-88612813D01*
X88168875Y-88617853D01*
X88168874Y-88617855D01*
X88074623Y-88726626D01*
X88074622Y-88726628D01*
X88014834Y-88857543D01*
X87994353Y-89000000D01*
X85744864Y-89000000D01*
X85755647Y-88925000D01*
X85735165Y-88782543D01*
X85675377Y-88651627D01*
X85634845Y-88604850D01*
X85605821Y-88541296D01*
X85604559Y-88523649D01*
X85604559Y-88188738D01*
X85624244Y-88121699D01*
X85634846Y-88107535D01*
X85635183Y-88107144D01*
X85635187Y-88107143D01*
X85729436Y-87998373D01*
X85789224Y-87867457D01*
X85809706Y-87725000D01*
X85789224Y-87582543D01*
X85729436Y-87451627D01*
X85635187Y-87342857D01*
X85514112Y-87265047D01*
X85514110Y-87265046D01*
X85514108Y-87265045D01*
X85514109Y-87265045D01*
X85376022Y-87224500D01*
X85376020Y-87224500D01*
X85232098Y-87224500D01*
X85232095Y-87224500D01*
X85094008Y-87265045D01*
X84972932Y-87342856D01*
X84878682Y-87451626D01*
X84878681Y-87451628D01*
X84818893Y-87582543D01*
X84798412Y-87725000D01*
X84818893Y-87867456D01*
X84844339Y-87923173D01*
X84878682Y-87998373D01*
X84972931Y-88107143D01*
X84972934Y-88107144D01*
X84973272Y-88107535D01*
X85002297Y-88171091D01*
X85003559Y-88188738D01*
X85003559Y-88420723D01*
X84983874Y-88487762D01*
X84946599Y-88525037D01*
X84941525Y-88528299D01*
X84918873Y-88542856D01*
X84824623Y-88651626D01*
X84824622Y-88651628D01*
X84764834Y-88782543D01*
X84744353Y-88925000D01*
X79473171Y-88925000D01*
X79595038Y-88478826D01*
X79595528Y-88477083D01*
X79598311Y-88467456D01*
X79824665Y-87684496D01*
X79825008Y-87683336D01*
X79825907Y-87680344D01*
X79961152Y-87230129D01*
X79961376Y-87229394D01*
X80030452Y-87006239D01*
X80030753Y-87005285D01*
X80101375Y-86783921D01*
X80101593Y-86783243D01*
X80112458Y-86749993D01*
X89495040Y-86749993D01*
X89495040Y-86750006D01*
X89514870Y-87216840D01*
X89574224Y-87680344D01*
X89672669Y-88137129D01*
X89672671Y-88137137D01*
X89809497Y-88583923D01*
X89809502Y-88583936D01*
X89983719Y-89017489D01*
X89983723Y-89017500D01*
X90194083Y-89434723D01*
X90194093Y-89434743D01*
X90439091Y-89832643D01*
X90716947Y-90208330D01*
X90716953Y-90208338D01*
X90937508Y-90458936D01*
X90937509Y-90458936D01*
X94646446Y-86750000D01*
X90937509Y-83041063D01*
X90716947Y-83291669D01*
X90716944Y-83291673D01*
X90439091Y-83667356D01*
X90194093Y-84065256D01*
X90194083Y-84065276D01*
X89983723Y-84482499D01*
X89983719Y-84482510D01*
X89809502Y-84916063D01*
X89809497Y-84916076D01*
X89672671Y-85362862D01*
X89672669Y-85362870D01*
X89574224Y-85819655D01*
X89514870Y-86283159D01*
X89495040Y-86749993D01*
X80112458Y-86749993D01*
X80268987Y-86270981D01*
X80269200Y-86270337D01*
X80441472Y-85758044D01*
X80442063Y-85756333D01*
X80622320Y-85247026D01*
X80622929Y-85245348D01*
X80715905Y-84995720D01*
X80716381Y-84994470D01*
X80812827Y-84745751D01*
X80813424Y-84744242D01*
X80891543Y-84551272D01*
X80892101Y-84549921D01*
X80972543Y-84358700D01*
X80973259Y-84357034D01*
X81143225Y-83970174D01*
X81143952Y-83968551D01*
X81501395Y-83187880D01*
X81734064Y-82687012D01*
X91290565Y-82687012D01*
X94999999Y-86396446D01*
X98709433Y-82687011D01*
X98636985Y-82617576D01*
X98325528Y-82366093D01*
X98294319Y-82321051D01*
X98249708Y-82307952D01*
X98247310Y-82306372D01*
X97886301Y-82062373D01*
X97886282Y-82062361D01*
X97478363Y-81834483D01*
X97478341Y-81834472D01*
X97052565Y-81642009D01*
X97052559Y-81642007D01*
X96611973Y-81486338D01*
X96159779Y-81368597D01*
X95699231Y-81289628D01*
X95699223Y-81289627D01*
X95233655Y-81250000D01*
X94766344Y-81250000D01*
X94300776Y-81289627D01*
X94300768Y-81289628D01*
X93840220Y-81368597D01*
X93388026Y-81486338D01*
X92947440Y-81642007D01*
X92947434Y-81642009D01*
X92521658Y-81834472D01*
X92521636Y-81834483D01*
X92113717Y-82062361D01*
X92113698Y-82062373D01*
X91726566Y-82324028D01*
X91726565Y-82324029D01*
X91363024Y-82617568D01*
X91363008Y-82617582D01*
X91290565Y-82687012D01*
X81734064Y-82687012D01*
X81813223Y-82516605D01*
X81813720Y-82515553D01*
X82134772Y-81844859D01*
X82135574Y-81843216D01*
X82465652Y-81180979D01*
X82466413Y-81179480D01*
X82633012Y-80857458D01*
X82633554Y-80856424D01*
X82802628Y-80538926D01*
X82803154Y-80537953D01*
X83029828Y-80123458D01*
X83030206Y-80122776D01*
X83261355Y-79710126D01*
X83261905Y-79709157D01*
X83497431Y-79299716D01*
X83498208Y-79298386D01*
X83513279Y-79272936D01*
X83738670Y-78892324D01*
X83739398Y-78891113D01*
X83985379Y-78488566D01*
X83986206Y-78487233D01*
X84238220Y-78088451D01*
X84239177Y-78086965D01*
X84497536Y-77692518D01*
X84498627Y-77690884D01*
X84763424Y-77301626D01*
X84764832Y-77299602D01*
X84840648Y-77193109D01*
X84842161Y-77191032D01*
X84920550Y-77085721D01*
X84922178Y-77083583D01*
X85095069Y-76861848D01*
X85095911Y-76860783D01*
X85414833Y-76462697D01*
X85423824Y-76452649D01*
X85427757Y-76448706D01*
X85427762Y-76448703D01*
X85463617Y-76401852D01*
X85465257Y-76399757D01*
X85502159Y-76353698D01*
X85502163Y-76353687D01*
X85505060Y-76348906D01*
X85512652Y-76337781D01*
X85600835Y-76222561D01*
X85610038Y-76213096D01*
X85609448Y-76212538D01*
X85615028Y-76206632D01*
X85615033Y-76206629D01*
X85648768Y-76160001D01*
X85650685Y-76157425D01*
X85685669Y-76111717D01*
X85685670Y-76111714D01*
X85689409Y-76105219D01*
X85704740Y-76084092D01*
X85708498Y-76079917D01*
X85708503Y-76079914D01*
X85741610Y-76031741D01*
X85743217Y-76029463D01*
X85777470Y-75982124D01*
X85777474Y-75982112D01*
X85779990Y-75977457D01*
X85796058Y-75957045D01*
X85794769Y-75955950D01*
X85800023Y-75949761D01*
X85800026Y-75949759D01*
X85800028Y-75949756D01*
X85830837Y-75902010D01*
X85832799Y-75899063D01*
X85865003Y-75852209D01*
X85865005Y-75852202D01*
X85868695Y-75844962D01*
X85870982Y-75846127D01*
X85885493Y-75823486D01*
X85883777Y-75822127D01*
X85888824Y-75815754D01*
X85888825Y-75815751D01*
X85888827Y-75815750D01*
X85917191Y-75768318D01*
X85919419Y-75764734D01*
X85949367Y-75718325D01*
X85949369Y-75718318D01*
X85952847Y-75710974D01*
X85953290Y-75711184D01*
X85959302Y-75697899D01*
X85960118Y-75696535D01*
X85969518Y-75684181D01*
X85969297Y-75684020D01*
X85974084Y-75677461D01*
X85974092Y-75677454D01*
X85999825Y-75630321D01*
X86002195Y-75626175D01*
X86029748Y-75580104D01*
X86029750Y-75580094D01*
X86032973Y-75572643D01*
X86033225Y-75572752D01*
X86039114Y-75558362D01*
X86041057Y-75554802D01*
X86050497Y-75541255D01*
X86050443Y-75541219D01*
X86054938Y-75534451D01*
X86054937Y-75534451D01*
X86054939Y-75534450D01*
X86077832Y-75487699D01*
X86080319Y-75482893D01*
X86105288Y-75437164D01*
X86105290Y-75437153D01*
X86108219Y-75429580D01*
X86108280Y-75429603D01*
X86113892Y-75414062D01*
X86115129Y-75411536D01*
X86123305Y-75398716D01*
X86123005Y-75398533D01*
X86127242Y-75391605D01*
X86127245Y-75391602D01*
X86149270Y-75342017D01*
X86151228Y-75337823D01*
X86156534Y-75326987D01*
X86160489Y-75319561D01*
X86162320Y-75316384D01*
X86162329Y-75316374D01*
X86164092Y-75312112D01*
X86167298Y-75305007D01*
X86175063Y-75289153D01*
X86175063Y-75289148D01*
X86177654Y-75281449D01*
X86177928Y-75281541D01*
X86181113Y-75270982D01*
X86181310Y-75270506D01*
X86184484Y-75262835D01*
X86185692Y-75260018D01*
X86187562Y-75255810D01*
X86192032Y-75246760D01*
X86194713Y-75241844D01*
X86194718Y-75241839D01*
X86199948Y-75228295D01*
X86202265Y-75222710D01*
X86209216Y-75207063D01*
X86209217Y-75207053D01*
X86211243Y-75200192D01*
X86214494Y-75190632D01*
X86215802Y-75187244D01*
X86216856Y-75184610D01*
X86218013Y-75181816D01*
X86222462Y-75172246D01*
X86224622Y-75168070D01*
X86224627Y-75168065D01*
X86230019Y-75153139D01*
X86232040Y-75147920D01*
X86239229Y-75130552D01*
X86239230Y-75130541D01*
X86240852Y-75124483D01*
X86244015Y-75114403D01*
X86244702Y-75112501D01*
X86245621Y-75110037D01*
X86246325Y-75108214D01*
X86251180Y-75098775D01*
X86250646Y-75098518D01*
X86254173Y-75091201D01*
X86254172Y-75091201D01*
X86254175Y-75091198D01*
X86260616Y-75071648D01*
X86262702Y-75065814D01*
X86266928Y-75054874D01*
X86266928Y-75054866D01*
X86267927Y-75050747D01*
X86270661Y-75041161D01*
X86272032Y-75036998D01*
X86273145Y-75033775D01*
X86292544Y-74980089D01*
X86292544Y-74980080D01*
X86293212Y-74977037D01*
X86301072Y-74953112D01*
X86302806Y-74949218D01*
X86302810Y-74949213D01*
X86318877Y-74895004D01*
X86319963Y-74891535D01*
X86337654Y-74837848D01*
X86337654Y-74837845D01*
X86338368Y-74834080D01*
X86345723Y-74809515D01*
X86345831Y-74809252D01*
X86345838Y-74809241D01*
X86361001Y-74753020D01*
X86361790Y-74750228D01*
X86378356Y-74694347D01*
X86378356Y-74694343D01*
X86378357Y-74694340D01*
X86379504Y-74687106D01*
X86382249Y-74674241D01*
X86501764Y-74231139D01*
X86502555Y-74228343D01*
X86508415Y-74208501D01*
X86570477Y-73998334D01*
X86571180Y-73996042D01*
X86575351Y-73982875D01*
X86643668Y-73767197D01*
X86644458Y-73764792D01*
X86721346Y-73538584D01*
X86722210Y-73536129D01*
X86803774Y-73312543D01*
X86804765Y-73309923D01*
X86891303Y-73088878D01*
X86892393Y-73086192D01*
X86984150Y-72867738D01*
X86985381Y-72864909D01*
X87082638Y-72649000D01*
X87084011Y-72646060D01*
X87188144Y-72430386D01*
X87189189Y-72428272D01*
X87273118Y-72262960D01*
X87273870Y-72261507D01*
X87293482Y-72224254D01*
X87360416Y-72097113D01*
X87361353Y-72095371D01*
X87449738Y-71934488D01*
X87450911Y-71932404D01*
X87541616Y-71775127D01*
X87543027Y-71772745D01*
X87636450Y-71619280D01*
X87638137Y-71616591D01*
X87734737Y-71467018D01*
X87736693Y-71464088D01*
X87836830Y-71318624D01*
X87839080Y-71315465D01*
X87943533Y-71173719D01*
X87945980Y-71170511D01*
X87967918Y-71142736D01*
X87969993Y-71140182D01*
X87994936Y-71110329D01*
X87997044Y-71107875D01*
X88040714Y-71058331D01*
X88064833Y-71030967D01*
X88065787Y-71029899D01*
X88092809Y-71000054D01*
X88101006Y-70992031D01*
X88104739Y-70987819D01*
X88143688Y-70943869D01*
X88144305Y-70943180D01*
X88180611Y-70903082D01*
X88189149Y-70894532D01*
X88189621Y-70894102D01*
X88189632Y-70894095D01*
X88222870Y-70854822D01*
X88232020Y-70845124D01*
X88236638Y-70840726D01*
X88236644Y-70840723D01*
X88250557Y-70823483D01*
X88254257Y-70819108D01*
X88256968Y-70816049D01*
X88268445Y-70803100D01*
X88268446Y-70803097D01*
X88270741Y-70800508D01*
X88282248Y-70786484D01*
X88284507Y-70784199D01*
X88284516Y-70784193D01*
X88298651Y-70765560D01*
X88302760Y-70760433D01*
X88313142Y-70748169D01*
X88313145Y-70748161D01*
X88313595Y-70747463D01*
X88317119Y-70743470D01*
X88318400Y-70741957D01*
X88318431Y-70741983D01*
X88328175Y-70730943D01*
X88327240Y-70730084D01*
X88332737Y-70724098D01*
X88332736Y-70724098D01*
X88332741Y-70724095D01*
X88343536Y-70708712D01*
X88348517Y-70702100D01*
X88356474Y-70692243D01*
X88356477Y-70692235D01*
X88360713Y-70685300D01*
X88362537Y-70686414D01*
X88376538Y-70666915D01*
X88375574Y-70666106D01*
X88380794Y-70659885D01*
X88380800Y-70659880D01*
X88388429Y-70647906D01*
X88394192Y-70639628D01*
X88399500Y-70632633D01*
X88399503Y-70632624D01*
X88403530Y-70625563D01*
X88403623Y-70625616D01*
X88407873Y-70617391D01*
X88408733Y-70616042D01*
X88411773Y-70611498D01*
X88415740Y-70605846D01*
X88426911Y-70592428D01*
X88427996Y-70590988D01*
X88427998Y-70590983D01*
X88428003Y-70590979D01*
X88432588Y-70582866D01*
X88439030Y-70572665D01*
X88441634Y-70568958D01*
X88441637Y-70568948D01*
X88444696Y-70563089D01*
X88448819Y-70554152D01*
X88452323Y-70547954D01*
X88455665Y-70542391D01*
X88462875Y-70531076D01*
X88473270Y-70517145D01*
X88473542Y-70516735D01*
X88473541Y-70516735D01*
X88473544Y-70516733D01*
X88475365Y-70512988D01*
X88482178Y-70500813D01*
X88484250Y-70496371D01*
X88487860Y-70487312D01*
X88488645Y-70485699D01*
X88493964Y-70474768D01*
X88497506Y-70468027D01*
X88498374Y-70466493D01*
X88503578Y-70457286D01*
X88509263Y-70448771D01*
X88511607Y-70444788D01*
X88511609Y-70444786D01*
X88511745Y-70444463D01*
X88517976Y-70431816D01*
X88520462Y-70427419D01*
X88523504Y-70419883D01*
X88524296Y-70420202D01*
X88529420Y-70407111D01*
X88531630Y-70403007D01*
X88531634Y-70403002D01*
X88539456Y-70382416D01*
X88543860Y-70372229D01*
X88549354Y-70360941D01*
X88553120Y-70354212D01*
X88554443Y-70351379D01*
X88555388Y-70348541D01*
X88555392Y-70348535D01*
X88555393Y-70348527D01*
X88556986Y-70343750D01*
X88557687Y-70340976D01*
X88561957Y-70327446D01*
X88566036Y-70316388D01*
X88566743Y-70314722D01*
X88572622Y-70300852D01*
X88576913Y-70291876D01*
X88577054Y-70291498D01*
X88577057Y-70291494D01*
X88579983Y-70278932D01*
X88584842Y-70263004D01*
X88584935Y-70262758D01*
X88588117Y-70254388D01*
X88588117Y-70254380D01*
X88589828Y-70247152D01*
X88592833Y-70238175D01*
X88592720Y-70238142D01*
X88594983Y-70230347D01*
X88594988Y-70230338D01*
X88595788Y-70225104D01*
X88600108Y-70206552D01*
X88601691Y-70201537D01*
X88601691Y-70201526D01*
X88603105Y-70193529D01*
X88603456Y-70193591D01*
X88606673Y-70176927D01*
X88606329Y-70176855D01*
X88607993Y-70168911D01*
X88607996Y-70168904D01*
X88608423Y-70163261D01*
X88611305Y-70144493D01*
X88612614Y-70138876D01*
X88612614Y-70138873D01*
X88613409Y-70130792D01*
X88613921Y-70130842D01*
X88615636Y-70116008D01*
X88615079Y-70115934D01*
X88616148Y-70107880D01*
X88616147Y-70107880D01*
X88616149Y-70107877D01*
X88616156Y-70101323D01*
X88617585Y-70082695D01*
X88618618Y-70075949D01*
X88618617Y-70075941D01*
X88618788Y-70067823D01*
X88619594Y-70067839D01*
X88620071Y-70056097D01*
X88619174Y-70056044D01*
X88619661Y-70047931D01*
X88619660Y-70047930D01*
X88619662Y-70047925D01*
X88619100Y-70040005D01*
X88619145Y-70021852D01*
X88619776Y-70013533D01*
X88619328Y-70005418D01*
X88620568Y-70005349D01*
X88620330Y-69997800D01*
X88618951Y-69997812D01*
X88618881Y-69989683D01*
X88617523Y-69980004D01*
X88616319Y-69962621D01*
X88616332Y-69952295D01*
X88616331Y-69952290D01*
X88615281Y-69944238D01*
X88615724Y-69944180D01*
X88614510Y-69937058D01*
X88614246Y-69933479D01*
X88614247Y-69933468D01*
X88611825Y-69921789D01*
X88609554Y-69905385D01*
X88608666Y-69892849D01*
X88608665Y-69892846D01*
X88608665Y-69892844D01*
X88607605Y-69887659D01*
X88606269Y-69879786D01*
X88606244Y-69879694D01*
X88606244Y-69879689D01*
X88602501Y-69865911D01*
X88599373Y-69850660D01*
X88597280Y-69835736D01*
X88597279Y-69835734D01*
X88597279Y-69835731D01*
X88596903Y-69834374D01*
X88595866Y-69829959D01*
X88595355Y-69828426D01*
X88595355Y-69828425D01*
X88590042Y-69812491D01*
X88586261Y-69798455D01*
X88582680Y-69781179D01*
X88582678Y-69781176D01*
X88582669Y-69781129D01*
X88582549Y-69780805D01*
X88581810Y-69778686D01*
X88580212Y-69775109D01*
X88574988Y-69761809D01*
X88570745Y-69748990D01*
X88568654Y-69741291D01*
X88567733Y-69737027D01*
X88566737Y-69733708D01*
X88566737Y-69733705D01*
X88566735Y-69733701D01*
X88565694Y-69730230D01*
X88565546Y-69729713D01*
X88565147Y-69728760D01*
X88560099Y-69718936D01*
X88559220Y-69716980D01*
X88557797Y-69713814D01*
X88553281Y-69702249D01*
X88553043Y-69701536D01*
X88550528Y-69692205D01*
X88547641Y-69683931D01*
X88547373Y-69683286D01*
X88546053Y-69680572D01*
X88546052Y-69680569D01*
X88546050Y-69680566D01*
X88542495Y-69673257D01*
X88543079Y-69672972D01*
X88535630Y-69656033D01*
X88534543Y-69656462D01*
X88530875Y-69647167D01*
X88525437Y-69635632D01*
X88524990Y-69634493D01*
X88524987Y-69634489D01*
X88524986Y-69634486D01*
X88521058Y-69627382D01*
X88521799Y-69626971D01*
X88512890Y-69609308D01*
X88512230Y-69609611D01*
X88508594Y-69601666D01*
X88504872Y-69594708D01*
X88502649Y-69591109D01*
X88502648Y-69591106D01*
X88502645Y-69591102D01*
X88501490Y-69589232D01*
X88495199Y-69580453D01*
X88495073Y-69580252D01*
X88489416Y-69570211D01*
X88486461Y-69564344D01*
X88479366Y-69550254D01*
X88479365Y-69550252D01*
X88477466Y-69547461D01*
X88470538Y-69535991D01*
X88468370Y-69531921D01*
X88468369Y-69531920D01*
X88468368Y-69531916D01*
X88464596Y-69526636D01*
X88457093Y-69514760D01*
X88455430Y-69511764D01*
X88455426Y-69511760D01*
X88454497Y-69510506D01*
X88444498Y-69498500D01*
X88440981Y-69493576D01*
X88436844Y-69487400D01*
X88434191Y-69483169D01*
X88428007Y-69471392D01*
X88426303Y-69468537D01*
X88426303Y-69468536D01*
X88424252Y-69465941D01*
X88416487Y-69454938D01*
X88411816Y-69447488D01*
X88410667Y-69446420D01*
X88397828Y-69432511D01*
X88396569Y-69430918D01*
X88388416Y-69417834D01*
X88388160Y-69418001D01*
X88383733Y-69411192D01*
X88383732Y-69411191D01*
X88383731Y-69411188D01*
X88377501Y-69403901D01*
X88370856Y-69395404D01*
X88361761Y-69382671D01*
X88356213Y-69376730D01*
X88356793Y-69376188D01*
X88342744Y-69360923D01*
X88341570Y-69359228D01*
X88341568Y-69359226D01*
X88341568Y-69359225D01*
X88331402Y-69348016D01*
X88325997Y-69341634D01*
X88312276Y-69324276D01*
X88312271Y-69324272D01*
X88310019Y-69322084D01*
X88299858Y-69310452D01*
X88289273Y-69299476D01*
X88282637Y-69292594D01*
X88277651Y-69287102D01*
X88264188Y-69271352D01*
X88258146Y-69265917D01*
X88258611Y-69265399D01*
X88248314Y-69256408D01*
X88218212Y-69223218D01*
X88212015Y-69217965D01*
X88212430Y-69217475D01*
X88201687Y-69208646D01*
X88200793Y-69207719D01*
X88119643Y-69123563D01*
X88118879Y-69122762D01*
X87952841Y-68947057D01*
X87951863Y-68946011D01*
X87918975Y-68910379D01*
X87790018Y-68770663D01*
X87788818Y-68769342D01*
X87631966Y-68593994D01*
X87630379Y-68592184D01*
X87478899Y-68416073D01*
X87477050Y-68413873D01*
X87331221Y-68236163D01*
X87329149Y-68233569D01*
X87187615Y-68051354D01*
X87186004Y-68049230D01*
X87119587Y-67959684D01*
X87118423Y-67958089D01*
X87097763Y-67929287D01*
X87052161Y-67865712D01*
X87051108Y-67864219D01*
X86986374Y-67770719D01*
X86985204Y-67768997D01*
X86978450Y-67758869D01*
X86923405Y-67676328D01*
X86921711Y-67673715D01*
X86776257Y-67443017D01*
X86774118Y-67439496D01*
X86732224Y-67367856D01*
X86639040Y-67208507D01*
X86637019Y-67204913D01*
X86599476Y-67135496D01*
X86510858Y-66971640D01*
X86508958Y-66967984D01*
X86391385Y-66732169D01*
X86389618Y-66728473D01*
X86340023Y-66620183D01*
X86280467Y-66490145D01*
X86278846Y-66486445D01*
X86276264Y-66480283D01*
X86177922Y-66245556D01*
X86176435Y-66241840D01*
X86175908Y-66240458D01*
X86083468Y-65998156D01*
X86082154Y-65994539D01*
X85997008Y-65748109D01*
X85995829Y-65744518D01*
X85918294Y-65495209D01*
X85917235Y-65491608D01*
X85847167Y-65239450D01*
X85846233Y-65235885D01*
X85842400Y-65220311D01*
X85807416Y-65078159D01*
X86335581Y-65078159D01*
X86356041Y-65220473D01*
X86356042Y-65220478D01*
X86415768Y-65351256D01*
X86415769Y-65351258D01*
X86453347Y-65397889D01*
X86453353Y-65397896D01*
X86522525Y-65467068D01*
X87318020Y-64671573D01*
X86929111Y-64282664D01*
X86929110Y-64282664D01*
X86453353Y-64758422D01*
X86453347Y-64758429D01*
X86415769Y-64805060D01*
X86415768Y-64805062D01*
X86356042Y-64935840D01*
X86356041Y-64935845D01*
X86335581Y-65078159D01*
X85807416Y-65078159D01*
X85783439Y-64980735D01*
X85782648Y-64977308D01*
X85726952Y-64719052D01*
X85726284Y-64715732D01*
X85677554Y-64454441D01*
X85676987Y-64451151D01*
X85635057Y-64186733D01*
X85634604Y-64183608D01*
X85601045Y-63929110D01*
X87282664Y-63929110D01*
X87282664Y-63929111D01*
X87671573Y-64318020D01*
X88467068Y-63522525D01*
X88397896Y-63453353D01*
X88397889Y-63453347D01*
X88351258Y-63415769D01*
X88351256Y-63415768D01*
X88220478Y-63356042D01*
X88220473Y-63356041D01*
X88078159Y-63335581D01*
X87935845Y-63356041D01*
X87935840Y-63356042D01*
X87805062Y-63415768D01*
X87805060Y-63415769D01*
X87758429Y-63453347D01*
X87758422Y-63453353D01*
X87282664Y-63929110D01*
X85601045Y-63929110D01*
X85599313Y-63915972D01*
X85598949Y-63912908D01*
X85570540Y-63645700D01*
X85570159Y-63641385D01*
X85559618Y-63491821D01*
X85559347Y-63486048D01*
X85559250Y-63481922D01*
X85555856Y-63338274D01*
X85555856Y-63332425D01*
X85555928Y-63329407D01*
X85559374Y-63184045D01*
X85559658Y-63178116D01*
X85570350Y-63030060D01*
X85570941Y-63023981D01*
X85588912Y-62877316D01*
X85589842Y-62871074D01*
X85615146Y-62726815D01*
X85616476Y-62720279D01*
X85620142Y-62704453D01*
X85649111Y-62579375D01*
X85650885Y-62572598D01*
X85656395Y-62553736D01*
X85690825Y-62435875D01*
X85693091Y-62428899D01*
X85740256Y-62297170D01*
X85743093Y-62289965D01*
X85797378Y-62163950D01*
X85800882Y-62156511D01*
X85804069Y-62150287D01*
X85862118Y-62036916D01*
X85866351Y-62029321D01*
X85880859Y-62005307D01*
X85934468Y-61916566D01*
X85939492Y-61908905D01*
X86014444Y-61803334D01*
X86020308Y-61795719D01*
X86101532Y-61698299D01*
X86102184Y-61697516D01*
X86108908Y-61690086D01*
X86151937Y-61646232D01*
X86176619Y-61621076D01*
X86197922Y-61599364D01*
X86205483Y-61592276D01*
X86307580Y-61504309D01*
X86313632Y-61499419D01*
X86319100Y-61495277D01*
X86375246Y-61452743D01*
X86379213Y-61449863D01*
X86447586Y-61402331D01*
X86451630Y-61399640D01*
X86521270Y-61355290D01*
X86525373Y-61352790D01*
X86596508Y-61311366D01*
X86600683Y-61309043D01*
X86673388Y-61270411D01*
X86677537Y-61268307D01*
X86752002Y-61232287D01*
X86756104Y-61230395D01*
X86832393Y-61196889D01*
X86836420Y-61195205D01*
X86865323Y-61183711D01*
X86914758Y-61164054D01*
X86918621Y-61162593D01*
X86999040Y-61133732D01*
X87002780Y-61132458D01*
X87085433Y-61105784D01*
X87088965Y-61104704D01*
X87173750Y-61080195D01*
X87177137Y-61079268D01*
X87264247Y-61056811D01*
X87267441Y-61056035D01*
X87356719Y-61035610D01*
X87359788Y-61034949D01*
X87451408Y-61016452D01*
X87454273Y-61015909D01*
X87548198Y-60999282D01*
X87550830Y-60998846D01*
X87636725Y-60985607D01*
X87643312Y-60984773D01*
X87991124Y-60950228D01*
X88001396Y-60949637D01*
X88344122Y-60944219D01*
X88353753Y-60944441D01*
X88701079Y-60966010D01*
X88709984Y-60966888D01*
X89060707Y-61014334D01*
X89068922Y-61015729D01*
X89118459Y-61025858D01*
X89421569Y-61087837D01*
X89429071Y-61089617D01*
X89782167Y-61185093D01*
X89789019Y-61187160D01*
X90090763Y-61287840D01*
X90140856Y-61304554D01*
X90147151Y-61306845D01*
X90496018Y-61444598D01*
X90501777Y-61447042D01*
X90840249Y-61600905D01*
X90846002Y-61603520D01*
X90851317Y-61606090D01*
X91148183Y-61758507D01*
X91189218Y-61779575D01*
X91194145Y-61782248D01*
X91523970Y-61970906D01*
X91528528Y-61973646D01*
X91841303Y-62171004D01*
X91848617Y-62175619D01*
X91852943Y-62178476D01*
X92161670Y-62391866D01*
X92165783Y-62394835D01*
X92440700Y-62601991D01*
X92461418Y-62617602D01*
X92465367Y-62620705D01*
X92719168Y-62828602D01*
X92746395Y-62850904D01*
X92750230Y-62854178D01*
X92769825Y-62871609D01*
X93017237Y-63091689D01*
X93020120Y-63094336D01*
X93084062Y-63154935D01*
X93085868Y-63156682D01*
X93151378Y-63221408D01*
X93153050Y-63223092D01*
X93163062Y-63233370D01*
X93218250Y-63290027D01*
X93219686Y-63291528D01*
X93260907Y-63335354D01*
X93282878Y-63358713D01*
X93284804Y-63360808D01*
X93415259Y-63506044D01*
X93417277Y-63508348D01*
X93523537Y-63632817D01*
X93545021Y-63657982D01*
X93546522Y-63659775D01*
X93673965Y-63814888D01*
X93674951Y-63816103D01*
X93802512Y-63975416D01*
X93803017Y-63976050D01*
X94057848Y-64298612D01*
X94058913Y-64299981D01*
X94072744Y-64318020D01*
X94074307Y-64320059D01*
X94076179Y-64322566D01*
X94091079Y-64343051D01*
X94092496Y-64345041D01*
X94136366Y-64408003D01*
X94141739Y-64415760D01*
X94143550Y-64418375D01*
X94150558Y-64429760D01*
X94153499Y-64435171D01*
X94188039Y-64482665D01*
X94189692Y-64484994D01*
X94205275Y-64507493D01*
X94210235Y-64515254D01*
X94213963Y-64521596D01*
X94237255Y-64551461D01*
X94244639Y-64563572D01*
X94245126Y-64563265D01*
X94249469Y-64570138D01*
X94264091Y-64587696D01*
X94269091Y-64594117D01*
X94287442Y-64619350D01*
X94288525Y-64620549D01*
X94288528Y-64620554D01*
X94304638Y-64638386D01*
X94310366Y-64645206D01*
X94322092Y-64660240D01*
X94322095Y-64660242D01*
X94326574Y-64665985D01*
X94329022Y-64668758D01*
X94331923Y-64672547D01*
X94345067Y-64685716D01*
X94352583Y-64693956D01*
X94361644Y-64704836D01*
X94364015Y-64707025D01*
X94375016Y-64719976D01*
X94375401Y-64719643D01*
X94380720Y-64725781D01*
X94390137Y-64734139D01*
X94399835Y-64743752D01*
X94405518Y-64750042D01*
X94411707Y-64755309D01*
X94411214Y-64755888D01*
X94434236Y-64777102D01*
X94436204Y-64779658D01*
X94436208Y-64779662D01*
X94436212Y-64779667D01*
X94436216Y-64779670D01*
X94440737Y-64783129D01*
X94453163Y-64794021D01*
X94454523Y-64795383D01*
X94454527Y-64795387D01*
X94456799Y-64796701D01*
X94470038Y-64805543D01*
X94470485Y-64805885D01*
X94477510Y-64811681D01*
X94477653Y-64811808D01*
X94488544Y-64822778D01*
X94490967Y-64825544D01*
X94492720Y-64826717D01*
X94506075Y-64837033D01*
X94509700Y-64840250D01*
X94514864Y-64843744D01*
X94522709Y-64849514D01*
X94525269Y-64851556D01*
X94525271Y-64851558D01*
X94541438Y-64861304D01*
X94561484Y-64876475D01*
X94562102Y-64876918D01*
X94562108Y-64876924D01*
X94562114Y-64876927D01*
X94568714Y-64881663D01*
X94568699Y-64881683D01*
X94568824Y-64881763D01*
X94572259Y-64883740D01*
X94572262Y-64883742D01*
X94572264Y-64883743D01*
X94579309Y-64887797D01*
X94579120Y-64888124D01*
X94594512Y-64897450D01*
X94594813Y-64896980D01*
X94601660Y-64901344D01*
X94601665Y-64901348D01*
X94601701Y-64901364D01*
X94614071Y-64908335D01*
X94623858Y-64913168D01*
X94623689Y-64913509D01*
X94647590Y-64925832D01*
X94650791Y-64928138D01*
X94650792Y-64928138D01*
X94650793Y-64928139D01*
X94667255Y-64934382D01*
X94681790Y-64940995D01*
X94694886Y-64948006D01*
X94694888Y-64948006D01*
X94694891Y-64948008D01*
X94699285Y-64949665D01*
X94707940Y-64953793D01*
X94714698Y-64956640D01*
X94714699Y-64956641D01*
X94717845Y-64957504D01*
X94737460Y-64964713D01*
X94737955Y-64964944D01*
X94742905Y-64965818D01*
X94773160Y-64975276D01*
X94777506Y-64977275D01*
X94781830Y-64979264D01*
X94781832Y-64979264D01*
X94787694Y-64981079D01*
X94794802Y-64982755D01*
X94794812Y-64982759D01*
X94805668Y-64983855D01*
X94808334Y-64984125D01*
X94828644Y-64987905D01*
X94829908Y-64988252D01*
X94837398Y-64990562D01*
X94850993Y-64995232D01*
X94850998Y-64995232D01*
X94856278Y-64996302D01*
X94862233Y-64997122D01*
X94862241Y-64997125D01*
X94876014Y-64997207D01*
X94883820Y-64997501D01*
X94885477Y-64997616D01*
X94897757Y-64999086D01*
X94899188Y-64999331D01*
X94906661Y-65000846D01*
X94920657Y-65004136D01*
X94926316Y-65004703D01*
X94931831Y-65004915D01*
X94931837Y-65004914D01*
X94931841Y-65004915D01*
X94946314Y-65003573D01*
X94953959Y-65003104D01*
X94954726Y-65003080D01*
X94974899Y-65004124D01*
X94989267Y-65006051D01*
X94989274Y-65006050D01*
X94996147Y-65006066D01*
X95002233Y-65005689D01*
X95002233Y-65005688D01*
X95002235Y-65005689D01*
X95014909Y-65003214D01*
X95043592Y-65001015D01*
X95055501Y-65001489D01*
X95055506Y-65001487D01*
X95063605Y-65000748D01*
X95063612Y-65000829D01*
X95063793Y-65000806D01*
X95063787Y-65000764D01*
X95071804Y-64999455D01*
X95071806Y-64999454D01*
X95071811Y-64999454D01*
X95080640Y-64996792D01*
X95110474Y-64991659D01*
X95118142Y-64991291D01*
X95118147Y-64991289D01*
X95118151Y-64991289D01*
X95119980Y-64990958D01*
X95138575Y-64986816D01*
X95139050Y-64986689D01*
X95139056Y-64986689D01*
X95142993Y-64985068D01*
X95174200Y-64976772D01*
X95176591Y-64976462D01*
X95179279Y-64975353D01*
X95199237Y-64969035D01*
X95202806Y-64968230D01*
X95202810Y-64968228D01*
X95210437Y-64965419D01*
X95210540Y-64965699D01*
X95223066Y-64961215D01*
X95222880Y-64960678D01*
X95230545Y-64958012D01*
X95230555Y-64958011D01*
X95236767Y-64954890D01*
X95254629Y-64947598D01*
X95262073Y-64945216D01*
X95269419Y-64941751D01*
X95269498Y-64941918D01*
X95275127Y-64938939D01*
X95279999Y-64936868D01*
X95279998Y-64936868D01*
X95280003Y-64936867D01*
X95289593Y-64931212D01*
X95305305Y-64923391D01*
X95306285Y-64922987D01*
X95316513Y-64918770D01*
X95316519Y-64918764D01*
X95321826Y-64915713D01*
X95324365Y-64914351D01*
X95325216Y-64913776D01*
X95325221Y-64913775D01*
X95337846Y-64905258D01*
X95351525Y-64897256D01*
X95366076Y-64889949D01*
X95366084Y-64889941D01*
X95366858Y-64889417D01*
X95372113Y-64885103D01*
X95374245Y-64883489D01*
X95381674Y-64877870D01*
X95393466Y-64869969D01*
X95395193Y-64868951D01*
X95403067Y-64864819D01*
X95404126Y-64864147D01*
X95404131Y-64864145D01*
X95404134Y-64864141D01*
X95409868Y-64860506D01*
X95410938Y-64859668D01*
X95410949Y-64859663D01*
X95410957Y-64859654D01*
X95417355Y-64854654D01*
X95417504Y-64854844D01*
X95432478Y-64843795D01*
X95431963Y-64843055D01*
X95438636Y-64838409D01*
X95438643Y-64838406D01*
X95438648Y-64838401D01*
X95441322Y-64836540D01*
X95450913Y-64829001D01*
X95451572Y-64828558D01*
X95451574Y-64828554D01*
X95451576Y-64828554D01*
X95457666Y-64823167D01*
X95457899Y-64823431D01*
X95466947Y-64814992D01*
X95470323Y-64812444D01*
X95470332Y-64812440D01*
X95471760Y-64811034D01*
X95483894Y-64800557D01*
X95488325Y-64797207D01*
X95488328Y-64797202D01*
X95493455Y-64792147D01*
X95501156Y-64785163D01*
X95505364Y-64781655D01*
X95505374Y-64781649D01*
X95508225Y-64778557D01*
X95519890Y-64767455D01*
X95520780Y-64766710D01*
X95521712Y-64765933D01*
X95521715Y-64765927D01*
X95527219Y-64759950D01*
X95527308Y-64760032D01*
X95538062Y-64747831D01*
X95552177Y-64734974D01*
X95552178Y-64734972D01*
X95553746Y-64733544D01*
X95555839Y-64731021D01*
X95555842Y-64731020D01*
X95563860Y-64721358D01*
X95572311Y-64712164D01*
X95580090Y-64704517D01*
X95580094Y-64704509D01*
X95580096Y-64704508D01*
X95585097Y-64698105D01*
X95585733Y-64698601D01*
X95595747Y-64685640D01*
X95599595Y-64681779D01*
X95599608Y-64681770D01*
X95606279Y-64673049D01*
X95613605Y-64664335D01*
X95625350Y-64651606D01*
X95625352Y-64651601D01*
X95630036Y-64644961D01*
X95630899Y-64645570D01*
X95633633Y-64641732D01*
X95633004Y-64641279D01*
X95648098Y-64620329D01*
X95653281Y-64613629D01*
X95669349Y-64594272D01*
X95669352Y-64594263D01*
X95673679Y-64587392D01*
X95673891Y-64587525D01*
X95676936Y-64582166D01*
X95685344Y-64569963D01*
X95688953Y-64564994D01*
X95707758Y-64540418D01*
X95707760Y-64540414D01*
X95711815Y-64533369D01*
X95712449Y-64533733D01*
X95719026Y-64521896D01*
X95741619Y-64490544D01*
X95741621Y-64490537D01*
X95743905Y-64486293D01*
X95751004Y-64474670D01*
X95798641Y-64405535D01*
X95800847Y-64402436D01*
X95959702Y-64186522D01*
X95961178Y-64184561D01*
X96125088Y-63971045D01*
X96126842Y-63968812D01*
X96293979Y-63761297D01*
X96296036Y-63758812D01*
X96315598Y-63735786D01*
X96467050Y-63557515D01*
X96469333Y-63554905D01*
X96644933Y-63359969D01*
X96647527Y-63357180D01*
X96830200Y-63166891D01*
X96832373Y-63164685D01*
X96923081Y-63074874D01*
X96924627Y-63073369D01*
X97018763Y-62983416D01*
X97020281Y-62981991D01*
X97116111Y-62893718D01*
X97117750Y-62892236D01*
X97141009Y-62871609D01*
X99623187Y-62871609D01*
X100860622Y-64109045D01*
X100860623Y-64109045D01*
X101267210Y-63702459D01*
X100349510Y-62784759D01*
X100349503Y-62784753D01*
X100302872Y-62747175D01*
X100302870Y-62747174D01*
X100172090Y-62687448D01*
X100029774Y-62666988D01*
X100029773Y-62666988D01*
X99887456Y-62687448D01*
X99756676Y-62747174D01*
X99756674Y-62747175D01*
X99710043Y-62784753D01*
X99710036Y-62784759D01*
X99623187Y-62871609D01*
X97141009Y-62871609D01*
X97212090Y-62808570D01*
X97215106Y-62805983D01*
X97483180Y-62583734D01*
X97487542Y-62580283D01*
X97772728Y-62364985D01*
X97777176Y-62361779D01*
X97944412Y-62246770D01*
X98080622Y-62153097D01*
X98085107Y-62150155D01*
X98404353Y-61950629D01*
X98409052Y-61947836D01*
X98741653Y-61759885D01*
X98746590Y-61757240D01*
X99090054Y-61583217D01*
X99095274Y-61580725D01*
X99447164Y-61422861D01*
X99452805Y-61420498D01*
X99810485Y-61281010D01*
X99816669Y-61278786D01*
X100177667Y-61159707D01*
X100184443Y-61157685D01*
X100546179Y-61060961D01*
X100553637Y-61059214D01*
X100913477Y-60986645D01*
X100921789Y-60985261D01*
X101277236Y-60938441D01*
X101286415Y-60937579D01*
X101641705Y-60917524D01*
X101649176Y-60917329D01*
X101814141Y-60918004D01*
G37*
%TD.AperFunction*%
%TA.AperFunction,Conductor*%
G36*
X90809754Y-68000572D02*
G01*
X90854102Y-68029073D01*
X93812848Y-70987819D01*
X93846333Y-71049142D01*
X93841349Y-71118834D01*
X93799477Y-71174767D01*
X93734013Y-71199184D01*
X93725167Y-71199500D01*
X92430247Y-71199500D01*
X92371770Y-71211131D01*
X92371769Y-71211132D01*
X92305447Y-71255447D01*
X92261132Y-71321769D01*
X92261131Y-71321770D01*
X92249500Y-71380247D01*
X92249500Y-76519752D01*
X92261131Y-76578229D01*
X92261132Y-76578230D01*
X92305447Y-76644552D01*
X92371769Y-76688867D01*
X92371770Y-76688868D01*
X92430247Y-76700499D01*
X92430250Y-76700500D01*
X92430252Y-76700500D01*
X96024167Y-76700500D01*
X96091206Y-76720185D01*
X96111848Y-76736819D01*
X97163181Y-77788152D01*
X97196666Y-77849475D01*
X97199500Y-77875833D01*
X97199500Y-78966841D01*
X97179815Y-79033880D01*
X97127011Y-79079635D01*
X97057853Y-79089579D01*
X97008461Y-79071157D01*
X96960053Y-79040047D01*
X96960051Y-79040046D01*
X96960049Y-79040045D01*
X96960050Y-79040045D01*
X96821963Y-78999500D01*
X96821961Y-78999500D01*
X96678039Y-78999500D01*
X96678036Y-78999500D01*
X96539949Y-79040045D01*
X96418873Y-79117856D01*
X96418872Y-79117856D01*
X96418872Y-79117857D01*
X96414093Y-79123373D01*
X96385212Y-79156703D01*
X96326433Y-79194477D01*
X96291499Y-79199500D01*
X93708501Y-79199500D01*
X93641462Y-79179815D01*
X93614787Y-79156702D01*
X93613765Y-79155523D01*
X93581128Y-79117857D01*
X93580786Y-79117462D01*
X93551762Y-79053906D01*
X93550500Y-79036260D01*
X93550500Y-78960439D01*
X93530020Y-78884009D01*
X93530017Y-78884004D01*
X93490464Y-78815495D01*
X93490458Y-78815487D01*
X90934512Y-76259541D01*
X90934511Y-76259540D01*
X90911488Y-76246248D01*
X90911488Y-76246246D01*
X90911485Y-76246246D01*
X90865994Y-76219981D01*
X90865991Y-76219979D01*
X90816167Y-76206629D01*
X90789562Y-76199500D01*
X90789560Y-76199500D01*
X90458501Y-76199500D01*
X90391462Y-76179815D01*
X90364788Y-76156703D01*
X90331128Y-76117857D01*
X90210053Y-76040047D01*
X90210050Y-76040045D01*
X90139565Y-76019349D01*
X90080787Y-75981574D01*
X90051762Y-75918018D01*
X90050500Y-75900372D01*
X90050500Y-68645578D01*
X90070185Y-68578539D01*
X90122989Y-68532784D01*
X90150306Y-68523961D01*
X90171645Y-68519717D01*
X90221225Y-68486589D01*
X90678740Y-68029072D01*
X90740063Y-67995588D01*
X90809754Y-68000572D01*
G37*
%TD.AperFunction*%
%TD*%
M02*
