%TF.GenerationSoftware,KiCad,Pcbnew,8.0.3*%
%TF.CreationDate,2024-08-14T20:25:55-04:00*%
%TF.ProjectId,KarmothDiceRoller_V1,4b61726d-6f74-4684-9469-6365526f6c6c,rev?*%
%TF.SameCoordinates,Original*%
%TF.FileFunction,Legend,Top*%
%TF.FilePolarity,Positive*%
%FSLAX46Y46*%
G04 Gerber Fmt 4.6, Leading zero omitted, Abs format (unit mm)*
G04 Created by KiCad (PCBNEW 8.0.3) date 2024-08-14 20:25:55*
%MOMM*%
%LPD*%
G01*
G04 APERTURE LIST*
%ADD10C,0.100000*%
%ADD11C,0.150000*%
%ADD12C,0.152400*%
%ADD13C,0.120000*%
G04 APERTURE END LIST*
D10*
X98250020Y-70243856D02*
X98348254Y-70245081D01*
X98430235Y-70247419D01*
X98499662Y-70251126D01*
X98560231Y-70256461D01*
X98615641Y-70263680D01*
X98669589Y-70273041D01*
X98725772Y-70284801D01*
X99088989Y-70365246D01*
X99125003Y-70373854D01*
X99162374Y-70384107D01*
X99200975Y-70395948D01*
X99240683Y-70409321D01*
X99281372Y-70424169D01*
X99322918Y-70440436D01*
X99365197Y-70458066D01*
X99408084Y-70477001D01*
X99451453Y-70497186D01*
X99495181Y-70518563D01*
X99539143Y-70541077D01*
X99583214Y-70564670D01*
X99627270Y-70589286D01*
X99671186Y-70614869D01*
X99714837Y-70641363D01*
X99758098Y-70668709D01*
X99823724Y-70712688D01*
X99893524Y-70762522D01*
X99966765Y-70817544D01*
X100042710Y-70877088D01*
X100199776Y-71007077D01*
X100358840Y-71147156D01*
X100514022Y-71291995D01*
X100659442Y-71436261D01*
X100726653Y-71506513D01*
X100789219Y-71574622D01*
X100846404Y-71639922D01*
X100897473Y-71701747D01*
X101039663Y-71888877D01*
X101177843Y-72088442D01*
X101311551Y-72299290D01*
X101440328Y-72520271D01*
X101563712Y-72750232D01*
X101681244Y-72988021D01*
X101792463Y-73232486D01*
X101896907Y-73482477D01*
X101994118Y-73736840D01*
X102083633Y-73994425D01*
X102164993Y-74254079D01*
X102237738Y-74514650D01*
X102301405Y-74774988D01*
X102355536Y-75033939D01*
X102399670Y-75290353D01*
X102433345Y-75543077D01*
X102442250Y-75620068D01*
X102450085Y-75679844D01*
X102453941Y-75704377D01*
X102457936Y-75725926D01*
X102462205Y-75744932D01*
X102466886Y-75761834D01*
X102472113Y-75777073D01*
X102478022Y-75791088D01*
X102484749Y-75804319D01*
X102492429Y-75817207D01*
X102501198Y-75830192D01*
X102511191Y-75843713D01*
X102535395Y-75874124D01*
X102966308Y-76400616D01*
X103226565Y-76724393D01*
X103497312Y-77072557D01*
X103770884Y-77434545D01*
X104039613Y-77799793D01*
X104295831Y-78157740D01*
X104531871Y-78497822D01*
X104740066Y-78809477D01*
X104912748Y-79082141D01*
X104969263Y-79175580D01*
X105026429Y-79272574D01*
X105091679Y-79386513D01*
X105172445Y-79530783D01*
X105276163Y-79718775D01*
X105410265Y-79963874D01*
X105799355Y-80678952D01*
X106117246Y-81266841D01*
X106239866Y-81497790D01*
X106352777Y-81714979D01*
X106592998Y-82192790D01*
X106924960Y-82869701D01*
X107364072Y-83777365D01*
X107526580Y-84123750D01*
X107662580Y-84424608D01*
X107780711Y-84699515D01*
X107889616Y-84968050D01*
X107997935Y-85249791D01*
X108114309Y-85564315D01*
X108265237Y-85984938D01*
X108406421Y-86395883D01*
X108543031Y-86814274D01*
X108680241Y-87257234D01*
X108823222Y-87741885D01*
X108977146Y-88285349D01*
X109338511Y-89617209D01*
X109646468Y-90801517D01*
X109768363Y-91297714D01*
X109873105Y-91748813D01*
X109963868Y-92168966D01*
X110043830Y-92572329D01*
X110116166Y-92973055D01*
X110184053Y-93385298D01*
X110306319Y-94243718D01*
X110410865Y-95146160D01*
X110496077Y-96065516D01*
X110560343Y-96974680D01*
X110602051Y-97846546D01*
X110619587Y-98654006D01*
X110611338Y-99369954D01*
X110575691Y-99967283D01*
X110547340Y-100232530D01*
X110514226Y-100472750D01*
X110495551Y-100584786D01*
X110475286Y-100692137D01*
X110453300Y-100795329D01*
X110429458Y-100894884D01*
X110403629Y-100991328D01*
X110375679Y-101085184D01*
X110345476Y-101176977D01*
X110312886Y-101267231D01*
X110277778Y-101356470D01*
X110240017Y-101445218D01*
X110199472Y-101533999D01*
X110156008Y-101623338D01*
X110115981Y-101700760D01*
X110074403Y-101776093D01*
X110030972Y-101849703D01*
X109985384Y-101921953D01*
X109937334Y-101993205D01*
X109886519Y-102063824D01*
X109832635Y-102134173D01*
X109775377Y-102204615D01*
X109714441Y-102275515D01*
X109649525Y-102347235D01*
X109580323Y-102420139D01*
X109506531Y-102494590D01*
X109427846Y-102570953D01*
X109343964Y-102649591D01*
X109254581Y-102730866D01*
X109159392Y-102815143D01*
X109050143Y-102909614D01*
X108953324Y-102990924D01*
X108868011Y-103059753D01*
X108793280Y-103116781D01*
X108728206Y-103162691D01*
X108699002Y-103181688D01*
X108671866Y-103198161D01*
X108646682Y-103212195D01*
X108623335Y-103223874D01*
X108601710Y-103233283D01*
X108581690Y-103240508D01*
X108563506Y-103246774D01*
X108538792Y-103255964D01*
X108474156Y-103281353D01*
X108396543Y-103313155D01*
X108314713Y-103347847D01*
X108260737Y-103369843D01*
X108200096Y-103392205D01*
X108061406Y-103437411D01*
X107903822Y-103482231D01*
X107732522Y-103525435D01*
X107552685Y-103565789D01*
X107369487Y-103602062D01*
X107188107Y-103633020D01*
X107013723Y-103657432D01*
X106863377Y-103673744D01*
X106694510Y-103687692D01*
X106499922Y-103699546D01*
X106272410Y-103709576D01*
X106004771Y-103718050D01*
X105689805Y-103725237D01*
X104889080Y-103736828D01*
X104179559Y-103743470D01*
X103929428Y-103742921D01*
X103710281Y-103738615D01*
X103493043Y-103729671D01*
X103248637Y-103715208D01*
X102562018Y-103666192D01*
X102442273Y-103656495D01*
X102310569Y-103644315D01*
X102182882Y-103631210D01*
X102075184Y-103618740D01*
X101806890Y-103586992D01*
X101476316Y-103550290D01*
X101244754Y-103521170D01*
X100933175Y-103475970D01*
X100174709Y-103354817D01*
X99410403Y-103221798D01*
X99091526Y-103161765D01*
X98849746Y-103111877D01*
X98667246Y-103069606D01*
X98488379Y-103025001D01*
X98313845Y-102978268D01*
X98144343Y-102929616D01*
X97980573Y-102879252D01*
X97823235Y-102827385D01*
X97673027Y-102774222D01*
X97530651Y-102719972D01*
X97417062Y-102674275D01*
X97315938Y-102631859D01*
X97224071Y-102591156D01*
X97138250Y-102550596D01*
X97055268Y-102508611D01*
X96971915Y-102463630D01*
X96884984Y-102414085D01*
X96791265Y-102358407D01*
X96716530Y-102313990D01*
X96654713Y-102278567D01*
X96630656Y-102265350D01*
X96612238Y-102255728D01*
X96600259Y-102250148D01*
X96596936Y-102249015D01*
X96595525Y-102249061D01*
X96592986Y-102254387D01*
X96587333Y-102267182D01*
X96568116Y-102311825D01*
X96540728Y-102376274D01*
X96508029Y-102453814D01*
X96469244Y-102542073D01*
X96426665Y-102631708D01*
X96381231Y-102721037D01*
X96333881Y-102808381D01*
X96285557Y-102892059D01*
X96237198Y-102970391D01*
X96189743Y-103041697D01*
X96144133Y-103104296D01*
X96117252Y-103138132D01*
X96088565Y-103172154D01*
X96058280Y-103206183D01*
X96026603Y-103240038D01*
X95993743Y-103273537D01*
X95959906Y-103306501D01*
X95925301Y-103338747D01*
X95890134Y-103370096D01*
X95854613Y-103400367D01*
X95818945Y-103429378D01*
X95783339Y-103456949D01*
X95748000Y-103482899D01*
X95713137Y-103507048D01*
X95678957Y-103529214D01*
X95645667Y-103549217D01*
X95613474Y-103566876D01*
X95576310Y-103585674D01*
X95540068Y-103602873D01*
X95504511Y-103618526D01*
X95469402Y-103632685D01*
X95434503Y-103645406D01*
X95399578Y-103656740D01*
X95364388Y-103666741D01*
X95328697Y-103675463D01*
X95292267Y-103682959D01*
X95254860Y-103689282D01*
X95216240Y-103694487D01*
X95176169Y-103698625D01*
X95134409Y-103701750D01*
X95090723Y-103703917D01*
X95044874Y-103705178D01*
X94996625Y-103705586D01*
X94948376Y-103705178D01*
X94902527Y-103703917D01*
X94858841Y-103701750D01*
X94817081Y-103698625D01*
X94777010Y-103694487D01*
X94738390Y-103689282D01*
X94700983Y-103682959D01*
X94664552Y-103675463D01*
X94628861Y-103666741D01*
X94593671Y-103656740D01*
X94558746Y-103645406D01*
X94523847Y-103632685D01*
X94488738Y-103618526D01*
X94453181Y-103602873D01*
X94416939Y-103585674D01*
X94379774Y-103566876D01*
X94347582Y-103549217D01*
X94314293Y-103529214D01*
X94280113Y-103507048D01*
X94245250Y-103482899D01*
X94209911Y-103456949D01*
X94174305Y-103429378D01*
X94138637Y-103400367D01*
X94103116Y-103370096D01*
X94067949Y-103338747D01*
X94033343Y-103306501D01*
X93999507Y-103273537D01*
X93966646Y-103240038D01*
X93934969Y-103206183D01*
X93904684Y-103172154D01*
X93875996Y-103138132D01*
X93849115Y-103104296D01*
X93826600Y-103074191D01*
X93803506Y-103041698D01*
X93756052Y-102970393D01*
X93707692Y-102892061D01*
X93659368Y-102808382D01*
X93612019Y-102721038D01*
X93566585Y-102631708D01*
X93524005Y-102542073D01*
X93485222Y-102453814D01*
X93425118Y-102311820D01*
X93405897Y-102267177D01*
X93397726Y-102249061D01*
X93397265Y-102248887D01*
X93396314Y-102249014D01*
X93392991Y-102250146D01*
X93387857Y-102252402D01*
X93381013Y-102255725D01*
X93362594Y-102265347D01*
X93338537Y-102278564D01*
X93309645Y-102294928D01*
X93276721Y-102313989D01*
X93240567Y-102335298D01*
X93201986Y-102358407D01*
X93108267Y-102414085D01*
X93021336Y-102463630D01*
X92937983Y-102508611D01*
X92855001Y-102550596D01*
X92769180Y-102591156D01*
X92677312Y-102631859D01*
X92576188Y-102674275D01*
X92462600Y-102719972D01*
X92320222Y-102774222D01*
X92170015Y-102827385D01*
X92012676Y-102879251D01*
X91848906Y-102929614D01*
X91679404Y-102978266D01*
X91504870Y-103024999D01*
X91326003Y-103069605D01*
X91143502Y-103111877D01*
X90902210Y-103161660D01*
X90583678Y-103221630D01*
X89819640Y-103354635D01*
X89060891Y-103475910D01*
X88748969Y-103521217D01*
X88516932Y-103550472D01*
X88188114Y-103587295D01*
X87924039Y-103619048D01*
X87805130Y-103632346D01*
X87642497Y-103647747D01*
X87457546Y-103663342D01*
X87271682Y-103677222D01*
X86584142Y-103726134D01*
X86449017Y-103732905D01*
X86256107Y-103737676D01*
X85721408Y-103741234D01*
X85029009Y-103736840D01*
X84227869Y-103724524D01*
X84227873Y-103724555D01*
X83925009Y-103717510D01*
X83660889Y-103708609D01*
X83429501Y-103697365D01*
X83224835Y-103683291D01*
X83040879Y-103665899D01*
X82871623Y-103644704D01*
X82711056Y-103619218D01*
X82553167Y-103588954D01*
X82403588Y-103557105D01*
X82266684Y-103526068D01*
X82141868Y-103495683D01*
X82028551Y-103465785D01*
X81926148Y-103436215D01*
X81834070Y-103406810D01*
X81751730Y-103377408D01*
X81678541Y-103347847D01*
X81596711Y-103313155D01*
X81519098Y-103281353D01*
X81454462Y-103255964D01*
X81429749Y-103246774D01*
X81411564Y-103240508D01*
X81391544Y-103233283D01*
X81369918Y-103223874D01*
X81346570Y-103212195D01*
X81321386Y-103198161D01*
X81294250Y-103181688D01*
X81265046Y-103162691D01*
X81233659Y-103141084D01*
X81199973Y-103116781D01*
X81163872Y-103089700D01*
X81125242Y-103059753D01*
X81083966Y-103026856D01*
X81039930Y-102990924D01*
X80943111Y-102909614D01*
X80833863Y-102815143D01*
X80738674Y-102730866D01*
X80649291Y-102649590D01*
X80565408Y-102570953D01*
X80486723Y-102494590D01*
X80412931Y-102420138D01*
X80343729Y-102347234D01*
X80278812Y-102275513D01*
X80217876Y-102204614D01*
X80160618Y-102134171D01*
X80106733Y-102063822D01*
X80055918Y-101993204D01*
X80007868Y-101921951D01*
X79962280Y-101849702D01*
X79918849Y-101776092D01*
X79877272Y-101700759D01*
X79837244Y-101623338D01*
X79793782Y-101533999D01*
X79753237Y-101445218D01*
X79715476Y-101356470D01*
X79680368Y-101267231D01*
X79647779Y-101176977D01*
X79617576Y-101085184D01*
X79589626Y-100991328D01*
X79563797Y-100894884D01*
X79539955Y-100795329D01*
X79517969Y-100692137D01*
X79497704Y-100584786D01*
X79479029Y-100472750D01*
X79461810Y-100355506D01*
X79445915Y-100232530D01*
X79417564Y-99967283D01*
X79396215Y-99685139D01*
X79381918Y-99369953D01*
X79375688Y-98829225D01*
X79436574Y-98829225D01*
X79441407Y-99155764D01*
X79452473Y-99469398D01*
X79469627Y-99766984D01*
X79492725Y-100045377D01*
X79521620Y-100301432D01*
X79556167Y-100532003D01*
X79582607Y-100671983D01*
X79613141Y-100808505D01*
X79647802Y-100941632D01*
X79686621Y-101071429D01*
X79729631Y-101197959D01*
X79776863Y-101321286D01*
X79828349Y-101441472D01*
X79884121Y-101558583D01*
X79944211Y-101672682D01*
X80008651Y-101783832D01*
X80077474Y-101892098D01*
X80150710Y-101997542D01*
X80228391Y-102100229D01*
X80310551Y-102200223D01*
X80397220Y-102297586D01*
X80488430Y-102392383D01*
X80590818Y-102492593D01*
X80701138Y-102596656D01*
X80815065Y-102700792D01*
X80928273Y-102801223D01*
X81036437Y-102894170D01*
X81135231Y-102975855D01*
X81220329Y-103042498D01*
X81287405Y-103090321D01*
X81356268Y-103132035D01*
X81435088Y-103173535D01*
X81523066Y-103214598D01*
X81619407Y-103255002D01*
X81723311Y-103294524D01*
X81833981Y-103332941D01*
X81950621Y-103370031D01*
X82072431Y-103405569D01*
X82198615Y-103439334D01*
X82328376Y-103471102D01*
X82460914Y-103500651D01*
X82595434Y-103527758D01*
X82731137Y-103552200D01*
X82867227Y-103573754D01*
X83002904Y-103592196D01*
X83137372Y-103607306D01*
X83488751Y-103633834D01*
X83935335Y-103654476D01*
X84446785Y-103668969D01*
X84992764Y-103677051D01*
X85542932Y-103678458D01*
X86066953Y-103672928D01*
X86534488Y-103660199D01*
X86915199Y-103640007D01*
X86915194Y-103640011D01*
X87277014Y-103611558D01*
X87629845Y-103579846D01*
X87977298Y-103544441D01*
X88322982Y-103504907D01*
X88670508Y-103460808D01*
X89023487Y-103411709D01*
X89385527Y-103357174D01*
X89760240Y-103296769D01*
X90190698Y-103223854D01*
X90562267Y-103157511D01*
X90884592Y-103095594D01*
X91167317Y-103035957D01*
X91420086Y-102976456D01*
X91652543Y-102914943D01*
X91874333Y-102849275D01*
X92095100Y-102777304D01*
X92268763Y-102716741D01*
X92426231Y-102658147D01*
X92570872Y-102599978D01*
X92706052Y-102540689D01*
X92835135Y-102478736D01*
X92961489Y-102412575D01*
X93088480Y-102340661D01*
X93219472Y-102261450D01*
X93250450Y-102242630D01*
X93280710Y-102225073D01*
X93309495Y-102209163D01*
X93336043Y-102195284D01*
X93359595Y-102183820D01*
X93379392Y-102175156D01*
X93387645Y-102171993D01*
X93394674Y-102169675D01*
X93400385Y-102168249D01*
X93404682Y-102167763D01*
X93407069Y-102167921D01*
X93409500Y-102168401D01*
X93411981Y-102169208D01*
X93414515Y-102170351D01*
X93417107Y-102171837D01*
X93419760Y-102173672D01*
X93422480Y-102175864D01*
X93425269Y-102178420D01*
X93428134Y-102181347D01*
X93431077Y-102184651D01*
X93434103Y-102188341D01*
X93437217Y-102192423D01*
X93440422Y-102196904D01*
X93443724Y-102201792D01*
X93447125Y-102207093D01*
X93450631Y-102212815D01*
X93454245Y-102218964D01*
X93457972Y-102225549D01*
X93465783Y-102240050D01*
X93474096Y-102256376D01*
X93482946Y-102274584D01*
X93492367Y-102294730D01*
X93502392Y-102316870D01*
X93513057Y-102341063D01*
X93524395Y-102367364D01*
X93590308Y-102516248D01*
X93622679Y-102585010D01*
X93654858Y-102650299D01*
X93686991Y-102712351D01*
X93719229Y-102771400D01*
X93751719Y-102827682D01*
X93784610Y-102881433D01*
X93818050Y-102932887D01*
X93852187Y-102982280D01*
X93887170Y-103029848D01*
X93923148Y-103075825D01*
X93960267Y-103120447D01*
X93998678Y-103163949D01*
X94038527Y-103206566D01*
X94079964Y-103248534D01*
X94133845Y-103300090D01*
X94186839Y-103347437D01*
X94239231Y-103390697D01*
X94291312Y-103429992D01*
X94343368Y-103465443D01*
X94395686Y-103497173D01*
X94448555Y-103525303D01*
X94502263Y-103549955D01*
X94557097Y-103571250D01*
X94613344Y-103589311D01*
X94671293Y-103604259D01*
X94731230Y-103616216D01*
X94793445Y-103625304D01*
X94858224Y-103631645D01*
X94925856Y-103635360D01*
X94996627Y-103636571D01*
X95067398Y-103635360D01*
X95135029Y-103631645D01*
X95199807Y-103625304D01*
X95262022Y-103616216D01*
X95321959Y-103604259D01*
X95379908Y-103589311D01*
X95436155Y-103571250D01*
X95490989Y-103549955D01*
X95544696Y-103525303D01*
X95597565Y-103497173D01*
X95649884Y-103465443D01*
X95701940Y-103429992D01*
X95754020Y-103390697D01*
X95806413Y-103347437D01*
X95859407Y-103300090D01*
X95913288Y-103248534D01*
X95954725Y-103206567D01*
X95994575Y-103163950D01*
X96032986Y-103120448D01*
X96070105Y-103075827D01*
X96106083Y-103029850D01*
X96141066Y-102982283D01*
X96175203Y-102932890D01*
X96208643Y-102881436D01*
X96241534Y-102827685D01*
X96274024Y-102771403D01*
X96306262Y-102712353D01*
X96338395Y-102650301D01*
X96370574Y-102585012D01*
X96402945Y-102516249D01*
X96435657Y-102443778D01*
X96468859Y-102367364D01*
X96490861Y-102316870D01*
X96510308Y-102274584D01*
X96527471Y-102240050D01*
X96535281Y-102225549D01*
X96542622Y-102212815D01*
X96549529Y-102201792D01*
X96556036Y-102192423D01*
X96562176Y-102184651D01*
X96567984Y-102178420D01*
X96573493Y-102173672D01*
X96578738Y-102170351D01*
X96583753Y-102168401D01*
X96588572Y-102167763D01*
X96592868Y-102168249D01*
X96598578Y-102169675D01*
X96605607Y-102171993D01*
X96613860Y-102175156D01*
X96623241Y-102179114D01*
X96633657Y-102183820D01*
X96645011Y-102189226D01*
X96657209Y-102195284D01*
X96683758Y-102209163D01*
X96712542Y-102225073D01*
X96742803Y-102242630D01*
X96773780Y-102261450D01*
X96904773Y-102340661D01*
X97031763Y-102412575D01*
X97158118Y-102478736D01*
X97287201Y-102540689D01*
X97422381Y-102599978D01*
X97567022Y-102658147D01*
X97724491Y-102716741D01*
X97898154Y-102777304D01*
X98118906Y-102849269D01*
X98340686Y-102914934D01*
X98573130Y-102976444D01*
X98825876Y-103035942D01*
X99108561Y-103095573D01*
X99430820Y-103157481D01*
X99802292Y-103223809D01*
X100232612Y-103296702D01*
X100610483Y-103357619D01*
X100975001Y-103412517D01*
X101330018Y-103461860D01*
X101679391Y-103506112D01*
X102026974Y-103545737D01*
X102376622Y-103581198D01*
X102732190Y-103612959D01*
X103097532Y-103641485D01*
X103473860Y-103660202D01*
X103954663Y-103671239D01*
X104502297Y-103675012D01*
X105079119Y-103671933D01*
X105647486Y-103662417D01*
X106169754Y-103646879D01*
X106608281Y-103625731D01*
X106925424Y-103599388D01*
X107198852Y-103561595D01*
X107466262Y-103513984D01*
X107723397Y-103457772D01*
X107965996Y-103394177D01*
X108189800Y-103324417D01*
X108293323Y-103287606D01*
X108390550Y-103249709D01*
X108480949Y-103210881D01*
X108563988Y-103171272D01*
X108639133Y-103131034D01*
X108705853Y-103090321D01*
X108736851Y-103069009D01*
X108772898Y-103042519D01*
X108857974Y-102975893D01*
X108956760Y-102894217D01*
X109064934Y-102801268D01*
X109178174Y-102700818D01*
X109292158Y-102596645D01*
X109402563Y-102492522D01*
X109505069Y-102392225D01*
X109605978Y-102287025D01*
X109701132Y-102178949D01*
X109790615Y-102067810D01*
X109874512Y-101953422D01*
X109952909Y-101835598D01*
X110025891Y-101714152D01*
X110093542Y-101588896D01*
X110155947Y-101459644D01*
X110213193Y-101326209D01*
X110265363Y-101188406D01*
X110312542Y-101046046D01*
X110354816Y-100898944D01*
X110392269Y-100746912D01*
X110424988Y-100589765D01*
X110453055Y-100427315D01*
X110476558Y-100259377D01*
X110500593Y-100036498D01*
X110519955Y-99792780D01*
X110544808Y-99248050D01*
X110551421Y-98635629D01*
X110540097Y-97965961D01*
X110511139Y-97249490D01*
X110464852Y-96496658D01*
X110401537Y-95717909D01*
X110321500Y-94923686D01*
X110242600Y-94257564D01*
X110156358Y-93634011D01*
X110057567Y-93027284D01*
X109941019Y-92411640D01*
X109801508Y-91761337D01*
X109633827Y-91050633D01*
X109432768Y-90253784D01*
X109193126Y-89345049D01*
X108886259Y-88221073D01*
X108625184Y-87320224D01*
X108502225Y-86921679D01*
X108379201Y-86540765D01*
X108117608Y-85780958D01*
X107997001Y-85446991D01*
X107886087Y-85151340D01*
X107776211Y-84874046D01*
X107658718Y-84595153D01*
X107524952Y-84294702D01*
X107366258Y-83952736D01*
X107173979Y-83549296D01*
X106939462Y-83064427D01*
X106585634Y-82338686D01*
X106334958Y-81837072D01*
X106094166Y-81377106D01*
X105769991Y-80776310D01*
X105157579Y-79652318D01*
X105006173Y-79382165D01*
X104897422Y-79196990D01*
X104717223Y-78909285D01*
X104501982Y-78584495D01*
X104258288Y-78231704D01*
X103992727Y-77859993D01*
X103711888Y-77478445D01*
X103422360Y-77096142D01*
X103130730Y-76722166D01*
X102843587Y-76365600D01*
X102678097Y-76162156D01*
X102540248Y-75989703D01*
X102444430Y-75866450D01*
X102416780Y-75828965D01*
X102405034Y-75810609D01*
X102403290Y-75805229D01*
X102401268Y-75797223D01*
X102396486Y-75773978D01*
X102390883Y-75742152D01*
X102384653Y-75703022D01*
X102377994Y-75657868D01*
X102371101Y-75607966D01*
X102364170Y-75554596D01*
X102357395Y-75499036D01*
X102324841Y-75263066D01*
X102282544Y-75022888D01*
X102230949Y-74779625D01*
X102170497Y-74534399D01*
X102101633Y-74288333D01*
X102024800Y-74042550D01*
X101940441Y-73798173D01*
X101849000Y-73556324D01*
X101750919Y-73318126D01*
X101646641Y-73084702D01*
X101536612Y-72857174D01*
X101421272Y-72636666D01*
X101301066Y-72424300D01*
X101176437Y-72221200D01*
X101047829Y-72028486D01*
X100915684Y-71847284D01*
X100813161Y-71718237D01*
X100704960Y-71591735D01*
X100591872Y-71468379D01*
X100474690Y-71348768D01*
X100354204Y-71233502D01*
X100231207Y-71123182D01*
X100106491Y-71018408D01*
X99980848Y-70919779D01*
X99855069Y-70827896D01*
X99729947Y-70743358D01*
X99606273Y-70666767D01*
X99484840Y-70598721D01*
X99366439Y-70539822D01*
X99251862Y-70490668D01*
X99141901Y-70451860D01*
X99037348Y-70423999D01*
X98730424Y-70356483D01*
X98685058Y-70347012D01*
X98637940Y-70338369D01*
X98539003Y-70323594D01*
X98434723Y-70312221D01*
X98326209Y-70304311D01*
X98214570Y-70299926D01*
X98100914Y-70299129D01*
X97986351Y-70301980D01*
X97871990Y-70308543D01*
X97684493Y-70324263D01*
X97509928Y-70343092D01*
X97342807Y-70366057D01*
X97177645Y-70394182D01*
X97008954Y-70428496D01*
X96831249Y-70470023D01*
X96639041Y-70519790D01*
X96426845Y-70578823D01*
X95769172Y-70764928D01*
X95546214Y-70825534D01*
X95377389Y-70868465D01*
X95250358Y-70896690D01*
X95152781Y-70913176D01*
X95072318Y-70920892D01*
X94996630Y-70922804D01*
X94958613Y-70922388D01*
X94920943Y-70920892D01*
X94882080Y-70917945D01*
X94840481Y-70913176D01*
X94794602Y-70906215D01*
X94742903Y-70896690D01*
X94683840Y-70884230D01*
X94615872Y-70868465D01*
X94537455Y-70849023D01*
X94447047Y-70825534D01*
X94343105Y-70797626D01*
X94224089Y-70764928D01*
X93934658Y-70683681D01*
X93566416Y-70578823D01*
X93354219Y-70519790D01*
X93162012Y-70470023D01*
X92984306Y-70428496D01*
X92815615Y-70394182D01*
X92650453Y-70366057D01*
X92483333Y-70343092D01*
X92308767Y-70324263D01*
X92121269Y-70308543D01*
X92006908Y-70301980D01*
X91892345Y-70299129D01*
X91778689Y-70299927D01*
X91667050Y-70304311D01*
X91558536Y-70312221D01*
X91454256Y-70323595D01*
X91355320Y-70338369D01*
X91262836Y-70356483D01*
X90955913Y-70423999D01*
X90851360Y-70451860D01*
X90741399Y-70490668D01*
X90626822Y-70539821D01*
X90508421Y-70598721D01*
X90386988Y-70666767D01*
X90263314Y-70743358D01*
X90138192Y-70827895D01*
X90012413Y-70919778D01*
X89886770Y-71018407D01*
X89762054Y-71123181D01*
X89639057Y-71233501D01*
X89518571Y-71348767D01*
X89401389Y-71468378D01*
X89288301Y-71591735D01*
X89180100Y-71718237D01*
X89077579Y-71847284D01*
X88945433Y-72028486D01*
X88816825Y-72221200D01*
X88692196Y-72424301D01*
X88571990Y-72636667D01*
X88456650Y-72857175D01*
X88346620Y-73084702D01*
X88242343Y-73318126D01*
X88144262Y-73556324D01*
X88052820Y-73798173D01*
X87968461Y-74042551D01*
X87891628Y-74288334D01*
X87822764Y-74534400D01*
X87762313Y-74779625D01*
X87710717Y-75022889D01*
X87668420Y-75263066D01*
X87635865Y-75499036D01*
X87622160Y-75607965D01*
X87608609Y-75703020D01*
X87602380Y-75742149D01*
X87596777Y-75773976D01*
X87591993Y-75797222D01*
X87588225Y-75810609D01*
X87584453Y-75817253D01*
X87576479Y-75828963D01*
X87548829Y-75866447D01*
X87507073Y-75920785D01*
X87453010Y-75989700D01*
X87388440Y-76070915D01*
X87315161Y-76162155D01*
X87149670Y-76365600D01*
X86984350Y-76569050D01*
X86821185Y-76773508D01*
X86659519Y-76979833D01*
X86498699Y-77188883D01*
X86338069Y-77401518D01*
X86176975Y-77618596D01*
X86014762Y-77840975D01*
X85850775Y-78069516D01*
X85673269Y-78320851D01*
X85516528Y-78547455D01*
X85376391Y-78755867D01*
X85248699Y-78952628D01*
X85129291Y-79144278D01*
X85014006Y-79337356D01*
X84898683Y-79538404D01*
X84779162Y-79753960D01*
X84152221Y-80907845D01*
X83716220Y-81720764D01*
X83452269Y-82248939D01*
X83046748Y-83079537D01*
X82651679Y-83899192D01*
X82419086Y-84394539D01*
X82275220Y-84733982D01*
X82124489Y-85113149D01*
X81969621Y-85524269D01*
X81813341Y-85959571D01*
X81658377Y-86411283D01*
X81507455Y-86871636D01*
X81363302Y-87332858D01*
X81228645Y-87787179D01*
X80919260Y-88897725D01*
X80601005Y-90097672D01*
X80322078Y-91201117D01*
X80130676Y-92022158D01*
X79996124Y-92700302D01*
X79875262Y-93406287D01*
X79768245Y-94138740D01*
X79675226Y-94896290D01*
X79596357Y-95677565D01*
X79531793Y-96481192D01*
X79481686Y-97305800D01*
X79446189Y-98150017D01*
X79438120Y-98492928D01*
X79436574Y-98829225D01*
X79375688Y-98829225D01*
X79373669Y-98654004D01*
X79391205Y-97846544D01*
X79432913Y-96974679D01*
X79497180Y-96065515D01*
X79582393Y-95146159D01*
X79686938Y-94243718D01*
X79809204Y-93385298D01*
X79877090Y-92973054D01*
X79949426Y-92572328D01*
X80029388Y-92168965D01*
X80120151Y-91748811D01*
X80224892Y-91297713D01*
X80346788Y-90801516D01*
X80489013Y-90246066D01*
X80654745Y-89617209D01*
X81016111Y-88285349D01*
X81313016Y-87257234D01*
X81450226Y-86814274D01*
X81586837Y-86395883D01*
X81728020Y-85984938D01*
X81878948Y-85564315D01*
X81995322Y-85249791D01*
X82103641Y-84968050D01*
X82212545Y-84699515D01*
X82330676Y-84424608D01*
X82466676Y-84123750D01*
X82629184Y-83777365D01*
X82826844Y-83365875D01*
X83068295Y-82869701D01*
X83400259Y-82192790D01*
X83640481Y-81714979D01*
X83876012Y-81266841D01*
X84193901Y-80678952D01*
X84820813Y-79530783D01*
X84966829Y-79272574D01*
X85080510Y-79082141D01*
X85253193Y-78809477D01*
X85461389Y-78497822D01*
X85697429Y-78157740D01*
X85953647Y-77799793D01*
X86222376Y-77434544D01*
X86495948Y-77072556D01*
X86766696Y-76724392D01*
X87026953Y-76400614D01*
X87457864Y-75874123D01*
X87470714Y-75858209D01*
X87482068Y-75843711D01*
X87492062Y-75830190D01*
X87500831Y-75817206D01*
X87504798Y-75810777D01*
X87508511Y-75804318D01*
X87511985Y-75797772D01*
X87515238Y-75791086D01*
X87518286Y-75784204D01*
X87521147Y-75777071D01*
X87523837Y-75769632D01*
X87526374Y-75761833D01*
X87528774Y-75753617D01*
X87531054Y-75744930D01*
X87533232Y-75735718D01*
X87535324Y-75725925D01*
X87539319Y-75704375D01*
X87543174Y-75679843D01*
X87547026Y-75651886D01*
X87551009Y-75620066D01*
X87559914Y-75543075D01*
X87593590Y-75290351D01*
X87637724Y-75033938D01*
X87691855Y-74774987D01*
X87755523Y-74514650D01*
X87828268Y-74254078D01*
X87909628Y-73994424D01*
X87999143Y-73736840D01*
X88096354Y-73482477D01*
X88200798Y-73232486D01*
X88312017Y-72988021D01*
X88429548Y-72750232D01*
X88552932Y-72520271D01*
X88681709Y-72299290D01*
X88815417Y-72088442D01*
X88953596Y-71888877D01*
X89095786Y-71701747D01*
X89146855Y-71639922D01*
X89204039Y-71574622D01*
X89266605Y-71506513D01*
X89333816Y-71436261D01*
X89404938Y-71364532D01*
X89479236Y-71291995D01*
X89634418Y-71147156D01*
X89793482Y-71007077D01*
X89872632Y-70940488D01*
X89950548Y-70877088D01*
X90026493Y-70817544D01*
X90099734Y-70762522D01*
X90169535Y-70712688D01*
X90235161Y-70668709D01*
X90322073Y-70614869D01*
X90410045Y-70564670D01*
X90498078Y-70518563D01*
X90585176Y-70477001D01*
X90670342Y-70440436D01*
X90711888Y-70424168D01*
X90752577Y-70409320D01*
X90792285Y-70395947D01*
X90830886Y-70384106D01*
X90868256Y-70373854D01*
X90904270Y-70365246D01*
X91267485Y-70284801D01*
X91323669Y-70273041D01*
X91350691Y-70268076D01*
X91377617Y-70263679D01*
X91404908Y-70259818D01*
X91433027Y-70256460D01*
X91462435Y-70253572D01*
X91493596Y-70251124D01*
X91526971Y-70249083D01*
X91563023Y-70247417D01*
X91645004Y-70245079D01*
X91743238Y-70243854D01*
X91861422Y-70243485D01*
X92074941Y-70246305D01*
X92274604Y-70255456D01*
X92371108Y-70262690D01*
X92466393Y-70271845D01*
X92561204Y-70283037D01*
X92656292Y-70296378D01*
X92752402Y-70311982D01*
X92850284Y-70329961D01*
X93054353Y-70373500D01*
X93274483Y-70427900D01*
X93516656Y-70494068D01*
X94215326Y-70690601D01*
X94631799Y-70801817D01*
X94763779Y-70832793D01*
X94860693Y-70851272D01*
X94934368Y-70860201D01*
X94996630Y-70862523D01*
X95027074Y-70862003D01*
X95058892Y-70860201D01*
X95093564Y-70856747D01*
X95132566Y-70851272D01*
X95177379Y-70843411D01*
X95229480Y-70832793D01*
X95290348Y-70819052D01*
X95361461Y-70801818D01*
X95444297Y-70780724D01*
X95540336Y-70755402D01*
X95777933Y-70690602D01*
X96086079Y-70604472D01*
X96476603Y-70494068D01*
X96718777Y-70427899D01*
X96938907Y-70373498D01*
X97142976Y-70329959D01*
X97336968Y-70296375D01*
X97526867Y-70271842D01*
X97718655Y-70255453D01*
X97918318Y-70246303D01*
X98131837Y-70243485D01*
X98250020Y-70243856D01*
G36*
X98250020Y-70243856D02*
G01*
X98348254Y-70245081D01*
X98430235Y-70247419D01*
X98499662Y-70251126D01*
X98560231Y-70256461D01*
X98615641Y-70263680D01*
X98669589Y-70273041D01*
X98725772Y-70284801D01*
X99088989Y-70365246D01*
X99125003Y-70373854D01*
X99162374Y-70384107D01*
X99200975Y-70395948D01*
X99240683Y-70409321D01*
X99281372Y-70424169D01*
X99322918Y-70440436D01*
X99365197Y-70458066D01*
X99408084Y-70477001D01*
X99451453Y-70497186D01*
X99495181Y-70518563D01*
X99539143Y-70541077D01*
X99583214Y-70564670D01*
X99627270Y-70589286D01*
X99671186Y-70614869D01*
X99714837Y-70641363D01*
X99758098Y-70668709D01*
X99823724Y-70712688D01*
X99893524Y-70762522D01*
X99966765Y-70817544D01*
X100042710Y-70877088D01*
X100199776Y-71007077D01*
X100358840Y-71147156D01*
X100514022Y-71291995D01*
X100659442Y-71436261D01*
X100726653Y-71506513D01*
X100789219Y-71574622D01*
X100846404Y-71639922D01*
X100897473Y-71701747D01*
X101039663Y-71888877D01*
X101177843Y-72088442D01*
X101311551Y-72299290D01*
X101440328Y-72520271D01*
X101563712Y-72750232D01*
X101681244Y-72988021D01*
X101792463Y-73232486D01*
X101896907Y-73482477D01*
X101994118Y-73736840D01*
X102083633Y-73994425D01*
X102164993Y-74254079D01*
X102237738Y-74514650D01*
X102301405Y-74774988D01*
X102355536Y-75033939D01*
X102399670Y-75290353D01*
X102433345Y-75543077D01*
X102442250Y-75620068D01*
X102450085Y-75679844D01*
X102453941Y-75704377D01*
X102457936Y-75725926D01*
X102462205Y-75744932D01*
X102466886Y-75761834D01*
X102472113Y-75777073D01*
X102478022Y-75791088D01*
X102484749Y-75804319D01*
X102492429Y-75817207D01*
X102501198Y-75830192D01*
X102511191Y-75843713D01*
X102535395Y-75874124D01*
X102966308Y-76400616D01*
X103226565Y-76724393D01*
X103497312Y-77072557D01*
X103770884Y-77434545D01*
X104039613Y-77799793D01*
X104295831Y-78157740D01*
X104531871Y-78497822D01*
X104740066Y-78809477D01*
X104912748Y-79082141D01*
X104969263Y-79175580D01*
X105026429Y-79272574D01*
X105091679Y-79386513D01*
X105172445Y-79530783D01*
X105276163Y-79718775D01*
X105410265Y-79963874D01*
X105799355Y-80678952D01*
X106117246Y-81266841D01*
X106239866Y-81497790D01*
X106352777Y-81714979D01*
X106592998Y-82192790D01*
X106924960Y-82869701D01*
X107364072Y-83777365D01*
X107526580Y-84123750D01*
X107662580Y-84424608D01*
X107780711Y-84699515D01*
X107889616Y-84968050D01*
X107997935Y-85249791D01*
X108114309Y-85564315D01*
X108265237Y-85984938D01*
X108406421Y-86395883D01*
X108543031Y-86814274D01*
X108680241Y-87257234D01*
X108823222Y-87741885D01*
X108977146Y-88285349D01*
X109338511Y-89617209D01*
X109646468Y-90801517D01*
X109768363Y-91297714D01*
X109873105Y-91748813D01*
X109963868Y-92168966D01*
X110043830Y-92572329D01*
X110116166Y-92973055D01*
X110184053Y-93385298D01*
X110306319Y-94243718D01*
X110410865Y-95146160D01*
X110496077Y-96065516D01*
X110560343Y-96974680D01*
X110602051Y-97846546D01*
X110619587Y-98654006D01*
X110611338Y-99369954D01*
X110575691Y-99967283D01*
X110547340Y-100232530D01*
X110514226Y-100472750D01*
X110495551Y-100584786D01*
X110475286Y-100692137D01*
X110453300Y-100795329D01*
X110429458Y-100894884D01*
X110403629Y-100991328D01*
X110375679Y-101085184D01*
X110345476Y-101176977D01*
X110312886Y-101267231D01*
X110277778Y-101356470D01*
X110240017Y-101445218D01*
X110199472Y-101533999D01*
X110156008Y-101623338D01*
X110115981Y-101700760D01*
X110074403Y-101776093D01*
X110030972Y-101849703D01*
X109985384Y-101921953D01*
X109937334Y-101993205D01*
X109886519Y-102063824D01*
X109832635Y-102134173D01*
X109775377Y-102204615D01*
X109714441Y-102275515D01*
X109649525Y-102347235D01*
X109580323Y-102420139D01*
X109506531Y-102494590D01*
X109427846Y-102570953D01*
X109343964Y-102649591D01*
X109254581Y-102730866D01*
X109159392Y-102815143D01*
X109050143Y-102909614D01*
X108953324Y-102990924D01*
X108868011Y-103059753D01*
X108793280Y-103116781D01*
X108728206Y-103162691D01*
X108699002Y-103181688D01*
X108671866Y-103198161D01*
X108646682Y-103212195D01*
X108623335Y-103223874D01*
X108601710Y-103233283D01*
X108581690Y-103240508D01*
X108563506Y-103246774D01*
X108538792Y-103255964D01*
X108474156Y-103281353D01*
X108396543Y-103313155D01*
X108314713Y-103347847D01*
X108260737Y-103369843D01*
X108200096Y-103392205D01*
X108061406Y-103437411D01*
X107903822Y-103482231D01*
X107732522Y-103525435D01*
X107552685Y-103565789D01*
X107369487Y-103602062D01*
X107188107Y-103633020D01*
X107013723Y-103657432D01*
X106863377Y-103673744D01*
X106694510Y-103687692D01*
X106499922Y-103699546D01*
X106272410Y-103709576D01*
X106004771Y-103718050D01*
X105689805Y-103725237D01*
X104889080Y-103736828D01*
X104179559Y-103743470D01*
X103929428Y-103742921D01*
X103710281Y-103738615D01*
X103493043Y-103729671D01*
X103248637Y-103715208D01*
X102562018Y-103666192D01*
X102442273Y-103656495D01*
X102310569Y-103644315D01*
X102182882Y-103631210D01*
X102075184Y-103618740D01*
X101806890Y-103586992D01*
X101476316Y-103550290D01*
X101244754Y-103521170D01*
X100933175Y-103475970D01*
X100174709Y-103354817D01*
X99410403Y-103221798D01*
X99091526Y-103161765D01*
X98849746Y-103111877D01*
X98667246Y-103069606D01*
X98488379Y-103025001D01*
X98313845Y-102978268D01*
X98144343Y-102929616D01*
X97980573Y-102879252D01*
X97823235Y-102827385D01*
X97673027Y-102774222D01*
X97530651Y-102719972D01*
X97417062Y-102674275D01*
X97315938Y-102631859D01*
X97224071Y-102591156D01*
X97138250Y-102550596D01*
X97055268Y-102508611D01*
X96971915Y-102463630D01*
X96884984Y-102414085D01*
X96791265Y-102358407D01*
X96716530Y-102313990D01*
X96654713Y-102278567D01*
X96630656Y-102265350D01*
X96612238Y-102255728D01*
X96600259Y-102250148D01*
X96596936Y-102249015D01*
X96595525Y-102249061D01*
X96592986Y-102254387D01*
X96587333Y-102267182D01*
X96568116Y-102311825D01*
X96540728Y-102376274D01*
X96508029Y-102453814D01*
X96469244Y-102542073D01*
X96426665Y-102631708D01*
X96381231Y-102721037D01*
X96333881Y-102808381D01*
X96285557Y-102892059D01*
X96237198Y-102970391D01*
X96189743Y-103041697D01*
X96144133Y-103104296D01*
X96117252Y-103138132D01*
X96088565Y-103172154D01*
X96058280Y-103206183D01*
X96026603Y-103240038D01*
X95993743Y-103273537D01*
X95959906Y-103306501D01*
X95925301Y-103338747D01*
X95890134Y-103370096D01*
X95854613Y-103400367D01*
X95818945Y-103429378D01*
X95783339Y-103456949D01*
X95748000Y-103482899D01*
X95713137Y-103507048D01*
X95678957Y-103529214D01*
X95645667Y-103549217D01*
X95613474Y-103566876D01*
X95576310Y-103585674D01*
X95540068Y-103602873D01*
X95504511Y-103618526D01*
X95469402Y-103632685D01*
X95434503Y-103645406D01*
X95399578Y-103656740D01*
X95364388Y-103666741D01*
X95328697Y-103675463D01*
X95292267Y-103682959D01*
X95254860Y-103689282D01*
X95216240Y-103694487D01*
X95176169Y-103698625D01*
X95134409Y-103701750D01*
X95090723Y-103703917D01*
X95044874Y-103705178D01*
X94996625Y-103705586D01*
X94948376Y-103705178D01*
X94902527Y-103703917D01*
X94858841Y-103701750D01*
X94817081Y-103698625D01*
X94777010Y-103694487D01*
X94738390Y-103689282D01*
X94700983Y-103682959D01*
X94664552Y-103675463D01*
X94628861Y-103666741D01*
X94593671Y-103656740D01*
X94558746Y-103645406D01*
X94523847Y-103632685D01*
X94488738Y-103618526D01*
X94453181Y-103602873D01*
X94416939Y-103585674D01*
X94379774Y-103566876D01*
X94347582Y-103549217D01*
X94314293Y-103529214D01*
X94280113Y-103507048D01*
X94245250Y-103482899D01*
X94209911Y-103456949D01*
X94174305Y-103429378D01*
X94138637Y-103400367D01*
X94103116Y-103370096D01*
X94067949Y-103338747D01*
X94033343Y-103306501D01*
X93999507Y-103273537D01*
X93966646Y-103240038D01*
X93934969Y-103206183D01*
X93904684Y-103172154D01*
X93875996Y-103138132D01*
X93849115Y-103104296D01*
X93826600Y-103074191D01*
X93803506Y-103041698D01*
X93756052Y-102970393D01*
X93707692Y-102892061D01*
X93659368Y-102808382D01*
X93612019Y-102721038D01*
X93566585Y-102631708D01*
X93524005Y-102542073D01*
X93485222Y-102453814D01*
X93425118Y-102311820D01*
X93405897Y-102267177D01*
X93397726Y-102249061D01*
X93397265Y-102248887D01*
X93396314Y-102249014D01*
X93392991Y-102250146D01*
X93387857Y-102252402D01*
X93381013Y-102255725D01*
X93362594Y-102265347D01*
X93338537Y-102278564D01*
X93309645Y-102294928D01*
X93276721Y-102313989D01*
X93240567Y-102335298D01*
X93201986Y-102358407D01*
X93108267Y-102414085D01*
X93021336Y-102463630D01*
X92937983Y-102508611D01*
X92855001Y-102550596D01*
X92769180Y-102591156D01*
X92677312Y-102631859D01*
X92576188Y-102674275D01*
X92462600Y-102719972D01*
X92320222Y-102774222D01*
X92170015Y-102827385D01*
X92012676Y-102879251D01*
X91848906Y-102929614D01*
X91679404Y-102978266D01*
X91504870Y-103024999D01*
X91326003Y-103069605D01*
X91143502Y-103111877D01*
X90902210Y-103161660D01*
X90583678Y-103221630D01*
X89819640Y-103354635D01*
X89060891Y-103475910D01*
X88748969Y-103521217D01*
X88516932Y-103550472D01*
X88188114Y-103587295D01*
X87924039Y-103619048D01*
X87805130Y-103632346D01*
X87642497Y-103647747D01*
X87457546Y-103663342D01*
X87271682Y-103677222D01*
X86584142Y-103726134D01*
X86449017Y-103732905D01*
X86256107Y-103737676D01*
X85721408Y-103741234D01*
X85029009Y-103736840D01*
X84227869Y-103724524D01*
X84227873Y-103724555D01*
X83925009Y-103717510D01*
X83660889Y-103708609D01*
X83429501Y-103697365D01*
X83224835Y-103683291D01*
X83040879Y-103665899D01*
X82871623Y-103644704D01*
X82711056Y-103619218D01*
X82553167Y-103588954D01*
X82403588Y-103557105D01*
X82266684Y-103526068D01*
X82141868Y-103495683D01*
X82028551Y-103465785D01*
X81926148Y-103436215D01*
X81834070Y-103406810D01*
X81751730Y-103377408D01*
X81678541Y-103347847D01*
X81596711Y-103313155D01*
X81519098Y-103281353D01*
X81454462Y-103255964D01*
X81429749Y-103246774D01*
X81411564Y-103240508D01*
X81391544Y-103233283D01*
X81369918Y-103223874D01*
X81346570Y-103212195D01*
X81321386Y-103198161D01*
X81294250Y-103181688D01*
X81265046Y-103162691D01*
X81233659Y-103141084D01*
X81199973Y-103116781D01*
X81163872Y-103089700D01*
X81125242Y-103059753D01*
X81083966Y-103026856D01*
X81039930Y-102990924D01*
X80943111Y-102909614D01*
X80833863Y-102815143D01*
X80738674Y-102730866D01*
X80649291Y-102649590D01*
X80565408Y-102570953D01*
X80486723Y-102494590D01*
X80412931Y-102420138D01*
X80343729Y-102347234D01*
X80278812Y-102275513D01*
X80217876Y-102204614D01*
X80160618Y-102134171D01*
X80106733Y-102063822D01*
X80055918Y-101993204D01*
X80007868Y-101921951D01*
X79962280Y-101849702D01*
X79918849Y-101776092D01*
X79877272Y-101700759D01*
X79837244Y-101623338D01*
X79793782Y-101533999D01*
X79753237Y-101445218D01*
X79715476Y-101356470D01*
X79680368Y-101267231D01*
X79647779Y-101176977D01*
X79617576Y-101085184D01*
X79589626Y-100991328D01*
X79563797Y-100894884D01*
X79539955Y-100795329D01*
X79517969Y-100692137D01*
X79497704Y-100584786D01*
X79479029Y-100472750D01*
X79461810Y-100355506D01*
X79445915Y-100232530D01*
X79417564Y-99967283D01*
X79396215Y-99685139D01*
X79381918Y-99369953D01*
X79375688Y-98829225D01*
X79436574Y-98829225D01*
X79441407Y-99155764D01*
X79452473Y-99469398D01*
X79469627Y-99766984D01*
X79492725Y-100045377D01*
X79521620Y-100301432D01*
X79556167Y-100532003D01*
X79582607Y-100671983D01*
X79613141Y-100808505D01*
X79647802Y-100941632D01*
X79686621Y-101071429D01*
X79729631Y-101197959D01*
X79776863Y-101321286D01*
X79828349Y-101441472D01*
X79884121Y-101558583D01*
X79944211Y-101672682D01*
X80008651Y-101783832D01*
X80077474Y-101892098D01*
X80150710Y-101997542D01*
X80228391Y-102100229D01*
X80310551Y-102200223D01*
X80397220Y-102297586D01*
X80488430Y-102392383D01*
X80590818Y-102492593D01*
X80701138Y-102596656D01*
X80815065Y-102700792D01*
X80928273Y-102801223D01*
X81036437Y-102894170D01*
X81135231Y-102975855D01*
X81220329Y-103042498D01*
X81287405Y-103090321D01*
X81356268Y-103132035D01*
X81435088Y-103173535D01*
X81523066Y-103214598D01*
X81619407Y-103255002D01*
X81723311Y-103294524D01*
X81833981Y-103332941D01*
X81950621Y-103370031D01*
X82072431Y-103405569D01*
X82198615Y-103439334D01*
X82328376Y-103471102D01*
X82460914Y-103500651D01*
X82595434Y-103527758D01*
X82731137Y-103552200D01*
X82867227Y-103573754D01*
X83002904Y-103592196D01*
X83137372Y-103607306D01*
X83488751Y-103633834D01*
X83935335Y-103654476D01*
X84446785Y-103668969D01*
X84992764Y-103677051D01*
X85542932Y-103678458D01*
X86066953Y-103672928D01*
X86534488Y-103660199D01*
X86915199Y-103640007D01*
X86915194Y-103640011D01*
X87277014Y-103611558D01*
X87629845Y-103579846D01*
X87977298Y-103544441D01*
X88322982Y-103504907D01*
X88670508Y-103460808D01*
X89023487Y-103411709D01*
X89385527Y-103357174D01*
X89760240Y-103296769D01*
X90190698Y-103223854D01*
X90562267Y-103157511D01*
X90884592Y-103095594D01*
X91167317Y-103035957D01*
X91420086Y-102976456D01*
X91652543Y-102914943D01*
X91874333Y-102849275D01*
X92095100Y-102777304D01*
X92268763Y-102716741D01*
X92426231Y-102658147D01*
X92570872Y-102599978D01*
X92706052Y-102540689D01*
X92835135Y-102478736D01*
X92961489Y-102412575D01*
X93088480Y-102340661D01*
X93219472Y-102261450D01*
X93250450Y-102242630D01*
X93280710Y-102225073D01*
X93309495Y-102209163D01*
X93336043Y-102195284D01*
X93359595Y-102183820D01*
X93379392Y-102175156D01*
X93387645Y-102171993D01*
X93394674Y-102169675D01*
X93400385Y-102168249D01*
X93404682Y-102167763D01*
X93407069Y-102167921D01*
X93409500Y-102168401D01*
X93411981Y-102169208D01*
X93414515Y-102170351D01*
X93417107Y-102171837D01*
X93419760Y-102173672D01*
X93422480Y-102175864D01*
X93425269Y-102178420D01*
X93428134Y-102181347D01*
X93431077Y-102184651D01*
X93434103Y-102188341D01*
X93437217Y-102192423D01*
X93440422Y-102196904D01*
X93443724Y-102201792D01*
X93447125Y-102207093D01*
X93450631Y-102212815D01*
X93454245Y-102218964D01*
X93457972Y-102225549D01*
X93465783Y-102240050D01*
X93474096Y-102256376D01*
X93482946Y-102274584D01*
X93492367Y-102294730D01*
X93502392Y-102316870D01*
X93513057Y-102341063D01*
X93524395Y-102367364D01*
X93590308Y-102516248D01*
X93622679Y-102585010D01*
X93654858Y-102650299D01*
X93686991Y-102712351D01*
X93719229Y-102771400D01*
X93751719Y-102827682D01*
X93784610Y-102881433D01*
X93818050Y-102932887D01*
X93852187Y-102982280D01*
X93887170Y-103029848D01*
X93923148Y-103075825D01*
X93960267Y-103120447D01*
X93998678Y-103163949D01*
X94038527Y-103206566D01*
X94079964Y-103248534D01*
X94133845Y-103300090D01*
X94186839Y-103347437D01*
X94239231Y-103390697D01*
X94291312Y-103429992D01*
X94343368Y-103465443D01*
X94395686Y-103497173D01*
X94448555Y-103525303D01*
X94502263Y-103549955D01*
X94557097Y-103571250D01*
X94613344Y-103589311D01*
X94671293Y-103604259D01*
X94731230Y-103616216D01*
X94793445Y-103625304D01*
X94858224Y-103631645D01*
X94925856Y-103635360D01*
X94996627Y-103636571D01*
X95067398Y-103635360D01*
X95135029Y-103631645D01*
X95199807Y-103625304D01*
X95262022Y-103616216D01*
X95321959Y-103604259D01*
X95379908Y-103589311D01*
X95436155Y-103571250D01*
X95490989Y-103549955D01*
X95544696Y-103525303D01*
X95597565Y-103497173D01*
X95649884Y-103465443D01*
X95701940Y-103429992D01*
X95754020Y-103390697D01*
X95806413Y-103347437D01*
X95859407Y-103300090D01*
X95913288Y-103248534D01*
X95954725Y-103206567D01*
X95994575Y-103163950D01*
X96032986Y-103120448D01*
X96070105Y-103075827D01*
X96106083Y-103029850D01*
X96141066Y-102982283D01*
X96175203Y-102932890D01*
X96208643Y-102881436D01*
X96241534Y-102827685D01*
X96274024Y-102771403D01*
X96306262Y-102712353D01*
X96338395Y-102650301D01*
X96370574Y-102585012D01*
X96402945Y-102516249D01*
X96435657Y-102443778D01*
X96468859Y-102367364D01*
X96490861Y-102316870D01*
X96510308Y-102274584D01*
X96527471Y-102240050D01*
X96535281Y-102225549D01*
X96542622Y-102212815D01*
X96549529Y-102201792D01*
X96556036Y-102192423D01*
X96562176Y-102184651D01*
X96567984Y-102178420D01*
X96573493Y-102173672D01*
X96578738Y-102170351D01*
X96583753Y-102168401D01*
X96588572Y-102167763D01*
X96592868Y-102168249D01*
X96598578Y-102169675D01*
X96605607Y-102171993D01*
X96613860Y-102175156D01*
X96623241Y-102179114D01*
X96633657Y-102183820D01*
X96645011Y-102189226D01*
X96657209Y-102195284D01*
X96683758Y-102209163D01*
X96712542Y-102225073D01*
X96742803Y-102242630D01*
X96773780Y-102261450D01*
X96904773Y-102340661D01*
X97031763Y-102412575D01*
X97158118Y-102478736D01*
X97287201Y-102540689D01*
X97422381Y-102599978D01*
X97567022Y-102658147D01*
X97724491Y-102716741D01*
X97898154Y-102777304D01*
X98118906Y-102849269D01*
X98340686Y-102914934D01*
X98573130Y-102976444D01*
X98825876Y-103035942D01*
X99108561Y-103095573D01*
X99430820Y-103157481D01*
X99802292Y-103223809D01*
X100232612Y-103296702D01*
X100610483Y-103357619D01*
X100975001Y-103412517D01*
X101330018Y-103461860D01*
X101679391Y-103506112D01*
X102026974Y-103545737D01*
X102376622Y-103581198D01*
X102732190Y-103612959D01*
X103097532Y-103641485D01*
X103473860Y-103660202D01*
X103954663Y-103671239D01*
X104502297Y-103675012D01*
X105079119Y-103671933D01*
X105647486Y-103662417D01*
X106169754Y-103646879D01*
X106608281Y-103625731D01*
X106925424Y-103599388D01*
X107198852Y-103561595D01*
X107466262Y-103513984D01*
X107723397Y-103457772D01*
X107965996Y-103394177D01*
X108189800Y-103324417D01*
X108293323Y-103287606D01*
X108390550Y-103249709D01*
X108480949Y-103210881D01*
X108563988Y-103171272D01*
X108639133Y-103131034D01*
X108705853Y-103090321D01*
X108736851Y-103069009D01*
X108772898Y-103042519D01*
X108857974Y-102975893D01*
X108956760Y-102894217D01*
X109064934Y-102801268D01*
X109178174Y-102700818D01*
X109292158Y-102596645D01*
X109402563Y-102492522D01*
X109505069Y-102392225D01*
X109605978Y-102287025D01*
X109701132Y-102178949D01*
X109790615Y-102067810D01*
X109874512Y-101953422D01*
X109952909Y-101835598D01*
X110025891Y-101714152D01*
X110093542Y-101588896D01*
X110155947Y-101459644D01*
X110213193Y-101326209D01*
X110265363Y-101188406D01*
X110312542Y-101046046D01*
X110354816Y-100898944D01*
X110392269Y-100746912D01*
X110424988Y-100589765D01*
X110453055Y-100427315D01*
X110476558Y-100259377D01*
X110500593Y-100036498D01*
X110519955Y-99792780D01*
X110544808Y-99248050D01*
X110551421Y-98635629D01*
X110540097Y-97965961D01*
X110511139Y-97249490D01*
X110464852Y-96496658D01*
X110401537Y-95717909D01*
X110321500Y-94923686D01*
X110242600Y-94257564D01*
X110156358Y-93634011D01*
X110057567Y-93027284D01*
X109941019Y-92411640D01*
X109801508Y-91761337D01*
X109633827Y-91050633D01*
X109432768Y-90253784D01*
X109193126Y-89345049D01*
X108886259Y-88221073D01*
X108625184Y-87320224D01*
X108502225Y-86921679D01*
X108379201Y-86540765D01*
X108117608Y-85780958D01*
X107997001Y-85446991D01*
X107886087Y-85151340D01*
X107776211Y-84874046D01*
X107658718Y-84595153D01*
X107524952Y-84294702D01*
X107366258Y-83952736D01*
X107173979Y-83549296D01*
X106939462Y-83064427D01*
X106585634Y-82338686D01*
X106334958Y-81837072D01*
X106094166Y-81377106D01*
X105769991Y-80776310D01*
X105157579Y-79652318D01*
X105006173Y-79382165D01*
X104897422Y-79196990D01*
X104717223Y-78909285D01*
X104501982Y-78584495D01*
X104258288Y-78231704D01*
X103992727Y-77859993D01*
X103711888Y-77478445D01*
X103422360Y-77096142D01*
X103130730Y-76722166D01*
X102843587Y-76365600D01*
X102678097Y-76162156D01*
X102540248Y-75989703D01*
X102444430Y-75866450D01*
X102416780Y-75828965D01*
X102405034Y-75810609D01*
X102403290Y-75805229D01*
X102401268Y-75797223D01*
X102396486Y-75773978D01*
X102390883Y-75742152D01*
X102384653Y-75703022D01*
X102377994Y-75657868D01*
X102371101Y-75607966D01*
X102364170Y-75554596D01*
X102357395Y-75499036D01*
X102324841Y-75263066D01*
X102282544Y-75022888D01*
X102230949Y-74779625D01*
X102170497Y-74534399D01*
X102101633Y-74288333D01*
X102024800Y-74042550D01*
X101940441Y-73798173D01*
X101849000Y-73556324D01*
X101750919Y-73318126D01*
X101646641Y-73084702D01*
X101536612Y-72857174D01*
X101421272Y-72636666D01*
X101301066Y-72424300D01*
X101176437Y-72221200D01*
X101047829Y-72028486D01*
X100915684Y-71847284D01*
X100813161Y-71718237D01*
X100704960Y-71591735D01*
X100591872Y-71468379D01*
X100474690Y-71348768D01*
X100354204Y-71233502D01*
X100231207Y-71123182D01*
X100106491Y-71018408D01*
X99980848Y-70919779D01*
X99855069Y-70827896D01*
X99729947Y-70743358D01*
X99606273Y-70666767D01*
X99484840Y-70598721D01*
X99366439Y-70539822D01*
X99251862Y-70490668D01*
X99141901Y-70451860D01*
X99037348Y-70423999D01*
X98730424Y-70356483D01*
X98685058Y-70347012D01*
X98637940Y-70338369D01*
X98539003Y-70323594D01*
X98434723Y-70312221D01*
X98326209Y-70304311D01*
X98214570Y-70299926D01*
X98100914Y-70299129D01*
X97986351Y-70301980D01*
X97871990Y-70308543D01*
X97684493Y-70324263D01*
X97509928Y-70343092D01*
X97342807Y-70366057D01*
X97177645Y-70394182D01*
X97008954Y-70428496D01*
X96831249Y-70470023D01*
X96639041Y-70519790D01*
X96426845Y-70578823D01*
X95769172Y-70764928D01*
X95546214Y-70825534D01*
X95377389Y-70868465D01*
X95250358Y-70896690D01*
X95152781Y-70913176D01*
X95072318Y-70920892D01*
X94996630Y-70922804D01*
X94958613Y-70922388D01*
X94920943Y-70920892D01*
X94882080Y-70917945D01*
X94840481Y-70913176D01*
X94794602Y-70906215D01*
X94742903Y-70896690D01*
X94683840Y-70884230D01*
X94615872Y-70868465D01*
X94537455Y-70849023D01*
X94447047Y-70825534D01*
X94343105Y-70797626D01*
X94224089Y-70764928D01*
X93934658Y-70683681D01*
X93566416Y-70578823D01*
X93354219Y-70519790D01*
X93162012Y-70470023D01*
X92984306Y-70428496D01*
X92815615Y-70394182D01*
X92650453Y-70366057D01*
X92483333Y-70343092D01*
X92308767Y-70324263D01*
X92121269Y-70308543D01*
X92006908Y-70301980D01*
X91892345Y-70299129D01*
X91778689Y-70299927D01*
X91667050Y-70304311D01*
X91558536Y-70312221D01*
X91454256Y-70323595D01*
X91355320Y-70338369D01*
X91262836Y-70356483D01*
X90955913Y-70423999D01*
X90851360Y-70451860D01*
X90741399Y-70490668D01*
X90626822Y-70539821D01*
X90508421Y-70598721D01*
X90386988Y-70666767D01*
X90263314Y-70743358D01*
X90138192Y-70827895D01*
X90012413Y-70919778D01*
X89886770Y-71018407D01*
X89762054Y-71123181D01*
X89639057Y-71233501D01*
X89518571Y-71348767D01*
X89401389Y-71468378D01*
X89288301Y-71591735D01*
X89180100Y-71718237D01*
X89077579Y-71847284D01*
X88945433Y-72028486D01*
X88816825Y-72221200D01*
X88692196Y-72424301D01*
X88571990Y-72636667D01*
X88456650Y-72857175D01*
X88346620Y-73084702D01*
X88242343Y-73318126D01*
X88144262Y-73556324D01*
X88052820Y-73798173D01*
X87968461Y-74042551D01*
X87891628Y-74288334D01*
X87822764Y-74534400D01*
X87762313Y-74779625D01*
X87710717Y-75022889D01*
X87668420Y-75263066D01*
X87635865Y-75499036D01*
X87622160Y-75607965D01*
X87608609Y-75703020D01*
X87602380Y-75742149D01*
X87596777Y-75773976D01*
X87591993Y-75797222D01*
X87588225Y-75810609D01*
X87584453Y-75817253D01*
X87576479Y-75828963D01*
X87548829Y-75866447D01*
X87507073Y-75920785D01*
X87453010Y-75989700D01*
X87388440Y-76070915D01*
X87315161Y-76162155D01*
X87149670Y-76365600D01*
X86984350Y-76569050D01*
X86821185Y-76773508D01*
X86659519Y-76979833D01*
X86498699Y-77188883D01*
X86338069Y-77401518D01*
X86176975Y-77618596D01*
X86014762Y-77840975D01*
X85850775Y-78069516D01*
X85673269Y-78320851D01*
X85516528Y-78547455D01*
X85376391Y-78755867D01*
X85248699Y-78952628D01*
X85129291Y-79144278D01*
X85014006Y-79337356D01*
X84898683Y-79538404D01*
X84779162Y-79753960D01*
X84152221Y-80907845D01*
X83716220Y-81720764D01*
X83452269Y-82248939D01*
X83046748Y-83079537D01*
X82651679Y-83899192D01*
X82419086Y-84394539D01*
X82275220Y-84733982D01*
X82124489Y-85113149D01*
X81969621Y-85524269D01*
X81813341Y-85959571D01*
X81658377Y-86411283D01*
X81507455Y-86871636D01*
X81363302Y-87332858D01*
X81228645Y-87787179D01*
X80919260Y-88897725D01*
X80601005Y-90097672D01*
X80322078Y-91201117D01*
X80130676Y-92022158D01*
X79996124Y-92700302D01*
X79875262Y-93406287D01*
X79768245Y-94138740D01*
X79675226Y-94896290D01*
X79596357Y-95677565D01*
X79531793Y-96481192D01*
X79481686Y-97305800D01*
X79446189Y-98150017D01*
X79438120Y-98492928D01*
X79436574Y-98829225D01*
X79375688Y-98829225D01*
X79373669Y-98654004D01*
X79391205Y-97846544D01*
X79432913Y-96974679D01*
X79497180Y-96065515D01*
X79582393Y-95146159D01*
X79686938Y-94243718D01*
X79809204Y-93385298D01*
X79877090Y-92973054D01*
X79949426Y-92572328D01*
X80029388Y-92168965D01*
X80120151Y-91748811D01*
X80224892Y-91297713D01*
X80346788Y-90801516D01*
X80489013Y-90246066D01*
X80654745Y-89617209D01*
X81016111Y-88285349D01*
X81313016Y-87257234D01*
X81450226Y-86814274D01*
X81586837Y-86395883D01*
X81728020Y-85984938D01*
X81878948Y-85564315D01*
X81995322Y-85249791D01*
X82103641Y-84968050D01*
X82212545Y-84699515D01*
X82330676Y-84424608D01*
X82466676Y-84123750D01*
X82629184Y-83777365D01*
X82826844Y-83365875D01*
X83068295Y-82869701D01*
X83400259Y-82192790D01*
X83640481Y-81714979D01*
X83876012Y-81266841D01*
X84193901Y-80678952D01*
X84820813Y-79530783D01*
X84966829Y-79272574D01*
X85080510Y-79082141D01*
X85253193Y-78809477D01*
X85461389Y-78497822D01*
X85697429Y-78157740D01*
X85953647Y-77799793D01*
X86222376Y-77434544D01*
X86495948Y-77072556D01*
X86766696Y-76724392D01*
X87026953Y-76400614D01*
X87457864Y-75874123D01*
X87470714Y-75858209D01*
X87482068Y-75843711D01*
X87492062Y-75830190D01*
X87500831Y-75817206D01*
X87504798Y-75810777D01*
X87508511Y-75804318D01*
X87511985Y-75797772D01*
X87515238Y-75791086D01*
X87518286Y-75784204D01*
X87521147Y-75777071D01*
X87523837Y-75769632D01*
X87526374Y-75761833D01*
X87528774Y-75753617D01*
X87531054Y-75744930D01*
X87533232Y-75735718D01*
X87535324Y-75725925D01*
X87539319Y-75704375D01*
X87543174Y-75679843D01*
X87547026Y-75651886D01*
X87551009Y-75620066D01*
X87559914Y-75543075D01*
X87593590Y-75290351D01*
X87637724Y-75033938D01*
X87691855Y-74774987D01*
X87755523Y-74514650D01*
X87828268Y-74254078D01*
X87909628Y-73994424D01*
X87999143Y-73736840D01*
X88096354Y-73482477D01*
X88200798Y-73232486D01*
X88312017Y-72988021D01*
X88429548Y-72750232D01*
X88552932Y-72520271D01*
X88681709Y-72299290D01*
X88815417Y-72088442D01*
X88953596Y-71888877D01*
X89095786Y-71701747D01*
X89146855Y-71639922D01*
X89204039Y-71574622D01*
X89266605Y-71506513D01*
X89333816Y-71436261D01*
X89404938Y-71364532D01*
X89479236Y-71291995D01*
X89634418Y-71147156D01*
X89793482Y-71007077D01*
X89872632Y-70940488D01*
X89950548Y-70877088D01*
X90026493Y-70817544D01*
X90099734Y-70762522D01*
X90169535Y-70712688D01*
X90235161Y-70668709D01*
X90322073Y-70614869D01*
X90410045Y-70564670D01*
X90498078Y-70518563D01*
X90585176Y-70477001D01*
X90670342Y-70440436D01*
X90711888Y-70424168D01*
X90752577Y-70409320D01*
X90792285Y-70395947D01*
X90830886Y-70384106D01*
X90868256Y-70373854D01*
X90904270Y-70365246D01*
X91267485Y-70284801D01*
X91323669Y-70273041D01*
X91350691Y-70268076D01*
X91377617Y-70263679D01*
X91404908Y-70259818D01*
X91433027Y-70256460D01*
X91462435Y-70253572D01*
X91493596Y-70251124D01*
X91526971Y-70249083D01*
X91563023Y-70247417D01*
X91645004Y-70245079D01*
X91743238Y-70243854D01*
X91861422Y-70243485D01*
X92074941Y-70246305D01*
X92274604Y-70255456D01*
X92371108Y-70262690D01*
X92466393Y-70271845D01*
X92561204Y-70283037D01*
X92656292Y-70296378D01*
X92752402Y-70311982D01*
X92850284Y-70329961D01*
X93054353Y-70373500D01*
X93274483Y-70427900D01*
X93516656Y-70494068D01*
X94215326Y-70690601D01*
X94631799Y-70801817D01*
X94763779Y-70832793D01*
X94860693Y-70851272D01*
X94934368Y-70860201D01*
X94996630Y-70862523D01*
X95027074Y-70862003D01*
X95058892Y-70860201D01*
X95093564Y-70856747D01*
X95132566Y-70851272D01*
X95177379Y-70843411D01*
X95229480Y-70832793D01*
X95290348Y-70819052D01*
X95361461Y-70801818D01*
X95444297Y-70780724D01*
X95540336Y-70755402D01*
X95777933Y-70690602D01*
X96086079Y-70604472D01*
X96476603Y-70494068D01*
X96718777Y-70427899D01*
X96938907Y-70373498D01*
X97142976Y-70329959D01*
X97336968Y-70296375D01*
X97526867Y-70271842D01*
X97718655Y-70255453D01*
X97918318Y-70246303D01*
X98131837Y-70243485D01*
X98250020Y-70243856D01*
G37*
X98018270Y-71981659D02*
X98168562Y-71993241D01*
X98313859Y-72013124D01*
X98454735Y-72041441D01*
X98591760Y-72078328D01*
X98725505Y-72123918D01*
X98856543Y-72178345D01*
X98985444Y-72241744D01*
X99112781Y-72314248D01*
X99239125Y-72395991D01*
X99365047Y-72487108D01*
X99491118Y-72587733D01*
X99590393Y-72675088D01*
X99687704Y-72769683D01*
X99782783Y-72871068D01*
X99875363Y-72978794D01*
X99965173Y-73092410D01*
X100051946Y-73211466D01*
X100135412Y-73335512D01*
X100215304Y-73464098D01*
X100291352Y-73596773D01*
X100363287Y-73733088D01*
X100430842Y-73872592D01*
X100493747Y-74014835D01*
X100551735Y-74159368D01*
X100604535Y-74305739D01*
X100651879Y-74453499D01*
X100693500Y-74602198D01*
X100705725Y-74651007D01*
X100719072Y-74707298D01*
X100747407Y-74834321D01*
X100775056Y-74967258D01*
X100798571Y-75090099D01*
X100819305Y-75201334D01*
X100839381Y-75302664D01*
X100856507Y-75382907D01*
X100863249Y-75411627D01*
X100868393Y-75430882D01*
X100870633Y-75439492D01*
X100873085Y-75451131D01*
X100878525Y-75482699D01*
X100884519Y-75523989D01*
X100890871Y-75573402D01*
X100897387Y-75629342D01*
X100903871Y-75690212D01*
X100910129Y-75754413D01*
X100915965Y-75820348D01*
X100944621Y-76147378D01*
X100975651Y-76482442D01*
X100989290Y-76671016D01*
X100997774Y-76891518D01*
X101001244Y-77134254D01*
X100999843Y-77389531D01*
X100993713Y-77647652D01*
X100982997Y-77898925D01*
X100967836Y-78133654D01*
X100948372Y-78342145D01*
X100883157Y-78895176D01*
X100816032Y-79398566D01*
X100742566Y-79875675D01*
X100658331Y-80349868D01*
X100558897Y-80844504D01*
X100439837Y-81382947D01*
X100296721Y-81988558D01*
X100125120Y-82684700D01*
X99892260Y-83628670D01*
X99687939Y-84476248D01*
X99566211Y-84982074D01*
X99438462Y-85498298D01*
X99328468Y-85930116D01*
X99260004Y-86182724D01*
X99257969Y-86186063D01*
X99253734Y-86190081D01*
X99239025Y-86200013D01*
X99216610Y-86212241D01*
X99187222Y-86226484D01*
X99151594Y-86242460D01*
X99110458Y-86259888D01*
X99014594Y-86297978D01*
X98905491Y-86338506D01*
X98789010Y-86379223D01*
X98671013Y-86417882D01*
X98557361Y-86452235D01*
X98441461Y-86483643D01*
X98323314Y-86511887D01*
X98202495Y-86536992D01*
X98078575Y-86558982D01*
X97951127Y-86577882D01*
X97819725Y-86593718D01*
X97683942Y-86606512D01*
X97543349Y-86616291D01*
X97397520Y-86623079D01*
X97246028Y-86626900D01*
X97088447Y-86627780D01*
X96924347Y-86625743D01*
X96574888Y-86613017D01*
X96194234Y-86588920D01*
X95867873Y-86567223D01*
X95589835Y-86555282D01*
X95466719Y-86553147D01*
X95353023Y-86553661D01*
X95247860Y-86556896D01*
X95150343Y-86562922D01*
X95059584Y-86571808D01*
X94974696Y-86583626D01*
X94894793Y-86598444D01*
X94818988Y-86616335D01*
X94746392Y-86637367D01*
X94676121Y-86661612D01*
X94607285Y-86689139D01*
X94538999Y-86720018D01*
X94505168Y-86737347D01*
X94470765Y-86757256D01*
X94436033Y-86779512D01*
X94401215Y-86803880D01*
X94366554Y-86830126D01*
X94332294Y-86858017D01*
X94298678Y-86887318D01*
X94265949Y-86917795D01*
X94234351Y-86949213D01*
X94204126Y-86981340D01*
X94175518Y-87013941D01*
X94148771Y-87046782D01*
X94124127Y-87079629D01*
X94101829Y-87112247D01*
X94082122Y-87144403D01*
X94065247Y-87175863D01*
X94031408Y-87250516D01*
X94003778Y-87325200D01*
X93982325Y-87399742D01*
X93967022Y-87473970D01*
X93957839Y-87547710D01*
X93954746Y-87620789D01*
X93957714Y-87693034D01*
X93966713Y-87764273D01*
X93981715Y-87834332D01*
X94002690Y-87903038D01*
X94029608Y-87970218D01*
X94062440Y-88035700D01*
X94101157Y-88099311D01*
X94145729Y-88160877D01*
X94196126Y-88220225D01*
X94252321Y-88277182D01*
X94305772Y-88325276D01*
X94362475Y-88371854D01*
X94422355Y-88416882D01*
X94485339Y-88460325D01*
X94551354Y-88502149D01*
X94620326Y-88542318D01*
X94692181Y-88580798D01*
X94766848Y-88617555D01*
X94844251Y-88652554D01*
X94924317Y-88685761D01*
X95006974Y-88717140D01*
X95092148Y-88746657D01*
X95179764Y-88774277D01*
X95269751Y-88799966D01*
X95362035Y-88823690D01*
X95456541Y-88845412D01*
X95591949Y-88872913D01*
X95724025Y-88895694D01*
X95856610Y-88914094D01*
X95993544Y-88928456D01*
X96138669Y-88939119D01*
X96295825Y-88946425D01*
X96468853Y-88950714D01*
X96661593Y-88952326D01*
X96901718Y-88950788D01*
X97123457Y-88944886D01*
X97330826Y-88934239D01*
X97527842Y-88918468D01*
X97718520Y-88897193D01*
X97906878Y-88870034D01*
X98096933Y-88836612D01*
X98292699Y-88796546D01*
X98340915Y-88786361D01*
X98386384Y-88777347D01*
X98428077Y-88769667D01*
X98464962Y-88763483D01*
X98496011Y-88758958D01*
X98520193Y-88756254D01*
X98536479Y-88755534D01*
X98541338Y-88755968D01*
X98543837Y-88756958D01*
X98544025Y-88762187D01*
X98542104Y-88775053D01*
X98532329Y-88822105D01*
X98515309Y-88894928D01*
X98491843Y-88990335D01*
X98428760Y-89236150D01*
X98349459Y-89534054D01*
X98132065Y-90354433D01*
X97899724Y-91252969D01*
X97668476Y-92149959D01*
X97453706Y-92966622D01*
X97263129Y-93697481D01*
X97090048Y-94388175D01*
X96660502Y-96150509D01*
X96415290Y-97164948D01*
X96203386Y-98058896D01*
X96078827Y-98591194D01*
X95972664Y-99028665D01*
X95826349Y-99606832D01*
X95581332Y-100561220D01*
X95462948Y-101018839D01*
X95369727Y-101366910D01*
X95295558Y-101620393D01*
X95263708Y-101716338D01*
X95234330Y-101794245D01*
X95206660Y-101855983D01*
X95179934Y-101903424D01*
X95153388Y-101938436D01*
X95126257Y-101962889D01*
X95097780Y-101978654D01*
X95067190Y-101987599D01*
X95033726Y-101991595D01*
X94996622Y-101992512D01*
X94981659Y-101992400D01*
X94967782Y-101992052D01*
X94954921Y-101991448D01*
X94943006Y-101990570D01*
X94931969Y-101989397D01*
X94921740Y-101987913D01*
X94912250Y-101986095D01*
X94903430Y-101983927D01*
X94895209Y-101981389D01*
X94887520Y-101978461D01*
X94880292Y-101975124D01*
X94873456Y-101971360D01*
X94866943Y-101967149D01*
X94860684Y-101962472D01*
X94854609Y-101957310D01*
X94848650Y-101951643D01*
X94848655Y-101951640D01*
X94840280Y-101942809D01*
X94831987Y-101933087D01*
X94823732Y-101922338D01*
X94815475Y-101910429D01*
X94807172Y-101897225D01*
X94798782Y-101882593D01*
X94781570Y-101848506D01*
X94763504Y-101807094D01*
X94744245Y-101757285D01*
X94723457Y-101698004D01*
X94700802Y-101628180D01*
X94675944Y-101546739D01*
X94648545Y-101452607D01*
X94618268Y-101344712D01*
X94584776Y-101221980D01*
X94506799Y-100927712D01*
X94411918Y-100561220D01*
X94020985Y-99030367D01*
X93915299Y-98595157D01*
X93791831Y-98067922D01*
X93622937Y-97350101D01*
X93478373Y-96746433D01*
X93388508Y-96369564D01*
X93361172Y-96248739D01*
X93351132Y-96197025D01*
X93351238Y-96193473D01*
X93351578Y-96190185D01*
X93351845Y-96188641D01*
X93352183Y-96187164D01*
X93352595Y-96185755D01*
X93353086Y-96184415D01*
X93353659Y-96183144D01*
X93354318Y-96181942D01*
X93355068Y-96180811D01*
X93355912Y-96179751D01*
X93356854Y-96178762D01*
X93357899Y-96177845D01*
X93359050Y-96177000D01*
X93360311Y-96176229D01*
X93361687Y-96175531D01*
X93363181Y-96174907D01*
X93364797Y-96174358D01*
X93366539Y-96173884D01*
X93368412Y-96173486D01*
X93370419Y-96173165D01*
X93372565Y-96172921D01*
X93374852Y-96172754D01*
X93377286Y-96172665D01*
X93379870Y-96172655D01*
X93385505Y-96172873D01*
X93391789Y-96173412D01*
X93398753Y-96174277D01*
X93406431Y-96175473D01*
X93414853Y-96177004D01*
X93424051Y-96178874D01*
X93434059Y-96181087D01*
X93444906Y-96183650D01*
X93456627Y-96186565D01*
X93469252Y-96189837D01*
X93482813Y-96193472D01*
X93497342Y-96197473D01*
X93512872Y-96201844D01*
X93547060Y-96211718D01*
X93585633Y-96223129D01*
X93628845Y-96236114D01*
X93803114Y-96284408D01*
X93973250Y-96322784D01*
X94139097Y-96351268D01*
X94300497Y-96369890D01*
X94457294Y-96378678D01*
X94609332Y-96377660D01*
X94756455Y-96366866D01*
X94898504Y-96346323D01*
X95035324Y-96316061D01*
X95166759Y-96276107D01*
X95292651Y-96226490D01*
X95412844Y-96167239D01*
X95527182Y-96098382D01*
X95635507Y-96019948D01*
X95737664Y-95931966D01*
X95833495Y-95834463D01*
X95858138Y-95805894D01*
X95882890Y-95774583D01*
X95907566Y-95740886D01*
X95931983Y-95705160D01*
X95955954Y-95667759D01*
X95979296Y-95629042D01*
X96001825Y-95589365D01*
X96023354Y-95549082D01*
X96043700Y-95508552D01*
X96062679Y-95468130D01*
X96080104Y-95428172D01*
X96095793Y-95389035D01*
X96109559Y-95351075D01*
X96121219Y-95314649D01*
X96130588Y-95280112D01*
X96137481Y-95247822D01*
X96143049Y-95211576D01*
X96146616Y-95175791D01*
X96148184Y-95140477D01*
X96147757Y-95105648D01*
X96145340Y-95071316D01*
X96140934Y-95037492D01*
X96134544Y-95004190D01*
X96126173Y-94971421D01*
X96115826Y-94939197D01*
X96103504Y-94907531D01*
X96089213Y-94876435D01*
X96072955Y-94845922D01*
X96054734Y-94816002D01*
X96034553Y-94786689D01*
X96012417Y-94757995D01*
X95988328Y-94729932D01*
X95960361Y-94701198D01*
X95930125Y-94674425D01*
X95897565Y-94649595D01*
X95862626Y-94626692D01*
X95825255Y-94605699D01*
X95785396Y-94586599D01*
X95742994Y-94569374D01*
X95697997Y-94554008D01*
X95650348Y-94540484D01*
X95599994Y-94528785D01*
X95546880Y-94518894D01*
X95490952Y-94510793D01*
X95432154Y-94504467D01*
X95370433Y-94499897D01*
X95305734Y-94497067D01*
X95238003Y-94495960D01*
X95069626Y-94492471D01*
X94901493Y-94483402D01*
X94735665Y-94469037D01*
X94574202Y-94449659D01*
X94419166Y-94425552D01*
X94272617Y-94396999D01*
X94136616Y-94364285D01*
X94073215Y-94346455D01*
X94013224Y-94327692D01*
X93973457Y-94313911D01*
X93930955Y-94297970D01*
X93839208Y-94260332D01*
X93740914Y-94216237D01*
X93639001Y-94167142D01*
X93536399Y-94114504D01*
X93436039Y-94059780D01*
X93340851Y-94004429D01*
X93253763Y-93949906D01*
X93220466Y-93927114D01*
X93184075Y-93900342D01*
X93145175Y-93870133D01*
X93104348Y-93837031D01*
X93019249Y-93764321D01*
X92933444Y-93686560D01*
X92851600Y-93608098D01*
X92778383Y-93533282D01*
X92746469Y-93498601D01*
X92718461Y-93466463D01*
X92694944Y-93437410D01*
X92676500Y-93411988D01*
X92667944Y-93393570D01*
X92655128Y-93357571D01*
X92616973Y-93233792D01*
X92562552Y-93042570D01*
X92492381Y-92785822D01*
X92306859Y-92083424D01*
X92064546Y-91141945D01*
X91890826Y-90467089D01*
X91716404Y-89807773D01*
X91495622Y-88993774D01*
X91182818Y-87854871D01*
X90929723Y-86923379D01*
X90696244Y-86038956D01*
X90488497Y-85225138D01*
X90312597Y-84505457D01*
X90092423Y-83593681D01*
X89858680Y-82645755D01*
X89676311Y-81906406D01*
X89537551Y-81318679D01*
X89429810Y-80827461D01*
X89340498Y-80377639D01*
X89311479Y-80221789D01*
X89289734Y-80099629D01*
X89274890Y-80007180D01*
X89266574Y-79940463D01*
X89264747Y-79915511D01*
X89264412Y-79895499D01*
X89265523Y-79879930D01*
X89268031Y-79868308D01*
X89271892Y-79860134D01*
X89277058Y-79854911D01*
X89283482Y-79852142D01*
X89291119Y-79851330D01*
X89295147Y-79851771D01*
X89301093Y-79853067D01*
X89308838Y-79855172D01*
X89318266Y-79858043D01*
X89341700Y-79865912D01*
X89370456Y-79876322D01*
X89403595Y-79888926D01*
X89440180Y-79903375D01*
X89479271Y-79919320D01*
X89519931Y-79936411D01*
X89688706Y-80005138D01*
X89872160Y-80073746D01*
X90277376Y-80209213D01*
X90724107Y-80340022D01*
X91200887Y-80463383D01*
X91696245Y-80576506D01*
X92198713Y-80676602D01*
X92696821Y-80760879D01*
X93179100Y-80826549D01*
X93352351Y-80844345D01*
X93538373Y-80858793D01*
X93730835Y-80869717D01*
X93923408Y-80876940D01*
X94109763Y-80880286D01*
X94283568Y-80879578D01*
X94438495Y-80874639D01*
X94568213Y-80865294D01*
X94718830Y-80847850D01*
X94886139Y-80824680D01*
X95061693Y-80797298D01*
X95237041Y-80767220D01*
X95403734Y-80735961D01*
X95553322Y-80705036D01*
X95677358Y-80675960D01*
X95767392Y-80650248D01*
X95840657Y-80624762D01*
X95910199Y-80598597D01*
X95976220Y-80571617D01*
X96038920Y-80543688D01*
X96098502Y-80514672D01*
X96155165Y-80484435D01*
X96209112Y-80452841D01*
X96260544Y-80419753D01*
X96309662Y-80385036D01*
X96356668Y-80348555D01*
X96401762Y-80310173D01*
X96445147Y-80269755D01*
X96487023Y-80227165D01*
X96527592Y-80182267D01*
X96567054Y-80134926D01*
X96605613Y-80085006D01*
X96663691Y-80005051D01*
X96689651Y-79967629D01*
X96713714Y-79931611D01*
X96735998Y-79896772D01*
X96756621Y-79862888D01*
X96775699Y-79829734D01*
X96793351Y-79797084D01*
X96809694Y-79764716D01*
X96824846Y-79732403D01*
X96838923Y-79699922D01*
X96852044Y-79667046D01*
X96864326Y-79633553D01*
X96875886Y-79599216D01*
X96886842Y-79563812D01*
X96897312Y-79527115D01*
X96909236Y-79479868D01*
X96918899Y-79433351D01*
X96926315Y-79387588D01*
X96931497Y-79342600D01*
X96934462Y-79298411D01*
X96935223Y-79255043D01*
X96933795Y-79212519D01*
X96930193Y-79170861D01*
X96924430Y-79130091D01*
X96916522Y-79090234D01*
X96906484Y-79051310D01*
X96894328Y-79013343D01*
X96880072Y-78976355D01*
X96863728Y-78940369D01*
X96845311Y-78905407D01*
X96824836Y-78871493D01*
X96802318Y-78838647D01*
X96777770Y-78806894D01*
X96751208Y-78776256D01*
X96722647Y-78746756D01*
X96692099Y-78718415D01*
X96659581Y-78691257D01*
X96625107Y-78665303D01*
X96588691Y-78640578D01*
X96550348Y-78617103D01*
X96510092Y-78594901D01*
X96467939Y-78573994D01*
X96423901Y-78554406D01*
X96377995Y-78536158D01*
X96330234Y-78519274D01*
X96280634Y-78503775D01*
X96229208Y-78489685D01*
X96183826Y-78478579D01*
X96138094Y-78468460D01*
X96091285Y-78459272D01*
X96042675Y-78450960D01*
X95991540Y-78443467D01*
X95937154Y-78436738D01*
X95878792Y-78430716D01*
X95815731Y-78425347D01*
X95672607Y-78416339D01*
X95501984Y-78409268D01*
X95298063Y-78403687D01*
X95055046Y-78399148D01*
X94792025Y-78393876D01*
X94553776Y-78386576D01*
X94335757Y-78376930D01*
X94133423Y-78364617D01*
X93942232Y-78349320D01*
X93757639Y-78330720D01*
X93575102Y-78308496D01*
X93390075Y-78282332D01*
X92973785Y-78215565D01*
X92578052Y-78143482D01*
X92201532Y-78065751D01*
X91842879Y-77982037D01*
X91500750Y-77892007D01*
X91173801Y-77795328D01*
X90860687Y-77691667D01*
X90560064Y-77580691D01*
X90331356Y-77487814D01*
X90226029Y-77441872D01*
X90126246Y-77395972D01*
X90031653Y-77349896D01*
X89941896Y-77303430D01*
X89856618Y-77256354D01*
X89775466Y-77208454D01*
X89698085Y-77159513D01*
X89624120Y-77109313D01*
X89553217Y-77057638D01*
X89485020Y-77004271D01*
X89419175Y-76948996D01*
X89355327Y-76891595D01*
X89293122Y-76831853D01*
X89232205Y-76769553D01*
X89024465Y-76550597D01*
X89028425Y-76482063D01*
X89081464Y-76482063D01*
X89156990Y-76574309D01*
X89205138Y-76631962D01*
X89252756Y-76686569D01*
X89300158Y-76738378D01*
X89347657Y-76787636D01*
X89395569Y-76834590D01*
X89444208Y-76879489D01*
X89493886Y-76922579D01*
X89544919Y-76964109D01*
X89597621Y-77004325D01*
X89652305Y-77043475D01*
X89709286Y-77081807D01*
X89768877Y-77119568D01*
X89831394Y-77157006D01*
X89897149Y-77194369D01*
X89966458Y-77231903D01*
X90039633Y-77269856D01*
X90180754Y-77339220D01*
X90327325Y-77406559D01*
X90479408Y-77471891D01*
X90637069Y-77535234D01*
X90800369Y-77596609D01*
X90969374Y-77656033D01*
X91144145Y-77713526D01*
X91324748Y-77769106D01*
X91703700Y-77874605D01*
X92106737Y-77972681D01*
X92534370Y-78063485D01*
X92987105Y-78147170D01*
X93277554Y-78196160D01*
X93525182Y-78234823D01*
X93746138Y-78264636D01*
X93956572Y-78287075D01*
X94172635Y-78303615D01*
X94410477Y-78315732D01*
X94686247Y-78324903D01*
X95016096Y-78332602D01*
X95351981Y-78340947D01*
X95647520Y-78350931D01*
X95870763Y-78361300D01*
X95945291Y-78366236D01*
X95989764Y-78370798D01*
X96078378Y-78385774D01*
X96162589Y-78402788D01*
X96242451Y-78421870D01*
X96318018Y-78443049D01*
X96389346Y-78466355D01*
X96456487Y-78491818D01*
X96519498Y-78519466D01*
X96578431Y-78549331D01*
X96633342Y-78581441D01*
X96684285Y-78615827D01*
X96731314Y-78652517D01*
X96774484Y-78691541D01*
X96813850Y-78732930D01*
X96849465Y-78776712D01*
X96881384Y-78822917D01*
X96909662Y-78871575D01*
X96925692Y-78903381D01*
X96940270Y-78935630D01*
X96953396Y-78968314D01*
X96965071Y-79001422D01*
X96975298Y-79034947D01*
X96984079Y-79068879D01*
X96997304Y-79137928D01*
X97004759Y-79208496D01*
X97006456Y-79280511D01*
X97002408Y-79353900D01*
X96992626Y-79428590D01*
X96977123Y-79504509D01*
X96955912Y-79581584D01*
X96929003Y-79659743D01*
X96896410Y-79738913D01*
X96858144Y-79819021D01*
X96814218Y-79899995D01*
X96764645Y-79981762D01*
X96709435Y-80064249D01*
X96674763Y-80113075D01*
X96641805Y-80157995D01*
X96610190Y-80199341D01*
X96579551Y-80237443D01*
X96549519Y-80272631D01*
X96519724Y-80305236D01*
X96489797Y-80335587D01*
X96459370Y-80364015D01*
X96428074Y-80390850D01*
X96395540Y-80416422D01*
X96361399Y-80441062D01*
X96325282Y-80465101D01*
X96286821Y-80488867D01*
X96245646Y-80512693D01*
X96201388Y-80536907D01*
X96153679Y-80561840D01*
X96101139Y-80588344D01*
X96050941Y-80612685D01*
X96002352Y-80635080D01*
X95954637Y-80655744D01*
X95907064Y-80674893D01*
X95858899Y-80692742D01*
X95809408Y-80709508D01*
X95757858Y-80725406D01*
X95703515Y-80740651D01*
X95645645Y-80755461D01*
X95583515Y-80770049D01*
X95516391Y-80784633D01*
X95364227Y-80814649D01*
X95183284Y-80847234D01*
X95036628Y-80872526D01*
X94916690Y-80892026D01*
X94814106Y-80906619D01*
X94719512Y-80917189D01*
X94623544Y-80924623D01*
X94516835Y-80929803D01*
X94390022Y-80933615D01*
X94233741Y-80936944D01*
X94002437Y-80939333D01*
X93786473Y-80936644D01*
X93577726Y-80928174D01*
X93368075Y-80913220D01*
X93149398Y-80891076D01*
X92913572Y-80861039D01*
X92652475Y-80822404D01*
X92357986Y-80774468D01*
X91987181Y-80706881D01*
X91606415Y-80627747D01*
X91223531Y-80539151D01*
X90846373Y-80443185D01*
X90482785Y-80341934D01*
X90140613Y-80237489D01*
X89827699Y-80131937D01*
X89551889Y-80027368D01*
X89492764Y-80003694D01*
X89444153Y-79985011D01*
X89405330Y-79971116D01*
X89375567Y-79961808D01*
X89363856Y-79958811D01*
X89354138Y-79956885D01*
X89346322Y-79956004D01*
X89340316Y-79956144D01*
X89336031Y-79957279D01*
X89333375Y-79959384D01*
X89332257Y-79962433D01*
X89332587Y-79966402D01*
X89340812Y-80007627D01*
X89357905Y-80096968D01*
X89408702Y-80367375D01*
X89451014Y-80587040D01*
X89498693Y-80820226D01*
X89612794Y-81338723D01*
X89756294Y-81945979D01*
X89934481Y-82665106D01*
X90150719Y-83536443D01*
X90332841Y-84291254D01*
X90542561Y-85157456D01*
X90786790Y-86113142D01*
X91080804Y-87216746D01*
X91439876Y-88526706D01*
X91647419Y-89280183D01*
X91810052Y-89882365D01*
X91958678Y-90449338D01*
X92124203Y-91097185D01*
X92338382Y-91930569D01*
X92528482Y-92649602D01*
X92669680Y-93162021D01*
X92714185Y-93311919D01*
X92737157Y-93375566D01*
X92751911Y-93395592D01*
X92772066Y-93419916D01*
X92796969Y-93447923D01*
X92825966Y-93478992D01*
X92893632Y-93547850D01*
X92969839Y-93621549D01*
X93049360Y-93695145D01*
X93126970Y-93763695D01*
X93163426Y-93794534D01*
X93197444Y-93822259D01*
X93228371Y-93846250D01*
X93255555Y-93865892D01*
X93341804Y-93922657D01*
X93434401Y-93978910D01*
X93531382Y-94033656D01*
X93630779Y-94085897D01*
X93730628Y-94134639D01*
X93828961Y-94178883D01*
X93923814Y-94217635D01*
X93969321Y-94234639D01*
X94013220Y-94249896D01*
X94070366Y-94268348D01*
X94127350Y-94285502D01*
X94184505Y-94301411D01*
X94242161Y-94316125D01*
X94300652Y-94329696D01*
X94360308Y-94342177D01*
X94421462Y-94353618D01*
X94484445Y-94364072D01*
X94549589Y-94373591D01*
X94617227Y-94382225D01*
X94761309Y-94397049D01*
X94919345Y-94408957D01*
X95093990Y-94418364D01*
X95265042Y-94426675D01*
X95403465Y-94435092D01*
X95514768Y-94444457D01*
X95604460Y-94455611D01*
X95642923Y-94462122D01*
X95678049Y-94469396D01*
X95710527Y-94477538D01*
X95741045Y-94486654D01*
X95770293Y-94496848D01*
X95798957Y-94508226D01*
X95857293Y-94534954D01*
X95898315Y-94556724D01*
X95936856Y-94580570D01*
X95972914Y-94606407D01*
X96006485Y-94634154D01*
X96037564Y-94663730D01*
X96066147Y-94695050D01*
X96092232Y-94728033D01*
X96115813Y-94762598D01*
X96136886Y-94798660D01*
X96155448Y-94836139D01*
X96171496Y-94874951D01*
X96185024Y-94915015D01*
X96196029Y-94956248D01*
X96204507Y-94998568D01*
X96210454Y-95041892D01*
X96213866Y-95086139D01*
X96214739Y-95131225D01*
X96213069Y-95177069D01*
X96208853Y-95223588D01*
X96202086Y-95270699D01*
X96192764Y-95318322D01*
X96180883Y-95366372D01*
X96166440Y-95414769D01*
X96149431Y-95463429D01*
X96129851Y-95512270D01*
X96107697Y-95561210D01*
X96082964Y-95610167D01*
X96055649Y-95659058D01*
X96025748Y-95707801D01*
X95993257Y-95756314D01*
X95958171Y-95804514D01*
X95920487Y-95852319D01*
X95880561Y-95898948D01*
X95838469Y-95944050D01*
X95794287Y-95987576D01*
X95748092Y-96029478D01*
X95699962Y-96069709D01*
X95649973Y-96108219D01*
X95598203Y-96144961D01*
X95544727Y-96179886D01*
X95489624Y-96212947D01*
X95432969Y-96244095D01*
X95374841Y-96273282D01*
X95315315Y-96300460D01*
X95254469Y-96325580D01*
X95192380Y-96348595D01*
X95129125Y-96369456D01*
X95064780Y-96388115D01*
X95012865Y-96401470D01*
X94988572Y-96407027D01*
X94964663Y-96411894D01*
X94940596Y-96416116D01*
X94915825Y-96419735D01*
X94889807Y-96422794D01*
X94861999Y-96425337D01*
X94831855Y-96427407D01*
X94798833Y-96429048D01*
X94762389Y-96430302D01*
X94721977Y-96431213D01*
X94627080Y-96432179D01*
X94509790Y-96432292D01*
X94364085Y-96430739D01*
X94235774Y-96426153D01*
X94120249Y-96417872D01*
X94065842Y-96412138D01*
X94012903Y-96405231D01*
X93960858Y-96397068D01*
X93909130Y-96387567D01*
X93857143Y-96376644D01*
X93804321Y-96364216D01*
X93693870Y-96334514D01*
X93573170Y-96297797D01*
X93530385Y-96284416D01*
X93496960Y-96274564D01*
X93483446Y-96270929D01*
X93471898Y-96268138D01*
X93462191Y-96266177D01*
X93454199Y-96265034D01*
X93447799Y-96264697D01*
X93442865Y-96265151D01*
X93439273Y-96266384D01*
X93437941Y-96267289D01*
X93436898Y-96268384D01*
X93436127Y-96269668D01*
X93435614Y-96271138D01*
X93435297Y-96274632D01*
X93435823Y-96278854D01*
X93437066Y-96283791D01*
X93493105Y-96509536D01*
X93606958Y-96983894D01*
X93867328Y-98088106D01*
X94122786Y-99144529D01*
X94422631Y-100327585D01*
X94683046Y-101312886D01*
X94772276Y-101630006D01*
X94820217Y-101776041D01*
X94831991Y-101798824D01*
X94843158Y-101819434D01*
X94853828Y-101837966D01*
X94864109Y-101854518D01*
X94874109Y-101869187D01*
X94883937Y-101882071D01*
X94893702Y-101893267D01*
X94903511Y-101902871D01*
X94913474Y-101910981D01*
X94918547Y-101914507D01*
X94923699Y-101917695D01*
X94928944Y-101920558D01*
X94934295Y-101923109D01*
X94939765Y-101925359D01*
X94945369Y-101927321D01*
X94957030Y-101930428D01*
X94969387Y-101932526D01*
X94982549Y-101933714D01*
X94996623Y-101934089D01*
X95003445Y-101933926D01*
X95010396Y-101933448D01*
X95017424Y-101932672D01*
X95024481Y-101931613D01*
X95031518Y-101930287D01*
X95038484Y-101928711D01*
X95045330Y-101926901D01*
X95052006Y-101924872D01*
X95058464Y-101922642D01*
X95064652Y-101920225D01*
X95070522Y-101917639D01*
X95076025Y-101914899D01*
X95081109Y-101912021D01*
X95085727Y-101909022D01*
X95089827Y-101905918D01*
X95093362Y-101902724D01*
X95093365Y-101902724D01*
X95102261Y-101893512D01*
X95110917Y-101883718D01*
X95119446Y-101872950D01*
X95127958Y-101860817D01*
X95136567Y-101846924D01*
X95145383Y-101830881D01*
X95154518Y-101812294D01*
X95164083Y-101790772D01*
X95174191Y-101765921D01*
X95184953Y-101737350D01*
X95196481Y-101704666D01*
X95208886Y-101667477D01*
X95222281Y-101625390D01*
X95236776Y-101578013D01*
X95269515Y-101465821D01*
X95307996Y-101327759D01*
X95353114Y-101160691D01*
X95405762Y-100961476D01*
X95466832Y-100726977D01*
X95537218Y-100454053D01*
X95617814Y-100139565D01*
X95813208Y-99373345D01*
X95972521Y-98730725D01*
X96125793Y-98088106D01*
X96288178Y-97399724D01*
X96469406Y-96647079D01*
X96906158Y-94845796D01*
X97159852Y-93825759D01*
X97429822Y-92781625D01*
X97700271Y-91751788D01*
X97955124Y-90766135D01*
X98166634Y-89949228D01*
X98332878Y-89325108D01*
X98426360Y-88979757D01*
X98453894Y-88873511D01*
X98460993Y-88844060D01*
X98462934Y-88833080D01*
X98462526Y-88832864D01*
X98461700Y-88832751D01*
X98458831Y-88832823D01*
X98454414Y-88833279D01*
X98448536Y-88834101D01*
X98432739Y-88836777D01*
X98412131Y-88840716D01*
X98387404Y-88845780D01*
X98359246Y-88851833D01*
X98328351Y-88858739D01*
X98295407Y-88866361D01*
X98185501Y-88890248D01*
X98066756Y-88912405D01*
X97807114Y-88951258D01*
X97525206Y-88982380D01*
X97229761Y-89005230D01*
X96929504Y-89019268D01*
X96633163Y-89023954D01*
X96349464Y-89018746D01*
X96087135Y-89003106D01*
X95926173Y-88987260D01*
X95769955Y-88967380D01*
X95618632Y-88943521D01*
X95472357Y-88915741D01*
X95331284Y-88884094D01*
X95195563Y-88848638D01*
X95065349Y-88809427D01*
X94940792Y-88766519D01*
X94822046Y-88719969D01*
X94709264Y-88669833D01*
X94602597Y-88616168D01*
X94502198Y-88559029D01*
X94408220Y-88498472D01*
X94320815Y-88434554D01*
X94240135Y-88367330D01*
X94166334Y-88296857D01*
X94127118Y-88254362D01*
X94090677Y-88210178D01*
X94057050Y-88164432D01*
X94026281Y-88117247D01*
X93998411Y-88068750D01*
X93973481Y-88019065D01*
X93951534Y-87968317D01*
X93932612Y-87916632D01*
X93916756Y-87864136D01*
X93904008Y-87810953D01*
X93894410Y-87757208D01*
X93888003Y-87703027D01*
X93884830Y-87648535D01*
X93884932Y-87593857D01*
X93888351Y-87539118D01*
X93895128Y-87484445D01*
X93911762Y-87397101D01*
X93933971Y-87313352D01*
X93947151Y-87272841D01*
X93961706Y-87233249D01*
X93977630Y-87194582D01*
X93994916Y-87156846D01*
X94013557Y-87120048D01*
X94033549Y-87084194D01*
X94054883Y-87049292D01*
X94077554Y-87015348D01*
X94101556Y-86982367D01*
X94126882Y-86950358D01*
X94153525Y-86919326D01*
X94181480Y-86889278D01*
X94210739Y-86860221D01*
X94241297Y-86832161D01*
X94306284Y-86779059D01*
X94376388Y-86730025D01*
X94451559Y-86685111D01*
X94531746Y-86644370D01*
X94616899Y-86607854D01*
X94706965Y-86575617D01*
X94801894Y-86547711D01*
X94848204Y-86537196D01*
X94902927Y-86527786D01*
X94965355Y-86519497D01*
X95034777Y-86512343D01*
X95191771Y-86501495D01*
X95368233Y-86495359D01*
X95558490Y-86494050D01*
X95756868Y-86497682D01*
X95957693Y-86506371D01*
X96155290Y-86520232D01*
X96504984Y-86546017D01*
X96828112Y-86561480D01*
X97127470Y-86566511D01*
X97405851Y-86560995D01*
X97666052Y-86544820D01*
X97910866Y-86517874D01*
X98143089Y-86480043D01*
X98365515Y-86431216D01*
X98477609Y-86400871D01*
X98605889Y-86362237D01*
X98741039Y-86318589D01*
X98873747Y-86273204D01*
X98994699Y-86229359D01*
X99094581Y-86190330D01*
X99164078Y-86159393D01*
X99184522Y-86147982D01*
X99193878Y-86139824D01*
X99214133Y-86077432D01*
X99252892Y-85936686D01*
X99370690Y-85480451D01*
X99516801Y-84891760D01*
X99660756Y-84291254D01*
X99842634Y-83536443D01*
X100058769Y-82665106D01*
X100304029Y-81666021D01*
X100402710Y-81239589D01*
X100488219Y-80848693D01*
X100562650Y-80483428D01*
X100628099Y-80133892D01*
X100686661Y-79790181D01*
X100740429Y-79442392D01*
X100808913Y-78949386D01*
X100863056Y-78494753D01*
X100903065Y-78074445D01*
X100929146Y-77684415D01*
X100941505Y-77320615D01*
X100940349Y-76979000D01*
X100925883Y-76655521D01*
X100898315Y-76346132D01*
X100885335Y-76222927D01*
X100871783Y-76081801D01*
X100859265Y-75940169D01*
X100849386Y-75815444D01*
X100844883Y-75759346D01*
X100839528Y-75702558D01*
X100833520Y-75646643D01*
X100827060Y-75593161D01*
X100820347Y-75543674D01*
X100813581Y-75499742D01*
X100806963Y-75462928D01*
X100800691Y-75434792D01*
X100793808Y-75406577D01*
X100785431Y-75369534D01*
X100765493Y-75275276D01*
X100743462Y-75164637D01*
X100721927Y-75050234D01*
X100699954Y-74936245D01*
X100675952Y-74824310D01*
X100649885Y-74714337D01*
X100621720Y-74606236D01*
X100591422Y-74499917D01*
X100558957Y-74395287D01*
X100524290Y-74292256D01*
X100487387Y-74190732D01*
X100448213Y-74090626D01*
X100406736Y-73991846D01*
X100362919Y-73894301D01*
X100316729Y-73797899D01*
X100268131Y-73702551D01*
X100217091Y-73608164D01*
X100163575Y-73514649D01*
X100107548Y-73421913D01*
X100031807Y-73305322D01*
X99951561Y-73192362D01*
X99867118Y-73083283D01*
X99778783Y-72978336D01*
X99686864Y-72877771D01*
X99591668Y-72781837D01*
X99493500Y-72690787D01*
X99392668Y-72604869D01*
X99289479Y-72524333D01*
X99184240Y-72449431D01*
X99077256Y-72380413D01*
X98968835Y-72317528D01*
X98859284Y-72261027D01*
X98748909Y-72211160D01*
X98638017Y-72168178D01*
X98526914Y-72132331D01*
X98427674Y-72106273D01*
X98325428Y-72084768D01*
X98220099Y-72067818D01*
X98111606Y-72055431D01*
X97999870Y-72047611D01*
X97884812Y-72044363D01*
X97766352Y-72045693D01*
X97644412Y-72051606D01*
X97518912Y-72062107D01*
X97389773Y-72077201D01*
X97256915Y-72096894D01*
X97120260Y-72121191D01*
X96979727Y-72150097D01*
X96835238Y-72183618D01*
X96686714Y-72221758D01*
X96534075Y-72264524D01*
X96391061Y-72304168D01*
X96216899Y-72349402D01*
X96033604Y-72394654D01*
X95863187Y-72434349D01*
X95483457Y-72519345D01*
X94509791Y-72519345D01*
X94130061Y-72434349D01*
X93959645Y-72394653D01*
X93776350Y-72349402D01*
X93602189Y-72304168D01*
X93459176Y-72264524D01*
X93218503Y-72199176D01*
X92983887Y-72144978D01*
X92756736Y-72102100D01*
X92646400Y-72084958D01*
X92538458Y-72070710D01*
X92433087Y-72059375D01*
X92330462Y-72050977D01*
X92230760Y-72045534D01*
X92134156Y-72043070D01*
X92040827Y-72043604D01*
X91950948Y-72047157D01*
X91864695Y-72053752D01*
X91782246Y-72063409D01*
X91691378Y-72078072D01*
X91601127Y-72096689D01*
X91511533Y-72119237D01*
X91422639Y-72145697D01*
X91334485Y-72176047D01*
X91247113Y-72210265D01*
X91160564Y-72248330D01*
X91074879Y-72290221D01*
X90990100Y-72335917D01*
X90906268Y-72385396D01*
X90823425Y-72438638D01*
X90741611Y-72495621D01*
X90660869Y-72556323D01*
X90581239Y-72620724D01*
X90502763Y-72688802D01*
X90425482Y-72760537D01*
X90317363Y-72868976D01*
X90213873Y-72982374D01*
X90115046Y-73100659D01*
X90020921Y-73223759D01*
X89931533Y-73351602D01*
X89846918Y-73484115D01*
X89767113Y-73621226D01*
X89692155Y-73762863D01*
X89622080Y-73908954D01*
X89556923Y-74059427D01*
X89496722Y-74214209D01*
X89441514Y-74373228D01*
X89391333Y-74536412D01*
X89346217Y-74703689D01*
X89306202Y-74874987D01*
X89271325Y-75050233D01*
X89249796Y-75164609D01*
X89227785Y-75275178D01*
X89207874Y-75369330D01*
X89192645Y-75434459D01*
X89186405Y-75462336D01*
X89179842Y-75498539D01*
X89173152Y-75541544D01*
X89166533Y-75589832D01*
X89160180Y-75641880D01*
X89154292Y-75696168D01*
X89149065Y-75751173D01*
X89144695Y-75805375D01*
X89135645Y-75922207D01*
X89124896Y-76049302D01*
X89113793Y-76171319D01*
X89103682Y-76272915D01*
X89081464Y-76482063D01*
X89028425Y-76482063D01*
X89035715Y-76355866D01*
X89055625Y-76067095D01*
X89080436Y-75782244D01*
X89105172Y-75552958D01*
X89115956Y-75475291D01*
X89124855Y-75430882D01*
X89129999Y-75411627D01*
X89136740Y-75382907D01*
X89144791Y-75346120D01*
X89153866Y-75302664D01*
X89173942Y-75201334D01*
X89194677Y-75090099D01*
X89218193Y-74967257D01*
X89245843Y-74834320D01*
X89274177Y-74707297D01*
X89299751Y-74602198D01*
X89341370Y-74453499D01*
X89388714Y-74305739D01*
X89441514Y-74159368D01*
X89499501Y-74014835D01*
X89562406Y-73872592D01*
X89629961Y-73733088D01*
X89701896Y-73596773D01*
X89777944Y-73464098D01*
X89857836Y-73335512D01*
X89941302Y-73211466D01*
X90028075Y-73092410D01*
X90117885Y-72978794D01*
X90210464Y-72871068D01*
X90305543Y-72769683D01*
X90402854Y-72675088D01*
X90502128Y-72587733D01*
X90628200Y-72487108D01*
X90754123Y-72395991D01*
X90880466Y-72314247D01*
X91007803Y-72241743D01*
X91136705Y-72178345D01*
X91267743Y-72123917D01*
X91401488Y-72078327D01*
X91538513Y-72041441D01*
X91679389Y-72013123D01*
X91824687Y-71993240D01*
X91974979Y-71981658D01*
X92130836Y-71978243D01*
X92292830Y-71982860D01*
X92461532Y-71995376D01*
X92637514Y-72015657D01*
X92821348Y-72043568D01*
X92905378Y-72058186D01*
X92983302Y-72072968D01*
X93060923Y-72089321D01*
X93144046Y-72108652D01*
X93238475Y-72132370D01*
X93350014Y-72161880D01*
X93647637Y-72243909D01*
X93771173Y-72276610D01*
X93924334Y-72314516D01*
X94087630Y-72352927D01*
X94241574Y-72387141D01*
X94354794Y-72411118D01*
X94446106Y-72429268D01*
X94486129Y-72436411D01*
X94523773Y-72442402D01*
X94560072Y-72447341D01*
X94596058Y-72451331D01*
X94632764Y-72454471D01*
X94671223Y-72456865D01*
X94757531Y-72459814D01*
X94863244Y-72460989D01*
X94996625Y-72461201D01*
X95130006Y-72460989D01*
X95235719Y-72459814D01*
X95322027Y-72456865D01*
X95360486Y-72454471D01*
X95397192Y-72451331D01*
X95433178Y-72447341D01*
X95469476Y-72442402D01*
X95547144Y-72429268D01*
X95638456Y-72411118D01*
X95751676Y-72387141D01*
X95905620Y-72352927D01*
X96068916Y-72314517D01*
X96222076Y-72276611D01*
X96345611Y-72243909D01*
X96643234Y-72161880D01*
X96754773Y-72132370D01*
X96849202Y-72108652D01*
X96932325Y-72089321D01*
X97009947Y-72072968D01*
X97087870Y-72058186D01*
X97171900Y-72043568D01*
X97355734Y-72015657D01*
X97531716Y-71995377D01*
X97700419Y-71982861D01*
X97862413Y-71978243D01*
X98018270Y-71981659D01*
G36*
X98018270Y-71981659D02*
G01*
X98168562Y-71993241D01*
X98313859Y-72013124D01*
X98454735Y-72041441D01*
X98591760Y-72078328D01*
X98725505Y-72123918D01*
X98856543Y-72178345D01*
X98985444Y-72241744D01*
X99112781Y-72314248D01*
X99239125Y-72395991D01*
X99365047Y-72487108D01*
X99491118Y-72587733D01*
X99590393Y-72675088D01*
X99687704Y-72769683D01*
X99782783Y-72871068D01*
X99875363Y-72978794D01*
X99965173Y-73092410D01*
X100051946Y-73211466D01*
X100135412Y-73335512D01*
X100215304Y-73464098D01*
X100291352Y-73596773D01*
X100363287Y-73733088D01*
X100430842Y-73872592D01*
X100493747Y-74014835D01*
X100551735Y-74159368D01*
X100604535Y-74305739D01*
X100651879Y-74453499D01*
X100693500Y-74602198D01*
X100705725Y-74651007D01*
X100719072Y-74707298D01*
X100747407Y-74834321D01*
X100775056Y-74967258D01*
X100798571Y-75090099D01*
X100819305Y-75201334D01*
X100839381Y-75302664D01*
X100856507Y-75382907D01*
X100863249Y-75411627D01*
X100868393Y-75430882D01*
X100870633Y-75439492D01*
X100873085Y-75451131D01*
X100878525Y-75482699D01*
X100884519Y-75523989D01*
X100890871Y-75573402D01*
X100897387Y-75629342D01*
X100903871Y-75690212D01*
X100910129Y-75754413D01*
X100915965Y-75820348D01*
X100944621Y-76147378D01*
X100975651Y-76482442D01*
X100989290Y-76671016D01*
X100997774Y-76891518D01*
X101001244Y-77134254D01*
X100999843Y-77389531D01*
X100993713Y-77647652D01*
X100982997Y-77898925D01*
X100967836Y-78133654D01*
X100948372Y-78342145D01*
X100883157Y-78895176D01*
X100816032Y-79398566D01*
X100742566Y-79875675D01*
X100658331Y-80349868D01*
X100558897Y-80844504D01*
X100439837Y-81382947D01*
X100296721Y-81988558D01*
X100125120Y-82684700D01*
X99892260Y-83628670D01*
X99687939Y-84476248D01*
X99566211Y-84982074D01*
X99438462Y-85498298D01*
X99328468Y-85930116D01*
X99260004Y-86182724D01*
X99257969Y-86186063D01*
X99253734Y-86190081D01*
X99239025Y-86200013D01*
X99216610Y-86212241D01*
X99187222Y-86226484D01*
X99151594Y-86242460D01*
X99110458Y-86259888D01*
X99014594Y-86297978D01*
X98905491Y-86338506D01*
X98789010Y-86379223D01*
X98671013Y-86417882D01*
X98557361Y-86452235D01*
X98441461Y-86483643D01*
X98323314Y-86511887D01*
X98202495Y-86536992D01*
X98078575Y-86558982D01*
X97951127Y-86577882D01*
X97819725Y-86593718D01*
X97683942Y-86606512D01*
X97543349Y-86616291D01*
X97397520Y-86623079D01*
X97246028Y-86626900D01*
X97088447Y-86627780D01*
X96924347Y-86625743D01*
X96574888Y-86613017D01*
X96194234Y-86588920D01*
X95867873Y-86567223D01*
X95589835Y-86555282D01*
X95466719Y-86553147D01*
X95353023Y-86553661D01*
X95247860Y-86556896D01*
X95150343Y-86562922D01*
X95059584Y-86571808D01*
X94974696Y-86583626D01*
X94894793Y-86598444D01*
X94818988Y-86616335D01*
X94746392Y-86637367D01*
X94676121Y-86661612D01*
X94607285Y-86689139D01*
X94538999Y-86720018D01*
X94505168Y-86737347D01*
X94470765Y-86757256D01*
X94436033Y-86779512D01*
X94401215Y-86803880D01*
X94366554Y-86830126D01*
X94332294Y-86858017D01*
X94298678Y-86887318D01*
X94265949Y-86917795D01*
X94234351Y-86949213D01*
X94204126Y-86981340D01*
X94175518Y-87013941D01*
X94148771Y-87046782D01*
X94124127Y-87079629D01*
X94101829Y-87112247D01*
X94082122Y-87144403D01*
X94065247Y-87175863D01*
X94031408Y-87250516D01*
X94003778Y-87325200D01*
X93982325Y-87399742D01*
X93967022Y-87473970D01*
X93957839Y-87547710D01*
X93954746Y-87620789D01*
X93957714Y-87693034D01*
X93966713Y-87764273D01*
X93981715Y-87834332D01*
X94002690Y-87903038D01*
X94029608Y-87970218D01*
X94062440Y-88035700D01*
X94101157Y-88099311D01*
X94145729Y-88160877D01*
X94196126Y-88220225D01*
X94252321Y-88277182D01*
X94305772Y-88325276D01*
X94362475Y-88371854D01*
X94422355Y-88416882D01*
X94485339Y-88460325D01*
X94551354Y-88502149D01*
X94620326Y-88542318D01*
X94692181Y-88580798D01*
X94766848Y-88617555D01*
X94844251Y-88652554D01*
X94924317Y-88685761D01*
X95006974Y-88717140D01*
X95092148Y-88746657D01*
X95179764Y-88774277D01*
X95269751Y-88799966D01*
X95362035Y-88823690D01*
X95456541Y-88845412D01*
X95591949Y-88872913D01*
X95724025Y-88895694D01*
X95856610Y-88914094D01*
X95993544Y-88928456D01*
X96138669Y-88939119D01*
X96295825Y-88946425D01*
X96468853Y-88950714D01*
X96661593Y-88952326D01*
X96901718Y-88950788D01*
X97123457Y-88944886D01*
X97330826Y-88934239D01*
X97527842Y-88918468D01*
X97718520Y-88897193D01*
X97906878Y-88870034D01*
X98096933Y-88836612D01*
X98292699Y-88796546D01*
X98340915Y-88786361D01*
X98386384Y-88777347D01*
X98428077Y-88769667D01*
X98464962Y-88763483D01*
X98496011Y-88758958D01*
X98520193Y-88756254D01*
X98536479Y-88755534D01*
X98541338Y-88755968D01*
X98543837Y-88756958D01*
X98544025Y-88762187D01*
X98542104Y-88775053D01*
X98532329Y-88822105D01*
X98515309Y-88894928D01*
X98491843Y-88990335D01*
X98428760Y-89236150D01*
X98349459Y-89534054D01*
X98132065Y-90354433D01*
X97899724Y-91252969D01*
X97668476Y-92149959D01*
X97453706Y-92966622D01*
X97263129Y-93697481D01*
X97090048Y-94388175D01*
X96660502Y-96150509D01*
X96415290Y-97164948D01*
X96203386Y-98058896D01*
X96078827Y-98591194D01*
X95972664Y-99028665D01*
X95826349Y-99606832D01*
X95581332Y-100561220D01*
X95462948Y-101018839D01*
X95369727Y-101366910D01*
X95295558Y-101620393D01*
X95263708Y-101716338D01*
X95234330Y-101794245D01*
X95206660Y-101855983D01*
X95179934Y-101903424D01*
X95153388Y-101938436D01*
X95126257Y-101962889D01*
X95097780Y-101978654D01*
X95067190Y-101987599D01*
X95033726Y-101991595D01*
X94996622Y-101992512D01*
X94981659Y-101992400D01*
X94967782Y-101992052D01*
X94954921Y-101991448D01*
X94943006Y-101990570D01*
X94931969Y-101989397D01*
X94921740Y-101987913D01*
X94912250Y-101986095D01*
X94903430Y-101983927D01*
X94895209Y-101981389D01*
X94887520Y-101978461D01*
X94880292Y-101975124D01*
X94873456Y-101971360D01*
X94866943Y-101967149D01*
X94860684Y-101962472D01*
X94854609Y-101957310D01*
X94848650Y-101951643D01*
X94848655Y-101951640D01*
X94840280Y-101942809D01*
X94831987Y-101933087D01*
X94823732Y-101922338D01*
X94815475Y-101910429D01*
X94807172Y-101897225D01*
X94798782Y-101882593D01*
X94781570Y-101848506D01*
X94763504Y-101807094D01*
X94744245Y-101757285D01*
X94723457Y-101698004D01*
X94700802Y-101628180D01*
X94675944Y-101546739D01*
X94648545Y-101452607D01*
X94618268Y-101344712D01*
X94584776Y-101221980D01*
X94506799Y-100927712D01*
X94411918Y-100561220D01*
X94020985Y-99030367D01*
X93915299Y-98595157D01*
X93791831Y-98067922D01*
X93622937Y-97350101D01*
X93478373Y-96746433D01*
X93388508Y-96369564D01*
X93361172Y-96248739D01*
X93351132Y-96197025D01*
X93351238Y-96193473D01*
X93351578Y-96190185D01*
X93351845Y-96188641D01*
X93352183Y-96187164D01*
X93352595Y-96185755D01*
X93353086Y-96184415D01*
X93353659Y-96183144D01*
X93354318Y-96181942D01*
X93355068Y-96180811D01*
X93355912Y-96179751D01*
X93356854Y-96178762D01*
X93357899Y-96177845D01*
X93359050Y-96177000D01*
X93360311Y-96176229D01*
X93361687Y-96175531D01*
X93363181Y-96174907D01*
X93364797Y-96174358D01*
X93366539Y-96173884D01*
X93368412Y-96173486D01*
X93370419Y-96173165D01*
X93372565Y-96172921D01*
X93374852Y-96172754D01*
X93377286Y-96172665D01*
X93379870Y-96172655D01*
X93385505Y-96172873D01*
X93391789Y-96173412D01*
X93398753Y-96174277D01*
X93406431Y-96175473D01*
X93414853Y-96177004D01*
X93424051Y-96178874D01*
X93434059Y-96181087D01*
X93444906Y-96183650D01*
X93456627Y-96186565D01*
X93469252Y-96189837D01*
X93482813Y-96193472D01*
X93497342Y-96197473D01*
X93512872Y-96201844D01*
X93547060Y-96211718D01*
X93585633Y-96223129D01*
X93628845Y-96236114D01*
X93803114Y-96284408D01*
X93973250Y-96322784D01*
X94139097Y-96351268D01*
X94300497Y-96369890D01*
X94457294Y-96378678D01*
X94609332Y-96377660D01*
X94756455Y-96366866D01*
X94898504Y-96346323D01*
X95035324Y-96316061D01*
X95166759Y-96276107D01*
X95292651Y-96226490D01*
X95412844Y-96167239D01*
X95527182Y-96098382D01*
X95635507Y-96019948D01*
X95737664Y-95931966D01*
X95833495Y-95834463D01*
X95858138Y-95805894D01*
X95882890Y-95774583D01*
X95907566Y-95740886D01*
X95931983Y-95705160D01*
X95955954Y-95667759D01*
X95979296Y-95629042D01*
X96001825Y-95589365D01*
X96023354Y-95549082D01*
X96043700Y-95508552D01*
X96062679Y-95468130D01*
X96080104Y-95428172D01*
X96095793Y-95389035D01*
X96109559Y-95351075D01*
X96121219Y-95314649D01*
X96130588Y-95280112D01*
X96137481Y-95247822D01*
X96143049Y-95211576D01*
X96146616Y-95175791D01*
X96148184Y-95140477D01*
X96147757Y-95105648D01*
X96145340Y-95071316D01*
X96140934Y-95037492D01*
X96134544Y-95004190D01*
X96126173Y-94971421D01*
X96115826Y-94939197D01*
X96103504Y-94907531D01*
X96089213Y-94876435D01*
X96072955Y-94845922D01*
X96054734Y-94816002D01*
X96034553Y-94786689D01*
X96012417Y-94757995D01*
X95988328Y-94729932D01*
X95960361Y-94701198D01*
X95930125Y-94674425D01*
X95897565Y-94649595D01*
X95862626Y-94626692D01*
X95825255Y-94605699D01*
X95785396Y-94586599D01*
X95742994Y-94569374D01*
X95697997Y-94554008D01*
X95650348Y-94540484D01*
X95599994Y-94528785D01*
X95546880Y-94518894D01*
X95490952Y-94510793D01*
X95432154Y-94504467D01*
X95370433Y-94499897D01*
X95305734Y-94497067D01*
X95238003Y-94495960D01*
X95069626Y-94492471D01*
X94901493Y-94483402D01*
X94735665Y-94469037D01*
X94574202Y-94449659D01*
X94419166Y-94425552D01*
X94272617Y-94396999D01*
X94136616Y-94364285D01*
X94073215Y-94346455D01*
X94013224Y-94327692D01*
X93973457Y-94313911D01*
X93930955Y-94297970D01*
X93839208Y-94260332D01*
X93740914Y-94216237D01*
X93639001Y-94167142D01*
X93536399Y-94114504D01*
X93436039Y-94059780D01*
X93340851Y-94004429D01*
X93253763Y-93949906D01*
X93220466Y-93927114D01*
X93184075Y-93900342D01*
X93145175Y-93870133D01*
X93104348Y-93837031D01*
X93019249Y-93764321D01*
X92933444Y-93686560D01*
X92851600Y-93608098D01*
X92778383Y-93533282D01*
X92746469Y-93498601D01*
X92718461Y-93466463D01*
X92694944Y-93437410D01*
X92676500Y-93411988D01*
X92667944Y-93393570D01*
X92655128Y-93357571D01*
X92616973Y-93233792D01*
X92562552Y-93042570D01*
X92492381Y-92785822D01*
X92306859Y-92083424D01*
X92064546Y-91141945D01*
X91890826Y-90467089D01*
X91716404Y-89807773D01*
X91495622Y-88993774D01*
X91182818Y-87854871D01*
X90929723Y-86923379D01*
X90696244Y-86038956D01*
X90488497Y-85225138D01*
X90312597Y-84505457D01*
X90092423Y-83593681D01*
X89858680Y-82645755D01*
X89676311Y-81906406D01*
X89537551Y-81318679D01*
X89429810Y-80827461D01*
X89340498Y-80377639D01*
X89311479Y-80221789D01*
X89289734Y-80099629D01*
X89274890Y-80007180D01*
X89266574Y-79940463D01*
X89264747Y-79915511D01*
X89264412Y-79895499D01*
X89265523Y-79879930D01*
X89268031Y-79868308D01*
X89271892Y-79860134D01*
X89277058Y-79854911D01*
X89283482Y-79852142D01*
X89291119Y-79851330D01*
X89295147Y-79851771D01*
X89301093Y-79853067D01*
X89308838Y-79855172D01*
X89318266Y-79858043D01*
X89341700Y-79865912D01*
X89370456Y-79876322D01*
X89403595Y-79888926D01*
X89440180Y-79903375D01*
X89479271Y-79919320D01*
X89519931Y-79936411D01*
X89688706Y-80005138D01*
X89872160Y-80073746D01*
X90277376Y-80209213D01*
X90724107Y-80340022D01*
X91200887Y-80463383D01*
X91696245Y-80576506D01*
X92198713Y-80676602D01*
X92696821Y-80760879D01*
X93179100Y-80826549D01*
X93352351Y-80844345D01*
X93538373Y-80858793D01*
X93730835Y-80869717D01*
X93923408Y-80876940D01*
X94109763Y-80880286D01*
X94283568Y-80879578D01*
X94438495Y-80874639D01*
X94568213Y-80865294D01*
X94718830Y-80847850D01*
X94886139Y-80824680D01*
X95061693Y-80797298D01*
X95237041Y-80767220D01*
X95403734Y-80735961D01*
X95553322Y-80705036D01*
X95677358Y-80675960D01*
X95767392Y-80650248D01*
X95840657Y-80624762D01*
X95910199Y-80598597D01*
X95976220Y-80571617D01*
X96038920Y-80543688D01*
X96098502Y-80514672D01*
X96155165Y-80484435D01*
X96209112Y-80452841D01*
X96260544Y-80419753D01*
X96309662Y-80385036D01*
X96356668Y-80348555D01*
X96401762Y-80310173D01*
X96445147Y-80269755D01*
X96487023Y-80227165D01*
X96527592Y-80182267D01*
X96567054Y-80134926D01*
X96605613Y-80085006D01*
X96663691Y-80005051D01*
X96689651Y-79967629D01*
X96713714Y-79931611D01*
X96735998Y-79896772D01*
X96756621Y-79862888D01*
X96775699Y-79829734D01*
X96793351Y-79797084D01*
X96809694Y-79764716D01*
X96824846Y-79732403D01*
X96838923Y-79699922D01*
X96852044Y-79667046D01*
X96864326Y-79633553D01*
X96875886Y-79599216D01*
X96886842Y-79563812D01*
X96897312Y-79527115D01*
X96909236Y-79479868D01*
X96918899Y-79433351D01*
X96926315Y-79387588D01*
X96931497Y-79342600D01*
X96934462Y-79298411D01*
X96935223Y-79255043D01*
X96933795Y-79212519D01*
X96930193Y-79170861D01*
X96924430Y-79130091D01*
X96916522Y-79090234D01*
X96906484Y-79051310D01*
X96894328Y-79013343D01*
X96880072Y-78976355D01*
X96863728Y-78940369D01*
X96845311Y-78905407D01*
X96824836Y-78871493D01*
X96802318Y-78838647D01*
X96777770Y-78806894D01*
X96751208Y-78776256D01*
X96722647Y-78746756D01*
X96692099Y-78718415D01*
X96659581Y-78691257D01*
X96625107Y-78665303D01*
X96588691Y-78640578D01*
X96550348Y-78617103D01*
X96510092Y-78594901D01*
X96467939Y-78573994D01*
X96423901Y-78554406D01*
X96377995Y-78536158D01*
X96330234Y-78519274D01*
X96280634Y-78503775D01*
X96229208Y-78489685D01*
X96183826Y-78478579D01*
X96138094Y-78468460D01*
X96091285Y-78459272D01*
X96042675Y-78450960D01*
X95991540Y-78443467D01*
X95937154Y-78436738D01*
X95878792Y-78430716D01*
X95815731Y-78425347D01*
X95672607Y-78416339D01*
X95501984Y-78409268D01*
X95298063Y-78403687D01*
X95055046Y-78399148D01*
X94792025Y-78393876D01*
X94553776Y-78386576D01*
X94335757Y-78376930D01*
X94133423Y-78364617D01*
X93942232Y-78349320D01*
X93757639Y-78330720D01*
X93575102Y-78308496D01*
X93390075Y-78282332D01*
X92973785Y-78215565D01*
X92578052Y-78143482D01*
X92201532Y-78065751D01*
X91842879Y-77982037D01*
X91500750Y-77892007D01*
X91173801Y-77795328D01*
X90860687Y-77691667D01*
X90560064Y-77580691D01*
X90331356Y-77487814D01*
X90226029Y-77441872D01*
X90126246Y-77395972D01*
X90031653Y-77349896D01*
X89941896Y-77303430D01*
X89856618Y-77256354D01*
X89775466Y-77208454D01*
X89698085Y-77159513D01*
X89624120Y-77109313D01*
X89553217Y-77057638D01*
X89485020Y-77004271D01*
X89419175Y-76948996D01*
X89355327Y-76891595D01*
X89293122Y-76831853D01*
X89232205Y-76769553D01*
X89024465Y-76550597D01*
X89028425Y-76482063D01*
X89081464Y-76482063D01*
X89156990Y-76574309D01*
X89205138Y-76631962D01*
X89252756Y-76686569D01*
X89300158Y-76738378D01*
X89347657Y-76787636D01*
X89395569Y-76834590D01*
X89444208Y-76879489D01*
X89493886Y-76922579D01*
X89544919Y-76964109D01*
X89597621Y-77004325D01*
X89652305Y-77043475D01*
X89709286Y-77081807D01*
X89768877Y-77119568D01*
X89831394Y-77157006D01*
X89897149Y-77194369D01*
X89966458Y-77231903D01*
X90039633Y-77269856D01*
X90180754Y-77339220D01*
X90327325Y-77406559D01*
X90479408Y-77471891D01*
X90637069Y-77535234D01*
X90800369Y-77596609D01*
X90969374Y-77656033D01*
X91144145Y-77713526D01*
X91324748Y-77769106D01*
X91703700Y-77874605D01*
X92106737Y-77972681D01*
X92534370Y-78063485D01*
X92987105Y-78147170D01*
X93277554Y-78196160D01*
X93525182Y-78234823D01*
X93746138Y-78264636D01*
X93956572Y-78287075D01*
X94172635Y-78303615D01*
X94410477Y-78315732D01*
X94686247Y-78324903D01*
X95016096Y-78332602D01*
X95351981Y-78340947D01*
X95647520Y-78350931D01*
X95870763Y-78361300D01*
X95945291Y-78366236D01*
X95989764Y-78370798D01*
X96078378Y-78385774D01*
X96162589Y-78402788D01*
X96242451Y-78421870D01*
X96318018Y-78443049D01*
X96389346Y-78466355D01*
X96456487Y-78491818D01*
X96519498Y-78519466D01*
X96578431Y-78549331D01*
X96633342Y-78581441D01*
X96684285Y-78615827D01*
X96731314Y-78652517D01*
X96774484Y-78691541D01*
X96813850Y-78732930D01*
X96849465Y-78776712D01*
X96881384Y-78822917D01*
X96909662Y-78871575D01*
X96925692Y-78903381D01*
X96940270Y-78935630D01*
X96953396Y-78968314D01*
X96965071Y-79001422D01*
X96975298Y-79034947D01*
X96984079Y-79068879D01*
X96997304Y-79137928D01*
X97004759Y-79208496D01*
X97006456Y-79280511D01*
X97002408Y-79353900D01*
X96992626Y-79428590D01*
X96977123Y-79504509D01*
X96955912Y-79581584D01*
X96929003Y-79659743D01*
X96896410Y-79738913D01*
X96858144Y-79819021D01*
X96814218Y-79899995D01*
X96764645Y-79981762D01*
X96709435Y-80064249D01*
X96674763Y-80113075D01*
X96641805Y-80157995D01*
X96610190Y-80199341D01*
X96579551Y-80237443D01*
X96549519Y-80272631D01*
X96519724Y-80305236D01*
X96489797Y-80335587D01*
X96459370Y-80364015D01*
X96428074Y-80390850D01*
X96395540Y-80416422D01*
X96361399Y-80441062D01*
X96325282Y-80465101D01*
X96286821Y-80488867D01*
X96245646Y-80512693D01*
X96201388Y-80536907D01*
X96153679Y-80561840D01*
X96101139Y-80588344D01*
X96050941Y-80612685D01*
X96002352Y-80635080D01*
X95954637Y-80655744D01*
X95907064Y-80674893D01*
X95858899Y-80692742D01*
X95809408Y-80709508D01*
X95757858Y-80725406D01*
X95703515Y-80740651D01*
X95645645Y-80755461D01*
X95583515Y-80770049D01*
X95516391Y-80784633D01*
X95364227Y-80814649D01*
X95183284Y-80847234D01*
X95036628Y-80872526D01*
X94916690Y-80892026D01*
X94814106Y-80906619D01*
X94719512Y-80917189D01*
X94623544Y-80924623D01*
X94516835Y-80929803D01*
X94390022Y-80933615D01*
X94233741Y-80936944D01*
X94002437Y-80939333D01*
X93786473Y-80936644D01*
X93577726Y-80928174D01*
X93368075Y-80913220D01*
X93149398Y-80891076D01*
X92913572Y-80861039D01*
X92652475Y-80822404D01*
X92357986Y-80774468D01*
X91987181Y-80706881D01*
X91606415Y-80627747D01*
X91223531Y-80539151D01*
X90846373Y-80443185D01*
X90482785Y-80341934D01*
X90140613Y-80237489D01*
X89827699Y-80131937D01*
X89551889Y-80027368D01*
X89492764Y-80003694D01*
X89444153Y-79985011D01*
X89405330Y-79971116D01*
X89375567Y-79961808D01*
X89363856Y-79958811D01*
X89354138Y-79956885D01*
X89346322Y-79956004D01*
X89340316Y-79956144D01*
X89336031Y-79957279D01*
X89333375Y-79959384D01*
X89332257Y-79962433D01*
X89332587Y-79966402D01*
X89340812Y-80007627D01*
X89357905Y-80096968D01*
X89408702Y-80367375D01*
X89451014Y-80587040D01*
X89498693Y-80820226D01*
X89612794Y-81338723D01*
X89756294Y-81945979D01*
X89934481Y-82665106D01*
X90150719Y-83536443D01*
X90332841Y-84291254D01*
X90542561Y-85157456D01*
X90786790Y-86113142D01*
X91080804Y-87216746D01*
X91439876Y-88526706D01*
X91647419Y-89280183D01*
X91810052Y-89882365D01*
X91958678Y-90449338D01*
X92124203Y-91097185D01*
X92338382Y-91930569D01*
X92528482Y-92649602D01*
X92669680Y-93162021D01*
X92714185Y-93311919D01*
X92737157Y-93375566D01*
X92751911Y-93395592D01*
X92772066Y-93419916D01*
X92796969Y-93447923D01*
X92825966Y-93478992D01*
X92893632Y-93547850D01*
X92969839Y-93621549D01*
X93049360Y-93695145D01*
X93126970Y-93763695D01*
X93163426Y-93794534D01*
X93197444Y-93822259D01*
X93228371Y-93846250D01*
X93255555Y-93865892D01*
X93341804Y-93922657D01*
X93434401Y-93978910D01*
X93531382Y-94033656D01*
X93630779Y-94085897D01*
X93730628Y-94134639D01*
X93828961Y-94178883D01*
X93923814Y-94217635D01*
X93969321Y-94234639D01*
X94013220Y-94249896D01*
X94070366Y-94268348D01*
X94127350Y-94285502D01*
X94184505Y-94301411D01*
X94242161Y-94316125D01*
X94300652Y-94329696D01*
X94360308Y-94342177D01*
X94421462Y-94353618D01*
X94484445Y-94364072D01*
X94549589Y-94373591D01*
X94617227Y-94382225D01*
X94761309Y-94397049D01*
X94919345Y-94408957D01*
X95093990Y-94418364D01*
X95265042Y-94426675D01*
X95403465Y-94435092D01*
X95514768Y-94444457D01*
X95604460Y-94455611D01*
X95642923Y-94462122D01*
X95678049Y-94469396D01*
X95710527Y-94477538D01*
X95741045Y-94486654D01*
X95770293Y-94496848D01*
X95798957Y-94508226D01*
X95857293Y-94534954D01*
X95898315Y-94556724D01*
X95936856Y-94580570D01*
X95972914Y-94606407D01*
X96006485Y-94634154D01*
X96037564Y-94663730D01*
X96066147Y-94695050D01*
X96092232Y-94728033D01*
X96115813Y-94762598D01*
X96136886Y-94798660D01*
X96155448Y-94836139D01*
X96171496Y-94874951D01*
X96185024Y-94915015D01*
X96196029Y-94956248D01*
X96204507Y-94998568D01*
X96210454Y-95041892D01*
X96213866Y-95086139D01*
X96214739Y-95131225D01*
X96213069Y-95177069D01*
X96208853Y-95223588D01*
X96202086Y-95270699D01*
X96192764Y-95318322D01*
X96180883Y-95366372D01*
X96166440Y-95414769D01*
X96149431Y-95463429D01*
X96129851Y-95512270D01*
X96107697Y-95561210D01*
X96082964Y-95610167D01*
X96055649Y-95659058D01*
X96025748Y-95707801D01*
X95993257Y-95756314D01*
X95958171Y-95804514D01*
X95920487Y-95852319D01*
X95880561Y-95898948D01*
X95838469Y-95944050D01*
X95794287Y-95987576D01*
X95748092Y-96029478D01*
X95699962Y-96069709D01*
X95649973Y-96108219D01*
X95598203Y-96144961D01*
X95544727Y-96179886D01*
X95489624Y-96212947D01*
X95432969Y-96244095D01*
X95374841Y-96273282D01*
X95315315Y-96300460D01*
X95254469Y-96325580D01*
X95192380Y-96348595D01*
X95129125Y-96369456D01*
X95064780Y-96388115D01*
X95012865Y-96401470D01*
X94988572Y-96407027D01*
X94964663Y-96411894D01*
X94940596Y-96416116D01*
X94915825Y-96419735D01*
X94889807Y-96422794D01*
X94861999Y-96425337D01*
X94831855Y-96427407D01*
X94798833Y-96429048D01*
X94762389Y-96430302D01*
X94721977Y-96431213D01*
X94627080Y-96432179D01*
X94509790Y-96432292D01*
X94364085Y-96430739D01*
X94235774Y-96426153D01*
X94120249Y-96417872D01*
X94065842Y-96412138D01*
X94012903Y-96405231D01*
X93960858Y-96397068D01*
X93909130Y-96387567D01*
X93857143Y-96376644D01*
X93804321Y-96364216D01*
X93693870Y-96334514D01*
X93573170Y-96297797D01*
X93530385Y-96284416D01*
X93496960Y-96274564D01*
X93483446Y-96270929D01*
X93471898Y-96268138D01*
X93462191Y-96266177D01*
X93454199Y-96265034D01*
X93447799Y-96264697D01*
X93442865Y-96265151D01*
X93439273Y-96266384D01*
X93437941Y-96267289D01*
X93436898Y-96268384D01*
X93436127Y-96269668D01*
X93435614Y-96271138D01*
X93435297Y-96274632D01*
X93435823Y-96278854D01*
X93437066Y-96283791D01*
X93493105Y-96509536D01*
X93606958Y-96983894D01*
X93867328Y-98088106D01*
X94122786Y-99144529D01*
X94422631Y-100327585D01*
X94683046Y-101312886D01*
X94772276Y-101630006D01*
X94820217Y-101776041D01*
X94831991Y-101798824D01*
X94843158Y-101819434D01*
X94853828Y-101837966D01*
X94864109Y-101854518D01*
X94874109Y-101869187D01*
X94883937Y-101882071D01*
X94893702Y-101893267D01*
X94903511Y-101902871D01*
X94913474Y-101910981D01*
X94918547Y-101914507D01*
X94923699Y-101917695D01*
X94928944Y-101920558D01*
X94934295Y-101923109D01*
X94939765Y-101925359D01*
X94945369Y-101927321D01*
X94957030Y-101930428D01*
X94969387Y-101932526D01*
X94982549Y-101933714D01*
X94996623Y-101934089D01*
X95003445Y-101933926D01*
X95010396Y-101933448D01*
X95017424Y-101932672D01*
X95024481Y-101931613D01*
X95031518Y-101930287D01*
X95038484Y-101928711D01*
X95045330Y-101926901D01*
X95052006Y-101924872D01*
X95058464Y-101922642D01*
X95064652Y-101920225D01*
X95070522Y-101917639D01*
X95076025Y-101914899D01*
X95081109Y-101912021D01*
X95085727Y-101909022D01*
X95089827Y-101905918D01*
X95093362Y-101902724D01*
X95093365Y-101902724D01*
X95102261Y-101893512D01*
X95110917Y-101883718D01*
X95119446Y-101872950D01*
X95127958Y-101860817D01*
X95136567Y-101846924D01*
X95145383Y-101830881D01*
X95154518Y-101812294D01*
X95164083Y-101790772D01*
X95174191Y-101765921D01*
X95184953Y-101737350D01*
X95196481Y-101704666D01*
X95208886Y-101667477D01*
X95222281Y-101625390D01*
X95236776Y-101578013D01*
X95269515Y-101465821D01*
X95307996Y-101327759D01*
X95353114Y-101160691D01*
X95405762Y-100961476D01*
X95466832Y-100726977D01*
X95537218Y-100454053D01*
X95617814Y-100139565D01*
X95813208Y-99373345D01*
X95972521Y-98730725D01*
X96125793Y-98088106D01*
X96288178Y-97399724D01*
X96469406Y-96647079D01*
X96906158Y-94845796D01*
X97159852Y-93825759D01*
X97429822Y-92781625D01*
X97700271Y-91751788D01*
X97955124Y-90766135D01*
X98166634Y-89949228D01*
X98332878Y-89325108D01*
X98426360Y-88979757D01*
X98453894Y-88873511D01*
X98460993Y-88844060D01*
X98462934Y-88833080D01*
X98462526Y-88832864D01*
X98461700Y-88832751D01*
X98458831Y-88832823D01*
X98454414Y-88833279D01*
X98448536Y-88834101D01*
X98432739Y-88836777D01*
X98412131Y-88840716D01*
X98387404Y-88845780D01*
X98359246Y-88851833D01*
X98328351Y-88858739D01*
X98295407Y-88866361D01*
X98185501Y-88890248D01*
X98066756Y-88912405D01*
X97807114Y-88951258D01*
X97525206Y-88982380D01*
X97229761Y-89005230D01*
X96929504Y-89019268D01*
X96633163Y-89023954D01*
X96349464Y-89018746D01*
X96087135Y-89003106D01*
X95926173Y-88987260D01*
X95769955Y-88967380D01*
X95618632Y-88943521D01*
X95472357Y-88915741D01*
X95331284Y-88884094D01*
X95195563Y-88848638D01*
X95065349Y-88809427D01*
X94940792Y-88766519D01*
X94822046Y-88719969D01*
X94709264Y-88669833D01*
X94602597Y-88616168D01*
X94502198Y-88559029D01*
X94408220Y-88498472D01*
X94320815Y-88434554D01*
X94240135Y-88367330D01*
X94166334Y-88296857D01*
X94127118Y-88254362D01*
X94090677Y-88210178D01*
X94057050Y-88164432D01*
X94026281Y-88117247D01*
X93998411Y-88068750D01*
X93973481Y-88019065D01*
X93951534Y-87968317D01*
X93932612Y-87916632D01*
X93916756Y-87864136D01*
X93904008Y-87810953D01*
X93894410Y-87757208D01*
X93888003Y-87703027D01*
X93884830Y-87648535D01*
X93884932Y-87593857D01*
X93888351Y-87539118D01*
X93895128Y-87484445D01*
X93911762Y-87397101D01*
X93933971Y-87313352D01*
X93947151Y-87272841D01*
X93961706Y-87233249D01*
X93977630Y-87194582D01*
X93994916Y-87156846D01*
X94013557Y-87120048D01*
X94033549Y-87084194D01*
X94054883Y-87049292D01*
X94077554Y-87015348D01*
X94101556Y-86982367D01*
X94126882Y-86950358D01*
X94153525Y-86919326D01*
X94181480Y-86889278D01*
X94210739Y-86860221D01*
X94241297Y-86832161D01*
X94306284Y-86779059D01*
X94376388Y-86730025D01*
X94451559Y-86685111D01*
X94531746Y-86644370D01*
X94616899Y-86607854D01*
X94706965Y-86575617D01*
X94801894Y-86547711D01*
X94848204Y-86537196D01*
X94902927Y-86527786D01*
X94965355Y-86519497D01*
X95034777Y-86512343D01*
X95191771Y-86501495D01*
X95368233Y-86495359D01*
X95558490Y-86494050D01*
X95756868Y-86497682D01*
X95957693Y-86506371D01*
X96155290Y-86520232D01*
X96504984Y-86546017D01*
X96828112Y-86561480D01*
X97127470Y-86566511D01*
X97405851Y-86560995D01*
X97666052Y-86544820D01*
X97910866Y-86517874D01*
X98143089Y-86480043D01*
X98365515Y-86431216D01*
X98477609Y-86400871D01*
X98605889Y-86362237D01*
X98741039Y-86318589D01*
X98873747Y-86273204D01*
X98994699Y-86229359D01*
X99094581Y-86190330D01*
X99164078Y-86159393D01*
X99184522Y-86147982D01*
X99193878Y-86139824D01*
X99214133Y-86077432D01*
X99252892Y-85936686D01*
X99370690Y-85480451D01*
X99516801Y-84891760D01*
X99660756Y-84291254D01*
X99842634Y-83536443D01*
X100058769Y-82665106D01*
X100304029Y-81666021D01*
X100402710Y-81239589D01*
X100488219Y-80848693D01*
X100562650Y-80483428D01*
X100628099Y-80133892D01*
X100686661Y-79790181D01*
X100740429Y-79442392D01*
X100808913Y-78949386D01*
X100863056Y-78494753D01*
X100903065Y-78074445D01*
X100929146Y-77684415D01*
X100941505Y-77320615D01*
X100940349Y-76979000D01*
X100925883Y-76655521D01*
X100898315Y-76346132D01*
X100885335Y-76222927D01*
X100871783Y-76081801D01*
X100859265Y-75940169D01*
X100849386Y-75815444D01*
X100844883Y-75759346D01*
X100839528Y-75702558D01*
X100833520Y-75646643D01*
X100827060Y-75593161D01*
X100820347Y-75543674D01*
X100813581Y-75499742D01*
X100806963Y-75462928D01*
X100800691Y-75434792D01*
X100793808Y-75406577D01*
X100785431Y-75369534D01*
X100765493Y-75275276D01*
X100743462Y-75164637D01*
X100721927Y-75050234D01*
X100699954Y-74936245D01*
X100675952Y-74824310D01*
X100649885Y-74714337D01*
X100621720Y-74606236D01*
X100591422Y-74499917D01*
X100558957Y-74395287D01*
X100524290Y-74292256D01*
X100487387Y-74190732D01*
X100448213Y-74090626D01*
X100406736Y-73991846D01*
X100362919Y-73894301D01*
X100316729Y-73797899D01*
X100268131Y-73702551D01*
X100217091Y-73608164D01*
X100163575Y-73514649D01*
X100107548Y-73421913D01*
X100031807Y-73305322D01*
X99951561Y-73192362D01*
X99867118Y-73083283D01*
X99778783Y-72978336D01*
X99686864Y-72877771D01*
X99591668Y-72781837D01*
X99493500Y-72690787D01*
X99392668Y-72604869D01*
X99289479Y-72524333D01*
X99184240Y-72449431D01*
X99077256Y-72380413D01*
X98968835Y-72317528D01*
X98859284Y-72261027D01*
X98748909Y-72211160D01*
X98638017Y-72168178D01*
X98526914Y-72132331D01*
X98427674Y-72106273D01*
X98325428Y-72084768D01*
X98220099Y-72067818D01*
X98111606Y-72055431D01*
X97999870Y-72047611D01*
X97884812Y-72044363D01*
X97766352Y-72045693D01*
X97644412Y-72051606D01*
X97518912Y-72062107D01*
X97389773Y-72077201D01*
X97256915Y-72096894D01*
X97120260Y-72121191D01*
X96979727Y-72150097D01*
X96835238Y-72183618D01*
X96686714Y-72221758D01*
X96534075Y-72264524D01*
X96391061Y-72304168D01*
X96216899Y-72349402D01*
X96033604Y-72394654D01*
X95863187Y-72434349D01*
X95483457Y-72519345D01*
X94509791Y-72519345D01*
X94130061Y-72434349D01*
X93959645Y-72394653D01*
X93776350Y-72349402D01*
X93602189Y-72304168D01*
X93459176Y-72264524D01*
X93218503Y-72199176D01*
X92983887Y-72144978D01*
X92756736Y-72102100D01*
X92646400Y-72084958D01*
X92538458Y-72070710D01*
X92433087Y-72059375D01*
X92330462Y-72050977D01*
X92230760Y-72045534D01*
X92134156Y-72043070D01*
X92040827Y-72043604D01*
X91950948Y-72047157D01*
X91864695Y-72053752D01*
X91782246Y-72063409D01*
X91691378Y-72078072D01*
X91601127Y-72096689D01*
X91511533Y-72119237D01*
X91422639Y-72145697D01*
X91334485Y-72176047D01*
X91247113Y-72210265D01*
X91160564Y-72248330D01*
X91074879Y-72290221D01*
X90990100Y-72335917D01*
X90906268Y-72385396D01*
X90823425Y-72438638D01*
X90741611Y-72495621D01*
X90660869Y-72556323D01*
X90581239Y-72620724D01*
X90502763Y-72688802D01*
X90425482Y-72760537D01*
X90317363Y-72868976D01*
X90213873Y-72982374D01*
X90115046Y-73100659D01*
X90020921Y-73223759D01*
X89931533Y-73351602D01*
X89846918Y-73484115D01*
X89767113Y-73621226D01*
X89692155Y-73762863D01*
X89622080Y-73908954D01*
X89556923Y-74059427D01*
X89496722Y-74214209D01*
X89441514Y-74373228D01*
X89391333Y-74536412D01*
X89346217Y-74703689D01*
X89306202Y-74874987D01*
X89271325Y-75050233D01*
X89249796Y-75164609D01*
X89227785Y-75275178D01*
X89207874Y-75369330D01*
X89192645Y-75434459D01*
X89186405Y-75462336D01*
X89179842Y-75498539D01*
X89173152Y-75541544D01*
X89166533Y-75589832D01*
X89160180Y-75641880D01*
X89154292Y-75696168D01*
X89149065Y-75751173D01*
X89144695Y-75805375D01*
X89135645Y-75922207D01*
X89124896Y-76049302D01*
X89113793Y-76171319D01*
X89103682Y-76272915D01*
X89081464Y-76482063D01*
X89028425Y-76482063D01*
X89035715Y-76355866D01*
X89055625Y-76067095D01*
X89080436Y-75782244D01*
X89105172Y-75552958D01*
X89115956Y-75475291D01*
X89124855Y-75430882D01*
X89129999Y-75411627D01*
X89136740Y-75382907D01*
X89144791Y-75346120D01*
X89153866Y-75302664D01*
X89173942Y-75201334D01*
X89194677Y-75090099D01*
X89218193Y-74967257D01*
X89245843Y-74834320D01*
X89274177Y-74707297D01*
X89299751Y-74602198D01*
X89341370Y-74453499D01*
X89388714Y-74305739D01*
X89441514Y-74159368D01*
X89499501Y-74014835D01*
X89562406Y-73872592D01*
X89629961Y-73733088D01*
X89701896Y-73596773D01*
X89777944Y-73464098D01*
X89857836Y-73335512D01*
X89941302Y-73211466D01*
X90028075Y-73092410D01*
X90117885Y-72978794D01*
X90210464Y-72871068D01*
X90305543Y-72769683D01*
X90402854Y-72675088D01*
X90502128Y-72587733D01*
X90628200Y-72487108D01*
X90754123Y-72395991D01*
X90880466Y-72314247D01*
X91007803Y-72241743D01*
X91136705Y-72178345D01*
X91267743Y-72123917D01*
X91401488Y-72078327D01*
X91538513Y-72041441D01*
X91679389Y-72013123D01*
X91824687Y-71993240D01*
X91974979Y-71981658D01*
X92130836Y-71978243D01*
X92292830Y-71982860D01*
X92461532Y-71995376D01*
X92637514Y-72015657D01*
X92821348Y-72043568D01*
X92905378Y-72058186D01*
X92983302Y-72072968D01*
X93060923Y-72089321D01*
X93144046Y-72108652D01*
X93238475Y-72132370D01*
X93350014Y-72161880D01*
X93647637Y-72243909D01*
X93771173Y-72276610D01*
X93924334Y-72314516D01*
X94087630Y-72352927D01*
X94241574Y-72387141D01*
X94354794Y-72411118D01*
X94446106Y-72429268D01*
X94486129Y-72436411D01*
X94523773Y-72442402D01*
X94560072Y-72447341D01*
X94596058Y-72451331D01*
X94632764Y-72454471D01*
X94671223Y-72456865D01*
X94757531Y-72459814D01*
X94863244Y-72460989D01*
X94996625Y-72461201D01*
X95130006Y-72460989D01*
X95235719Y-72459814D01*
X95322027Y-72456865D01*
X95360486Y-72454471D01*
X95397192Y-72451331D01*
X95433178Y-72447341D01*
X95469476Y-72442402D01*
X95547144Y-72429268D01*
X95638456Y-72411118D01*
X95751676Y-72387141D01*
X95905620Y-72352927D01*
X96068916Y-72314517D01*
X96222076Y-72276611D01*
X96345611Y-72243909D01*
X96643234Y-72161880D01*
X96754773Y-72132370D01*
X96849202Y-72108652D01*
X96932325Y-72089321D01*
X97009947Y-72072968D01*
X97087870Y-72058186D01*
X97171900Y-72043568D01*
X97355734Y-72015657D01*
X97531716Y-71995377D01*
X97700419Y-71982861D01*
X97862413Y-71978243D01*
X98018270Y-71981659D01*
G37*
D11*
X90877189Y-66474756D02*
X90809845Y-66340069D01*
X90809845Y-66340069D02*
X90809845Y-66272726D01*
X90809845Y-66272726D02*
X90843517Y-66171710D01*
X90843517Y-66171710D02*
X90944532Y-66070695D01*
X90944532Y-66070695D02*
X91045548Y-66037023D01*
X91045548Y-66037023D02*
X91112891Y-66037023D01*
X91112891Y-66037023D02*
X91213906Y-66070695D01*
X91213906Y-66070695D02*
X91483280Y-66340069D01*
X91483280Y-66340069D02*
X90776174Y-67047176D01*
X90776174Y-67047176D02*
X90540471Y-66811474D01*
X90540471Y-66811474D02*
X90506799Y-66710458D01*
X90506799Y-66710458D02*
X90506799Y-66643115D01*
X90506799Y-66643115D02*
X90540471Y-66542100D01*
X90540471Y-66542100D02*
X90607815Y-66474756D01*
X90607815Y-66474756D02*
X90708830Y-66441084D01*
X90708830Y-66441084D02*
X90776174Y-66441084D01*
X90776174Y-66441084D02*
X90877189Y-66474756D01*
X90877189Y-66474756D02*
X91112891Y-66710458D01*
X90170082Y-66441084D02*
X89766021Y-66037023D01*
X90675158Y-65531947D02*
X89968051Y-66239054D01*
X90237425Y-65094214D02*
X89530319Y-65801321D01*
X89530319Y-65801321D02*
X89833364Y-64690153D01*
X89833364Y-64690153D02*
X89126258Y-65397260D01*
X88890555Y-65026871D02*
X88823212Y-65026871D01*
X88823212Y-65026871D02*
X88722197Y-64993199D01*
X88722197Y-64993199D02*
X88553838Y-64824840D01*
X88553838Y-64824840D02*
X88520166Y-64723825D01*
X88520166Y-64723825D02*
X88520166Y-64656481D01*
X88520166Y-64656481D02*
X88553838Y-64555466D01*
X88553838Y-64555466D02*
X88621181Y-64488123D01*
X88621181Y-64488123D02*
X88755868Y-64420779D01*
X88755868Y-64420779D02*
X89563990Y-64420779D01*
X89563990Y-64420779D02*
X89126258Y-63983046D01*
X90668344Y-67660083D02*
X90499985Y-67828441D01*
X90398970Y-67592739D02*
X90499985Y-67828441D01*
X90499985Y-67828441D02*
X90735687Y-67929457D01*
X90264283Y-67862113D02*
X90499985Y-67828441D01*
X90499985Y-67828441D02*
X90466313Y-68064144D01*
X100974756Y-64622810D02*
X100840069Y-64690154D01*
X100840069Y-64690154D02*
X100772726Y-64690154D01*
X100772726Y-64690154D02*
X100671710Y-64656482D01*
X100671710Y-64656482D02*
X100570695Y-64555467D01*
X100570695Y-64555467D02*
X100537023Y-64454451D01*
X100537023Y-64454451D02*
X100537023Y-64387108D01*
X100537023Y-64387108D02*
X100570695Y-64286093D01*
X100570695Y-64286093D02*
X100840069Y-64016719D01*
X100840069Y-64016719D02*
X101547176Y-64723825D01*
X101547176Y-64723825D02*
X101311474Y-64959528D01*
X101311474Y-64959528D02*
X101210458Y-64993200D01*
X101210458Y-64993200D02*
X101143115Y-64993200D01*
X101143115Y-64993200D02*
X101042100Y-64959528D01*
X101042100Y-64959528D02*
X100974756Y-64892184D01*
X100974756Y-64892184D02*
X100941084Y-64791169D01*
X100941084Y-64791169D02*
X100941084Y-64723825D01*
X100941084Y-64723825D02*
X100974756Y-64622810D01*
X100974756Y-64622810D02*
X101210458Y-64387108D01*
X100941084Y-65329917D02*
X100537023Y-65733978D01*
X100031947Y-64824841D02*
X100739054Y-65531948D01*
X99594214Y-65262574D02*
X100301321Y-65969680D01*
X100301321Y-65969680D02*
X99190153Y-65666635D01*
X99190153Y-65666635D02*
X99897260Y-66373741D01*
X98483046Y-66373741D02*
X98887107Y-65969680D01*
X98685077Y-66171711D02*
X99392184Y-66878818D01*
X99392184Y-66878818D02*
X99358512Y-66710459D01*
X99358512Y-66710459D02*
X99358512Y-66575772D01*
X99358512Y-66575772D02*
X99392184Y-66474757D01*
X102160083Y-64831655D02*
X102328441Y-65000014D01*
X102092739Y-65101029D02*
X102328441Y-65000014D01*
X102328441Y-65000014D02*
X102429457Y-64764312D01*
X102362113Y-65235716D02*
X102328441Y-65000014D01*
X102328441Y-65000014D02*
X102564144Y-65033686D01*
D12*
%TO.C,BTN2*%
X90000000Y-69505194D02*
X90258631Y-69246563D01*
X91124328Y-68380866D02*
X92880866Y-66624328D01*
X93746563Y-65758631D02*
X94005194Y-65500000D01*
X94005194Y-65500000D02*
X90000000Y-61494806D01*
X85994806Y-65500000D02*
X90000000Y-69505194D01*
X86253437Y-65241369D02*
X85994806Y-65500000D01*
X88875672Y-62619134D02*
X87119134Y-64375672D01*
X90000000Y-61494806D02*
X89741369Y-61753437D01*
%TO.C,BTN1*%
X104005194Y-65500000D02*
X103746563Y-65241369D01*
X102880866Y-64375672D02*
X101124328Y-62619134D01*
X100258631Y-61753437D02*
X100000000Y-61494806D01*
X100000000Y-61494806D02*
X95994806Y-65500000D01*
X100000000Y-69505194D02*
X104005194Y-65500000D01*
X99741369Y-69246563D02*
X100000000Y-69505194D01*
X97119134Y-66624328D02*
X98875672Y-68380866D01*
X95994806Y-65500000D02*
X96253437Y-65758631D01*
D13*
%TO.C,R7*%
X103512742Y-81727500D02*
X103987258Y-81727500D01*
X103512742Y-82772500D02*
X103987258Y-82772500D01*
%TO.C,R6*%
X103512742Y-83227500D02*
X103987258Y-83227500D01*
X103512742Y-84272500D02*
X103987258Y-84272500D01*
%TO.C,R5*%
X103512742Y-84727500D02*
X103987258Y-84727500D01*
X103512742Y-85772500D02*
X103987258Y-85772500D01*
%TO.C,R4*%
X86562258Y-85772500D02*
X86087742Y-85772500D01*
X86562258Y-84727500D02*
X86087742Y-84727500D01*
%TO.C,R3*%
X86562258Y-84272500D02*
X86087742Y-84272500D01*
X86562258Y-83227500D02*
X86087742Y-83227500D01*
%TO.C,R2*%
X86562258Y-82722500D02*
X86087742Y-82722500D01*
X86562258Y-81677500D02*
X86087742Y-81677500D01*
%TO.C,R1*%
X94762742Y-81977500D02*
X95237258Y-81977500D01*
X94762742Y-83022500D02*
X95237258Y-83022500D01*
%TO.C,U1*%
X92890000Y-77672500D02*
X92890000Y-77447500D01*
X93115000Y-77672500D02*
X92890000Y-77672500D01*
X96885000Y-73452500D02*
X97110000Y-73452500D01*
X96885000Y-77672500D02*
X97110000Y-77672500D01*
X97110000Y-73452500D02*
X97110000Y-73677500D01*
X97110000Y-77672500D02*
X97110000Y-77447500D01*
X92870000Y-73452500D02*
X92630000Y-73122500D01*
X93110000Y-73122500D01*
X92870000Y-73452500D01*
G36*
X92870000Y-73452500D02*
G01*
X92630000Y-73122500D01*
X93110000Y-73122500D01*
X92870000Y-73452500D01*
G37*
%TO.C,D30*%
X106265000Y-102022500D02*
X107735000Y-102022500D01*
X107735000Y-102022500D02*
X107735000Y-99737500D01*
X106265000Y-99737500D02*
X106265000Y-102022500D01*
%TO.C,D29*%
X106265000Y-98772500D02*
X107735000Y-98772500D01*
X107735000Y-98772500D02*
X107735000Y-96487500D01*
X106265000Y-96487500D02*
X106265000Y-98772500D01*
%TO.C,D28*%
X106265000Y-95485000D02*
X107735000Y-95485000D01*
X107735000Y-95485000D02*
X107735000Y-93200000D01*
X106265000Y-93200000D02*
X106265000Y-95485000D01*
%TO.C,D27*%
X106265000Y-92235000D02*
X107735000Y-92235000D01*
X107735000Y-92235000D02*
X107735000Y-89950000D01*
X106265000Y-89950000D02*
X106265000Y-92235000D01*
%TO.C,D26*%
X106265000Y-89022500D02*
X107735000Y-89022500D01*
X107735000Y-89022500D02*
X107735000Y-86737500D01*
X106265000Y-86737500D02*
X106265000Y-89022500D01*
%TO.C,D25*%
X103015000Y-102022500D02*
X104485000Y-102022500D01*
X104485000Y-102022500D02*
X104485000Y-99737500D01*
X103015000Y-99737500D02*
X103015000Y-102022500D01*
%TO.C,D24*%
X103015000Y-98772500D02*
X104485000Y-98772500D01*
X104485000Y-98772500D02*
X104485000Y-96487500D01*
X103015000Y-96487500D02*
X103015000Y-98772500D01*
%TO.C,D23*%
X103015000Y-95485000D02*
X104485000Y-95485000D01*
X104485000Y-95485000D02*
X104485000Y-93200000D01*
X103015000Y-93200000D02*
X103015000Y-95485000D01*
%TO.C,D22*%
X103015000Y-92235000D02*
X104485000Y-92235000D01*
X104485000Y-92235000D02*
X104485000Y-89950000D01*
X103015000Y-89950000D02*
X103015000Y-92235000D01*
%TO.C,D21*%
X103015000Y-89022500D02*
X104485000Y-89022500D01*
X104485000Y-89022500D02*
X104485000Y-86737500D01*
X103015000Y-86737500D02*
X103015000Y-89022500D01*
%TO.C,D20*%
X99802500Y-102022500D02*
X101272500Y-102022500D01*
X101272500Y-102022500D02*
X101272500Y-99737500D01*
X99802500Y-99737500D02*
X99802500Y-102022500D01*
%TO.C,D19*%
X99802500Y-98772500D02*
X101272500Y-98772500D01*
X101272500Y-98772500D02*
X101272500Y-96487500D01*
X99802500Y-96487500D02*
X99802500Y-98772500D01*
%TO.C,D18*%
X99802500Y-95485000D02*
X101272500Y-95485000D01*
X101272500Y-95485000D02*
X101272500Y-93200000D01*
X99802500Y-93200000D02*
X99802500Y-95485000D01*
%TO.C,D17*%
X99802500Y-92235000D02*
X101272500Y-92235000D01*
X101272500Y-92235000D02*
X101272500Y-89950000D01*
X99802500Y-89950000D02*
X99802500Y-92235000D01*
%TO.C,D16*%
X99802500Y-89022500D02*
X101272500Y-89022500D01*
X101272500Y-89022500D02*
X101272500Y-86737500D01*
X99802500Y-86737500D02*
X99802500Y-89022500D01*
%TO.C,D15*%
X88774176Y-101985000D02*
X90244176Y-101985000D01*
X90244176Y-101985000D02*
X90244176Y-99700000D01*
X88774176Y-99700000D02*
X88774176Y-101985000D01*
%TO.C,D14*%
X88774176Y-98735000D02*
X90244176Y-98735000D01*
X90244176Y-98735000D02*
X90244176Y-96450000D01*
X88774176Y-96450000D02*
X88774176Y-98735000D01*
%TO.C,D13*%
X88774176Y-95485000D02*
X90244176Y-95485000D01*
X90244176Y-95485000D02*
X90244176Y-93200000D01*
X88774176Y-93200000D02*
X88774176Y-95485000D01*
%TO.C,D12*%
X88774176Y-92235000D02*
X90244176Y-92235000D01*
X90244176Y-92235000D02*
X90244176Y-89950000D01*
X88774176Y-89950000D02*
X88774176Y-92235000D01*
%TO.C,D11*%
X88774176Y-88985000D02*
X90244176Y-88985000D01*
X90244176Y-88985000D02*
X90244176Y-86700000D01*
X88774176Y-86700000D02*
X88774176Y-88985000D01*
%TO.C,D10*%
X85515000Y-101985000D02*
X86985000Y-101985000D01*
X86985000Y-101985000D02*
X86985000Y-99700000D01*
X85515000Y-99700000D02*
X85515000Y-101985000D01*
%TO.C,D9*%
X85515000Y-96450000D02*
X85515000Y-98735000D01*
X86985000Y-98735000D02*
X86985000Y-96450000D01*
X85515000Y-98735000D02*
X86985000Y-98735000D01*
%TO.C,D8*%
X85515000Y-93200000D02*
X85515000Y-95485000D01*
X86985000Y-95485000D02*
X86985000Y-93200000D01*
X85515000Y-95485000D02*
X86985000Y-95485000D01*
%TO.C,D7*%
X85515000Y-89950000D02*
X85515000Y-92235000D01*
X86985000Y-92235000D02*
X86985000Y-89950000D01*
X85515000Y-92235000D02*
X86985000Y-92235000D01*
%TO.C,D6*%
X85515000Y-88985000D02*
X86985000Y-88985000D01*
X86985000Y-88985000D02*
X86985000Y-86700000D01*
X85515000Y-86700000D02*
X85515000Y-88985000D01*
%TO.C,D5*%
X82311676Y-101985000D02*
X83781676Y-101985000D01*
X83781676Y-101985000D02*
X83781676Y-99700000D01*
X82311676Y-99700000D02*
X82311676Y-101985000D01*
%TO.C,D4*%
X82311676Y-98735000D02*
X83781676Y-98735000D01*
X83781676Y-98735000D02*
X83781676Y-96450000D01*
X82311676Y-96450000D02*
X82311676Y-98735000D01*
%TO.C,D3*%
X82311676Y-95485000D02*
X83781676Y-95485000D01*
X83781676Y-95485000D02*
X83781676Y-93200000D01*
X82311676Y-93200000D02*
X82311676Y-95485000D01*
%TO.C,D2*%
X82311676Y-92235000D02*
X83781676Y-92235000D01*
X83781676Y-92235000D02*
X83781676Y-89950000D01*
X82311676Y-89950000D02*
X82311676Y-92235000D01*
%TO.C,D1*%
X82311676Y-88985000D02*
X83781676Y-88985000D01*
X83781676Y-88985000D02*
X83781676Y-86700000D01*
X82311676Y-86700000D02*
X82311676Y-88985000D01*
%TO.C,C2*%
X102104887Y-78672580D02*
X101769026Y-78272318D01*
X103230974Y-77727682D02*
X102895113Y-77327420D01*
%TO.C,C1*%
X88230974Y-78272318D02*
X87895113Y-78672580D01*
X87104887Y-77327420D02*
X86769026Y-77727682D01*
%TD*%
M02*
