M48
; DRILL file {KiCad 8.0.3} date 2024-08-14T20:25:57-0400
; FORMAT={-:-/ absolute / metric / decimal}
; #@! TF.CreationDate,2024-08-14T20:25:57-04:00
; #@! TF.GenerationSoftware,Kicad,Pcbnew,8.0.3
; #@! TF.FileFunction,Plated,1,2,PTH
FMAT,2
METRIC
; #@! TA.AperFunction,Plated,PTH,ViaDrill
T1C0.300
%
G90
G05
T1
X85.25Y-88.925
X85.25Y-90.938
X85.25Y-92.138
X85.25Y-94.188
X85.25Y-95.387
X85.25Y-97.438
X85.25Y-98.637
X85.304Y-87.725
X86.75Y-62.25
X88.25Y-75.5
X88.5Y-89.0
X88.5Y-90.938
X88.5Y-92.138
X88.5Y-94.188
X88.5Y-95.387
X88.5Y-97.438
X88.5Y-98.637
X88.534Y-87.725
X90.0Y-76.5
X90.75Y-64.0
X91.0Y-71.5
X91.0Y-81.75
X91.25Y-75.5
X92.25Y-67.75
X93.25Y-79.5
X94.875Y-70.625
X95.0Y-67.75
X95.0Y-75.2
X96.112Y-70.638
X96.75Y-79.5
X98.25Y-76.117
X98.253Y-74.482
X98.276Y-75.308
X98.75Y-71.5
X98.75Y-81.75
X99.75Y-78.25
X100.316Y-78.85
X101.5Y-87.725
X101.5Y-88.925
X101.5Y-92.138
X101.5Y-95.387
X101.5Y-98.637
X101.505Y-97.438
X101.51Y-94.188
X101.512Y-90.938
X101.75Y-75.5
X103.0Y-62.0
X104.603Y-97.438
X104.628Y-94.188
X104.637Y-95.387
X104.659Y-98.637
X104.75Y-87.725
X104.75Y-88.925
X104.75Y-90.938
X104.75Y-92.138
X108.0Y-88.325
X108.0Y-91.537
X108.0Y-94.75
X108.0Y-98.075
X108.0Y-101.325
M30
